<svg xmlns="http://www.w3.org/2000/svg" viewBox="0 0 101.5 85.19"><defs><style>.cls-1{fill:#fff;}.cls-1,.cls-2{opacity:0.1;}.cls-3{fill:#00c3ff;}.cls-4{fill:#ff838e;}.cls-5{fill:#c034c5;}.cls-6{fill:#0491bc;}.cls-7{fill:#00a7eb;}.cls-8{fill:#ffba40;}.cls-9{fill:#ea9d21;}.cls-10{fill:#ab2bb2;}.cls-11{fill:#ff828f;}.cls-12{fill:#120e44;}</style></defs><title>frvr</title><g id="Capa_2" data-name="Capa 2"><g id="Layer_1" data-name="Layer 1"><path class="cls-1" d="M73.5,61.14A15.34,15.34,0,1,1,58.16,45.81,15.33,15.33,0,0,1,73.5,61.14Z"/><path class="cls-2" d="M88.78,81.6c0,2-19.88,3.59-44.39,3.59S0,83.58,0,81.6,19.87,78,44.39,78,88.78,79.62,88.78,81.6Z"/><rect class="cls-3" x="38.65" y="71.01" width="23.31" height="12"/><rect class="cls-3" x="54.25" y="66.01" width="28.01" height="17"/><rect class="cls-3" x="75.5" y="58.45" width="26" height="24.57"/><path class="cls-4" d="M63.07,17.63s4.61-3.2,3.74-1.66-1.65,2.82-4.11,3.2Z"/><path class="cls-5" d="M43.23,10.12c-.74-.21-2.51-.32-2.53,1.59,0,3,6.4,8.8,8.27,9.5s14-2,14-2,.92-1.13.09-1.86l-12.5.56S45.81,10.84,43.23,10.12Z"/><path class="cls-1" d="M99.32,21.67A20.84,20.84,0,1,1,78.48.84,20.83,20.83,0,0,1,99.32,21.67Z"/><path class="cls-4" d="M41.73,38A64.38,64.38,0,0,0,52,38.62c7.15,0,6.91.76,9.92,9.54,2.18,6.34,4.4,11.37,6.72,14.21a10.37,10.37,0,0,0,3.1,2.21c2.41,1.34,4.37,2.35,2.58,2.78-1.59.38-3.55-1.67-6.15-.8-2,.68-3.14-.68-2.81-1.54s.15-1.83-.62-3.47c-.91-1.91-2.7-4.17-5.79-7.3s-1.38-9.54-4.07-9.91C50.15,43.69,41.5,43,41.5,43Z"/><path class="cls-6" d="M34.25,37.68a13,13,0,0,0,8.43,6.13,79.9,79.9,0,0,0,12.75,1.45s.12,6.22,3,10A83.44,83.44,0,0,1,63.62,63a3.43,3.43,0,0,0,4.76-.89S63,42,58.48,39.32L39.85,31.37Z"/><path class="cls-4" d="M35.24,41.47a64.15,64.15,0,0,0,4.26,9.39c3.32,6.33,2.53,6.48-3.86,13.21-4.61,4.87-8,9.17-9.48,12.54a10.54,10.54,0,0,0-.52,3.77c-.07,2.76-.06,5-1.26,3.58s-.17-3.93-2.15-5.82c-1.54-1.49-.85-3.1.07-3.21s1.69-.71,2.78-2.16c1.27-1.69,2.44-4.32,3.79-8.51s7-5.63,6-8.18c-1.62-4.51-4.86-12-4.86-12Z"/><path class="cls-7" d="M30.11,34.59A13,13,0,0,0,29.31,45,79.76,79.76,0,0,0,34.77,56.6S29.54,60,27.86,64.35a83.18,83.18,0,0,1-3.92,8.54,3.41,3.41,0,0,0,3.24,3.58s14.36-15.14,14.24-20.4L39.81,35.18Z"/><path class="cls-8" d="M42.08,1A4.06,4.06,0,0,0,36.81.89C34.9,2.17,23.93-1.55,23.93,4.24c0,11.88-8.87,9.61-7.24,12.28,4.95,8.12.62,5.83,4.63,10.26,3.69,4.08,13-5.14,14.4-7.32s3.74-2.62,4.49-6.45a71.16,71.16,0,0,1,2.45-9.58A1.76,1.76,0,0,0,42.08,1Z"/><path class="cls-9" d="M40.21,13c.36-1.85.84-3.92,1.28-5.68-.78-.21-1.2,1.18-2.39,1,0,0-5.37-1.14-4.34.52s-.68,3-3.86,2.74-7.36,2.16-4.76,4.06.48,4.62-1.89,5.21c-5,1.24-2.17,5.67-2.93,5.88,3.42,3.78,12.72-3.47,14.94-5.67,0,0-.89-1.22-.86-1.26a2.2,2.2,0,0,0,.32-.39C37.11,17.29,39.46,16.84,40.21,13Z"/><path class="cls-10" d="M35.42,11.13c-7,2.46.84,15.7-5.31,23.46-2.16,2.72,17.65,1.73,16.13-1.4-5.07-10.38,4.65-14.91-1.42-21.53C43.23,9.92,40.11,9.49,35.42,11.13Z"/><path class="cls-11" d="M38.4,5.77s.66,3.27-.25,4.82c-.57,1,4,3.43,3.92,2.11C42,11,41.14,9.94,42.07,8Z"/><path class="cls-4" d="M42.2,1.67c1.38,1.43,2.64,7.51,1,8.76-.69.54-3.38-.24-5-3A5,5,0,0,1,38,2.28C38.58,1.38,40.59,0,42.2,1.67Z"/><path class="cls-8" d="M43.28,2.61c.1.81.1,1.28-1.75,1-2.26-.32-2,1.28-1.76,1.84.6,1.61-2-.09-1.29,1.85s-1.67-.46-1.87-.75-.9-1.58.53-4.26S43,.11,43.28,2.61Z"/><path class="cls-12" d="M39.53,5.06a1.46,1.46,0,0,0,0,2.23c.83.89,5.2-.46,5.76-.88S45.85,4,45.06,3.9A12.74,12.74,0,0,0,39.53,5.06Z"/><path class="cls-12" d="M39.17,5.47a8.64,8.64,0,0,0-1.93.47c-.15.18-.37.91,1.93.54Z"/><path class="cls-4" d="M45.34,32.14s5.55.83,3.87,1.36S46.08,34.42,44,33Z"/><path class="cls-5" d="M36.05,13.07c-.4-.66-1.61-2-2.94-.57-2.1,2.18-1.37,10.8-.49,12.58S44.2,33.26,44.2,33.26s1.46-.19,1.35-1.3L36.07,23.8S37.43,15.36,36.05,13.07Z"/></g></g></svg>