<svg xmlns="http://www.w3.org/2000/svg" viewBox="0 0 92.15 93.64"><defs><style>.cls-1{isolation:isolate;}.cls-2{mix-blend-mode:overlay;}.cls-3{fill:#b839e3;opacity:0;}.cls-4{fill:#b93be3;opacity:0.01;}.cls-5{fill:#b93de4;opacity:0.02;}.cls-6{fill:#ba3fe4;opacity:0.03;}.cls-7{fill:#bb41e4;opacity:0.04;}.cls-8{fill:#bc43e4;opacity:0.05;}.cls-9{fill:#bc45e5;opacity:0.06;}.cls-10{fill:#bd47e5;opacity:0.07;}.cls-11{fill:#be49e5;opacity:0.08;}.cls-12{fill:#be4be5;opacity:0.09;}.cls-13{fill:#bf4de6;opacity:0.1;}.cls-14{fill:#c04fe6;opacity:0.11;}.cls-15{fill:#c051e6;opacity:0.12;}.cls-16{fill:#c152e7;opacity:0.13;}.cls-17{fill:#c254e7;opacity:0.14;}.cls-18{fill:#c356e7;opacity:0.15;}.cls-19{fill:#c358e7;opacity:0.16;}.cls-20{fill:#c45ae8;opacity:0.17;}.cls-21{fill:#c55ce8;opacity:0.18;}.cls-22{fill:#c55ee8;opacity:0.19;}.cls-23{fill:#c660e9;opacity:0.2;}.cls-24{fill:#c762e9;opacity:0.21;}.cls-25{fill:#c764e9;opacity:0.22;}.cls-26{fill:#c866e9;opacity:0.23;}.cls-27{fill:#c968ea;opacity:0.24;}.cls-28{fill:#ca6aea;opacity:0.25;}.cls-29{fill:#ca6cea;opacity:0.26;}.cls-30{fill:#cb6eea;opacity:0.27;}.cls-31{fill:#cc70eb;opacity:0.28;}.cls-32{fill:#cc72eb;opacity:0.29;}.cls-33{fill:#cd74eb;opacity:0.3;}.cls-34{fill:#ce76ec;opacity:0.31;}.cls-35{fill:#ce78ec;opacity:0.32;}.cls-36{fill:#cf7aec;opacity:0.33;}.cls-37{fill:#d07cec;opacity:0.34;}.cls-38{fill:#d17eed;opacity:0.35;}.cls-39{fill:#d180ed;opacity:0.36;}.cls-40{fill:#d282ed;opacity:0.37;}.cls-41{fill:#d383ee;opacity:0.38;}.cls-42{fill:#d385ee;opacity:0.39;}.cls-43{fill:#d487ee;opacity:0.4;}.cls-44{fill:#d589ee;opacity:0.41;}.cls-45{fill:#d68bef;opacity:0.42;}.cls-46{fill:#d68def;opacity:0.43;}.cls-47{fill:#d78fef;opacity:0.44;}.cls-48{fill:#d891ef;opacity:0.45;}.cls-49{fill:#d893f0;opacity:0.46;}.cls-50{fill:#d995f0;opacity:0.47;}.cls-51{fill:#da97f0;opacity:0.48;}.cls-52{fill:#da99f1;opacity:0.49;}.cls-53{fill:#db9bf1;opacity:0.5;}.cls-54{fill:#dc9df1;opacity:0.5;}.cls-55{fill:#dd9ff1;opacity:0.51;}.cls-56{fill:#dda1f2;opacity:0.52;}.cls-57{fill:#dea3f2;opacity:0.53;}.cls-58{fill:#dfa5f2;opacity:0.54;}.cls-59{fill:#dfa7f3;opacity:0.55;}.cls-60{fill:#e0a9f3;opacity:0.56;}.cls-61{fill:#e1abf3;opacity:0.57;}.cls-62{fill:#e1adf3;opacity:0.58;}.cls-63{fill:#e2aff4;opacity:0.59;}.cls-64{fill:#e3b1f4;opacity:0.6;}.cls-65{fill:#e4b3f4;opacity:0.61;}.cls-66{fill:#e4b5f4;opacity:0.62;}.cls-67{fill:#e5b6f5;opacity:0.63;}.cls-68{fill:#e6b8f5;opacity:0.64;}.cls-69{fill:#e6baf5;opacity:0.65;}.cls-70{fill:#e7bcf6;opacity:0.66;}.cls-71{fill:#e8bef6;opacity:0.67;}.cls-72{fill:#e9c0f6;opacity:0.68;}.cls-73{fill:#e9c2f6;opacity:0.69;}.cls-74{fill:#eac4f7;opacity:0.7;}.cls-75{fill:#ebc6f7;opacity:0.71;}.cls-76{fill:#ebc8f7;opacity:0.72;}.cls-77{fill:#eccaf8;opacity:0.73;}.cls-78{fill:#edccf8;opacity:0.74;}.cls-79{fill:#edcef8;opacity:0.75;}.cls-80{fill:#eed0f8;opacity:0.76;}.cls-81{fill:#efd2f9;opacity:0.77;}.cls-82{fill:#f0d4f9;opacity:0.78;}.cls-83{fill:#f0d6f9;opacity:0.79;}.cls-84{fill:#f1d8f9;opacity:0.8;}.cls-85{fill:#f2dafa;opacity:0.81;}.cls-86{fill:#f2dcfa;opacity:0.82;}.cls-87{fill:#f3defa;opacity:0.83;}.cls-88{fill:#f4e0fb;opacity:0.84;}.cls-89{fill:#f4e2fb;opacity:0.85;}.cls-90{fill:#f5e4fb;opacity:0.86;}.cls-91{fill:#f6e6fb;opacity:0.87;}.cls-92{fill:#f7e7fc;opacity:0.88;}.cls-93{fill:#f7e9fc;opacity:0.89;}.cls-94{fill:#f8ebfc;opacity:0.9;}.cls-95{fill:#f9edfd;opacity:0.91;}.cls-96{fill:#f9effd;opacity:0.92;}.cls-97{fill:#faf1fd;opacity:0.93;}.cls-98{fill:#fbf3fd;opacity:0.94;}.cls-99{fill:#fbf5fe;opacity:0.95;}.cls-100{fill:#fcf7fe;opacity:0.96;}.cls-101{fill:#fdf9fe;opacity:0.97;}.cls-102{fill:#fefbfe;opacity:0.98;}.cls-103{fill:#fefdff;opacity:0.99;}.cls-104,.cls-105{fill:#fff;}.cls-105,.cls-115{opacity:0.1;}.cls-106{fill:#ff838e;}.cls-107{fill:#0491bc;}.cls-108{fill:#120e44;}.cls-109{fill:#ff828f;}.cls-110{fill:#c034c5;}.cls-111{fill:#00a7eb;}.cls-112{fill:#ffba40;}.cls-113{fill:#ea9d21;}.cls-114{fill:#ab2bb2;}</style></defs><title>vtgy</title><g class="cls-1"><g id="Capa_2" data-name="Capa 2"><g id="Layer_1" data-name="Layer 1"><g class="cls-2"><path class="cls-3" d="M0,28.3A16.47,16.47,0,1,0,16.47,11.83,16.47,16.47,0,0,0,0,28.3Z"/><path class="cls-4" d="M.15,28.31A16.32,16.32,0,1,0,16.47,12,16.32,16.32,0,0,0,.15,28.31Z"/><path class="cls-5" d="M.31,28.31A16.16,16.16,0,1,0,16.47,12.15,16.16,16.16,0,0,0,.31,28.31Z"/><path class="cls-6" d="M.46,28.32a16,16,0,1,0,16-16A16,16,0,0,0,.46,28.32Z"/><path class="cls-7" d="M.62,28.33A15.85,15.85,0,1,0,16.47,12.48,15.85,15.85,0,0,0,.62,28.33Z"/><path class="cls-8" d="M.77,28.34a15.7,15.7,0,1,0,15.7-15.7A15.7,15.7,0,0,0,.77,28.34Z"/><path class="cls-9" d="M.93,28.35A15.54,15.54,0,1,0,16.47,12.81,15.53,15.53,0,0,0,.93,28.35Z"/><path class="cls-10" d="M1.08,28.36A15.39,15.39,0,1,0,16.47,13,15.39,15.39,0,0,0,1.08,28.36Z"/><path class="cls-11" d="M1.24,28.36A15.23,15.23,0,1,0,16.47,13.13,15.23,15.23,0,0,0,1.24,28.36Z"/><path class="cls-12" d="M1.39,28.37A15.08,15.08,0,1,0,16.47,13.3,15.08,15.08,0,0,0,1.39,28.37Z"/><path class="cls-13" d="M1.55,28.38A14.92,14.92,0,1,0,16.47,13.46,14.92,14.92,0,0,0,1.55,28.38Z"/><path class="cls-14" d="M1.7,28.39A14.77,14.77,0,1,0,16.47,13.62,14.77,14.77,0,0,0,1.7,28.39Z"/><path class="cls-15" d="M1.86,28.4A14.61,14.61,0,1,0,16.47,13.79,14.61,14.61,0,0,0,1.86,28.4Z"/><path class="cls-16" d="M2,28.41A14.46,14.46,0,1,0,16.47,14,14.46,14.46,0,0,0,2,28.41Z"/><path class="cls-17" d="M2.17,28.41a14.31,14.31,0,1,0,14.3-14.3A14.3,14.3,0,0,0,2.17,28.41Z"/><path class="cls-18" d="M2.32,28.42A14.15,14.15,0,1,0,16.47,14.27,14.16,14.16,0,0,0,2.32,28.42Z"/><path class="cls-19" d="M2.48,28.43a14,14,0,1,0,14-14A14,14,0,0,0,2.48,28.43Z"/><path class="cls-20" d="M2.63,28.44A13.84,13.84,0,1,0,16.47,14.6,13.84,13.84,0,0,0,2.63,28.44Z"/><path class="cls-21" d="M2.79,28.45A13.69,13.69,0,1,0,16.47,14.76,13.68,13.68,0,0,0,2.79,28.45Z"/><path class="cls-22" d="M2.94,28.46A13.53,13.53,0,1,0,16.47,14.93,13.53,13.53,0,0,0,2.94,28.46Z"/><path class="cls-23" d="M3.1,28.46A13.38,13.38,0,1,0,16.47,15.09,13.36,13.36,0,0,0,3.1,28.46Z"/><path class="cls-24" d="M3.25,28.47A13.22,13.22,0,1,0,16.47,15.25,13.22,13.22,0,0,0,3.25,28.47Z"/><path class="cls-25" d="M3.4,28.48A13.07,13.07,0,1,0,16.47,15.41,13.07,13.07,0,0,0,3.4,28.48Z"/><path class="cls-26" d="M3.56,28.49A12.91,12.91,0,1,0,16.47,15.58,12.91,12.91,0,0,0,3.56,28.49Z"/><path class="cls-27" d="M3.71,28.5A12.76,12.76,0,1,0,16.47,15.74,12.76,12.76,0,0,0,3.71,28.5Z"/><path class="cls-28" d="M3.87,28.5a12.6,12.6,0,1,0,12.6-12.6A12.6,12.6,0,0,0,3.87,28.5Z"/><path class="cls-29" d="M4,28.51A12.45,12.45,0,1,0,16.47,16.07,12.46,12.46,0,0,0,4,28.51Z"/><path class="cls-30" d="M4.18,28.52A12.29,12.29,0,1,0,16.47,16.23,12.29,12.29,0,0,0,4.18,28.52Z"/><path class="cls-31" d="M4.33,28.53A12.14,12.14,0,1,0,16.47,16.39,12.14,12.14,0,0,0,4.33,28.53Z"/><path class="cls-32" d="M4.49,28.54a12,12,0,1,0,12-12A12,12,0,0,0,4.49,28.54Z"/><path class="cls-33" d="M4.64,28.55A11.83,11.83,0,1,0,16.47,16.72,11.83,11.83,0,0,0,4.64,28.55Z"/><path class="cls-34" d="M4.8,28.55A11.68,11.68,0,1,0,16.47,16.88,11.66,11.66,0,0,0,4.8,28.55Z"/><path class="cls-35" d="M5,28.56A11.52,11.52,0,1,0,16.47,17.05,11.52,11.52,0,0,0,5,28.56Z"/><path class="cls-36" d="M5.11,28.57A11.37,11.37,0,1,0,16.47,17.21,11.37,11.37,0,0,0,5.11,28.57Z"/><path class="cls-37" d="M5.26,28.58A11.21,11.21,0,1,0,16.47,17.37,11.21,11.21,0,0,0,5.26,28.58Z"/><path class="cls-38" d="M5.42,28.59a11.06,11.06,0,1,0,11-11A11.05,11.05,0,0,0,5.42,28.59Z"/><path class="cls-39" d="M5.57,28.6a10.9,10.9,0,1,0,10.9-10.9A10.9,10.9,0,0,0,5.57,28.6Z"/><path class="cls-40" d="M5.73,28.6A10.75,10.75,0,1,0,16.47,17.86,10.75,10.75,0,0,0,5.73,28.6Z"/><path class="cls-41" d="M5.88,28.61A10.59,10.59,0,1,0,16.47,18,10.59,10.59,0,0,0,5.88,28.61Z"/><path class="cls-42" d="M6,28.62A10.44,10.44,0,1,0,16.47,18.19,10.43,10.43,0,0,0,6,28.62Z"/><path class="cls-43" d="M6.19,28.63A10.28,10.28,0,1,0,16.47,18.35,10.28,10.28,0,0,0,6.19,28.63Z"/><path class="cls-44" d="M6.35,28.64A10.13,10.13,0,1,0,16.47,18.51,10.12,10.12,0,0,0,6.35,28.64Z"/><path class="cls-45" d="M6.5,28.65a10,10,0,1,0,10-10A10,10,0,0,0,6.5,28.65Z"/><path class="cls-46" d="M6.65,28.65a9.82,9.82,0,1,0,9.82-9.81A9.82,9.82,0,0,0,6.65,28.65Z"/><path class="cls-47" d="M6.81,28.66A9.66,9.66,0,1,0,16.47,19,9.67,9.67,0,0,0,6.81,28.66Z"/><path class="cls-48" d="M7,28.67a9.51,9.51,0,1,0,9.51-9.5A9.5,9.5,0,0,0,7,28.67Z"/><path class="cls-49" d="M7.12,28.68a9.35,9.35,0,1,0,9.35-9.35A9.35,9.35,0,0,0,7.12,28.68Z"/><path class="cls-50" d="M7.27,28.69a9.2,9.2,0,1,0,9.2-9.2A9.2,9.2,0,0,0,7.27,28.69Z"/><path class="cls-51" d="M7.43,28.7a9,9,0,1,0,9-9A9,9,0,0,0,7.43,28.7Z"/><path class="cls-52" d="M7.58,28.7a8.89,8.89,0,1,0,8.89-8.88A8.89,8.89,0,0,0,7.58,28.7Z"/><path class="cls-53" d="M7.74,28.71A8.74,8.74,0,1,0,16.47,20,8.73,8.73,0,0,0,7.74,28.71Z"/><path class="cls-54" d="M7.89,28.72a8.58,8.58,0,1,0,8.58-8.58A8.58,8.58,0,0,0,7.89,28.72Z"/><path class="cls-55" d="M8.05,28.73a8.43,8.43,0,1,0,8.42-8.42A8.42,8.42,0,0,0,8.05,28.73Z"/><path class="cls-56" d="M8.2,28.74a8.27,8.27,0,1,0,8.27-8.27A8.26,8.26,0,0,0,8.2,28.74Z"/><path class="cls-57" d="M8.36,28.75a8.12,8.12,0,1,0,8.11-8.12A8.12,8.12,0,0,0,8.36,28.75Z"/><path class="cls-58" d="M8.51,28.75a8,8,0,1,0,8-7.95A8,8,0,0,0,8.51,28.75Z"/><path class="cls-59" d="M8.67,28.76a7.81,7.81,0,1,0,7.8-7.8A7.8,7.8,0,0,0,8.67,28.76Z"/><path class="cls-60" d="M8.82,28.77a7.65,7.65,0,1,0,7.65-7.65A7.66,7.66,0,0,0,8.82,28.77Z"/><path class="cls-61" d="M9,28.78a7.5,7.5,0,1,0,7.49-7.49A7.49,7.49,0,0,0,9,28.78Z"/><path class="cls-62" d="M9.13,28.79a7.34,7.34,0,1,0,7.34-7.34A7.34,7.34,0,0,0,9.13,28.79Z"/><path class="cls-63" d="M9.29,28.79a7.19,7.19,0,1,0,7.18-7.18A7.18,7.18,0,0,0,9.29,28.79Z"/><path class="cls-64" d="M9.44,28.8a7,7,0,1,0,7-7A7,7,0,0,0,9.44,28.8Z"/><path class="cls-65" d="M9.6,28.81a6.88,6.88,0,1,0,6.87-6.87A6.87,6.87,0,0,0,9.6,28.81Z"/><path class="cls-66" d="M9.75,28.82a6.72,6.72,0,1,0,6.72-6.72A6.72,6.72,0,0,0,9.75,28.82Z"/><path class="cls-67" d="M9.9,28.83a6.57,6.57,0,1,0,6.57-6.57A6.57,6.57,0,0,0,9.9,28.83Z"/><path class="cls-68" d="M10.06,28.84a6.41,6.41,0,1,0,6.41-6.41A6.42,6.42,0,0,0,10.06,28.84Z"/><path class="cls-69" d="M10.21,28.84a6.26,6.26,0,1,0,6.26-6.25A6.26,6.26,0,0,0,10.21,28.84Z"/><path class="cls-70" d="M10.37,28.85a6.1,6.1,0,1,0,6.1-6.1A6.1,6.1,0,0,0,10.37,28.85Z"/><path class="cls-71" d="M10.52,28.86a6,6,0,1,0,5.95-5.94A6,6,0,0,0,10.52,28.86Z"/><path class="cls-72" d="M10.68,28.87a5.8,5.8,0,1,0,5.79-5.79A5.79,5.79,0,0,0,10.68,28.87Z"/><path class="cls-73" d="M10.83,28.88a5.64,5.64,0,1,0,5.64-5.64A5.64,5.64,0,0,0,10.83,28.88Z"/><path class="cls-74" d="M11,28.89a5.49,5.49,0,1,0,5.48-5.48A5.48,5.48,0,0,0,11,28.89Z"/><path class="cls-75" d="M11.14,28.89a5.33,5.33,0,1,0,5.33-5.32A5.33,5.33,0,0,0,11.14,28.89Z"/><path class="cls-76" d="M11.3,28.9a5.18,5.18,0,1,0,5.17-5.17A5.17,5.17,0,0,0,11.3,28.9Z"/><path class="cls-77" d="M11.45,28.91a5,5,0,1,0,5-5A5,5,0,0,0,11.45,28.91Z"/><path class="cls-78" d="M11.61,28.92a4.87,4.87,0,1,0,4.86-4.86A4.86,4.86,0,0,0,11.61,28.92Z"/><path class="cls-79" d="M11.76,28.93a4.71,4.71,0,1,0,4.71-4.71A4.72,4.72,0,0,0,11.76,28.93Z"/><path class="cls-80" d="M11.92,28.94a4.56,4.56,0,1,0,4.55-4.56A4.55,4.55,0,0,0,11.92,28.94Z"/><path class="cls-81" d="M12.07,28.94a4.4,4.4,0,1,0,4.4-4.39A4.4,4.4,0,0,0,12.07,28.94Z"/><path class="cls-82" d="M12.23,29a4.25,4.25,0,1,0,4.24-4.24A4.25,4.25,0,0,0,12.23,29Z"/><path class="cls-83" d="M12.38,29a4.09,4.09,0,1,0,4.09-4.09A4.09,4.09,0,0,0,12.38,29Z"/><path class="cls-84" d="M12.54,29A3.94,3.94,0,1,0,16.47,25,3.93,3.93,0,0,0,12.54,29Z"/><path class="cls-85" d="M12.69,29a3.78,3.78,0,1,0,3.78-3.78A3.78,3.78,0,0,0,12.69,29Z"/><path class="cls-86" d="M12.85,29a3.63,3.63,0,1,0,3.62-3.63A3.63,3.63,0,0,0,12.85,29Z"/><path class="cls-87" d="M13,29a3.47,3.47,0,1,0,3.47-3.46A3.47,3.47,0,0,0,13,29Z"/><path class="cls-88" d="M13.16,29a3.32,3.32,0,1,0,3.31-3.31A3.32,3.32,0,0,0,13.16,29Z"/><path class="cls-89" d="M13.31,29a3.16,3.16,0,1,0,3.16-3.16A3.17,3.17,0,0,0,13.31,29Z"/><path class="cls-90" d="M13.46,29a3,3,0,1,0,3-3A3,3,0,0,0,13.46,29Z"/><path class="cls-91" d="M13.62,29a2.86,2.86,0,1,0,2.85-2.85A2.86,2.86,0,0,0,13.62,29Z"/><path class="cls-92" d="M13.77,29a2.7,2.7,0,1,0,2.7-2.7A2.7,2.7,0,0,0,13.77,29Z"/><path class="cls-93" d="M13.93,29a2.55,2.55,0,1,0,2.54-2.54A2.55,2.55,0,0,0,13.93,29Z"/><path class="cls-94" d="M14.08,29.05a2.39,2.39,0,1,0,2.39-2.38A2.39,2.39,0,0,0,14.08,29.05Z"/><path class="cls-95" d="M14.24,29.06a2.24,2.24,0,1,0,2.23-2.23A2.23,2.23,0,0,0,14.24,29.06Z"/><path class="cls-96" d="M14.39,29.07A2.08,2.08,0,1,0,16.47,27,2.08,2.08,0,0,0,14.39,29.07Z"/><path class="cls-97" d="M14.55,29.08a1.93,1.93,0,1,0,1.92-1.92A1.92,1.92,0,0,0,14.55,29.08Z"/><path class="cls-98" d="M14.7,29.09a1.77,1.77,0,1,0,1.77-1.77A1.76,1.76,0,0,0,14.7,29.09Z"/><path class="cls-99" d="M14.86,29.09a1.62,1.62,0,1,0,1.61-1.61A1.62,1.62,0,0,0,14.86,29.09Z"/><path class="cls-100" d="M15,29.1a1.46,1.46,0,1,0,1.46-1.46A1.47,1.47,0,0,0,15,29.1Z"/><path class="cls-101" d="M15.17,29.11a1.31,1.31,0,1,0,1.3-1.3A1.3,1.3,0,0,0,15.17,29.11Z"/><path class="cls-102" d="M15.32,29.12a1.15,1.15,0,0,0,2.3,0,1.15,1.15,0,0,0-2.3,0Z"/><path class="cls-103" d="M15.48,29.13a1,1,0,0,0,2,0,1,1,0,1,0-2,0Z"/><path class="cls-104" d="M15.63,29.14a.84.84,0,0,0,1.68,0,.84.84,0,0,0-1.68,0Z"/></g><g class="cls-2"><path class="cls-3" d="M55.4,73.3A16.47,16.47,0,1,0,71.87,56.84,16.47,16.47,0,0,0,55.4,73.3Z"/><path class="cls-4" d="M55.56,73.31A16.32,16.32,0,1,0,71.87,57,16.31,16.31,0,0,0,55.56,73.31Z"/><path class="cls-5" d="M55.71,73.32A16.17,16.17,0,1,0,71.87,57.16,16.17,16.17,0,0,0,55.71,73.32Z"/><path class="cls-6" d="M55.87,73.33a16,16,0,1,0,16-16A16,16,0,0,0,55.87,73.33Z"/><path class="cls-7" d="M56,73.34A15.86,15.86,0,1,0,71.87,57.49,15.85,15.85,0,0,0,56,73.34Z"/><path class="cls-8" d="M56.18,73.35a15.7,15.7,0,1,0,15.69-15.7A15.7,15.7,0,0,0,56.18,73.35Z"/><path class="cls-9" d="M56.33,73.35A15.55,15.55,0,1,0,71.87,57.81,15.54,15.54,0,0,0,56.33,73.35Z"/><path class="cls-10" d="M56.49,73.36A15.39,15.39,0,1,0,71.87,58,15.39,15.39,0,0,0,56.49,73.36Z"/><path class="cls-11" d="M56.64,73.37A15.24,15.24,0,1,0,71.87,58.14,15.23,15.23,0,0,0,56.64,73.37Z"/><path class="cls-12" d="M56.8,73.38A15.08,15.08,0,1,0,71.87,58.3,15.07,15.07,0,0,0,56.8,73.38Z"/><path class="cls-13" d="M57,73.39A14.93,14.93,0,1,0,71.87,58.47,14.93,14.93,0,0,0,57,73.39Z"/><path class="cls-14" d="M57.11,73.4A14.77,14.77,0,1,0,71.87,58.63,14.76,14.76,0,0,0,57.11,73.4Z"/><path class="cls-15" d="M57.26,73.4A14.62,14.62,0,1,0,71.87,58.79,14.61,14.61,0,0,0,57.26,73.4Z"/><path class="cls-16" d="M57.42,73.41A14.46,14.46,0,1,0,71.87,59,14.46,14.46,0,0,0,57.42,73.41Z"/><path class="cls-17" d="M57.57,73.42a14.31,14.31,0,1,0,14.3-14.3A14.3,14.3,0,0,0,57.57,73.42Z"/><path class="cls-18" d="M57.72,73.43A14.15,14.15,0,1,0,71.87,59.28,14.16,14.16,0,0,0,57.72,73.43Z"/><path class="cls-19" d="M57.88,73.44a14,14,0,1,0,14-14A14,14,0,0,0,57.88,73.44Z"/><path class="cls-20" d="M58,73.45A13.84,13.84,0,1,0,71.87,59.61,13.84,13.84,0,0,0,58,73.45Z"/><path class="cls-21" d="M58.19,73.45A13.69,13.69,0,1,0,71.87,59.77,13.69,13.69,0,0,0,58.19,73.45Z"/><path class="cls-22" d="M58.34,73.46A13.53,13.53,0,1,0,71.87,59.93,13.53,13.53,0,0,0,58.34,73.46Z"/><path class="cls-23" d="M58.5,73.47A13.38,13.38,0,1,0,71.87,60.1,13.38,13.38,0,0,0,58.5,73.47Z"/><path class="cls-24" d="M58.65,73.48A13.23,13.23,0,1,0,71.87,60.26,13.23,13.23,0,0,0,58.65,73.48Z"/><path class="cls-25" d="M58.81,73.49A13.07,13.07,0,1,0,71.87,60.42,13.06,13.06,0,0,0,58.81,73.49Z"/><path class="cls-26" d="M59,73.5A12.92,12.92,0,1,0,71.87,60.59,12.91,12.91,0,0,0,59,73.5Z"/><path class="cls-27" d="M59.12,73.5A12.76,12.76,0,1,0,71.87,60.75,12.75,12.75,0,0,0,59.12,73.5Z"/><path class="cls-28" d="M59.27,73.51a12.61,12.61,0,1,0,12.6-12.6A12.6,12.6,0,0,0,59.27,73.51Z"/><path class="cls-29" d="M59.43,73.52A12.45,12.45,0,1,0,71.87,61.08,12.44,12.44,0,0,0,59.43,73.52Z"/><path class="cls-30" d="M59.58,73.53A12.3,12.3,0,1,0,71.87,61.24,12.3,12.3,0,0,0,59.58,73.53Z"/><path class="cls-31" d="M59.74,73.54A12.14,12.14,0,1,0,71.87,61.4,12.13,12.13,0,0,0,59.74,73.54Z"/><path class="cls-32" d="M59.89,73.55a12,12,0,1,0,12-12A12,12,0,0,0,59.89,73.55Z"/><path class="cls-33" d="M60.05,73.55A11.83,11.83,0,1,0,71.87,61.73,11.83,11.83,0,0,0,60.05,73.55Z"/><path class="cls-34" d="M60.2,73.56A11.68,11.68,0,1,0,71.87,61.89,11.67,11.67,0,0,0,60.2,73.56Z"/><path class="cls-35" d="M60.36,73.57A11.52,11.52,0,1,0,71.87,62.05,11.51,11.51,0,0,0,60.36,73.57Z"/><path class="cls-36" d="M60.51,73.58A11.37,11.37,0,1,0,71.87,62.22,11.37,11.37,0,0,0,60.51,73.58Z"/><path class="cls-37" d="M60.67,73.59a11.21,11.21,0,1,0,11.2-11.21A11.21,11.21,0,0,0,60.67,73.59Z"/><path class="cls-38" d="M60.82,73.6A11.06,11.06,0,1,0,71.87,62.54,11.05,11.05,0,0,0,60.82,73.6Z"/><path class="cls-39" d="M61,73.6A10.9,10.9,0,1,0,71.87,62.71,10.9,10.9,0,0,0,61,73.6Z"/><path class="cls-40" d="M61.13,73.61A10.75,10.75,0,1,0,71.87,62.87,10.74,10.74,0,0,0,61.13,73.61Z"/><path class="cls-41" d="M61.28,73.62A10.6,10.6,0,1,0,71.87,63,10.59,10.59,0,0,0,61.28,73.62Z"/><path class="cls-42" d="M61.44,73.63A10.44,10.44,0,1,0,71.87,63.2,10.43,10.43,0,0,0,61.44,73.63Z"/><path class="cls-43" d="M61.59,73.64A10.29,10.29,0,1,0,71.87,63.36,10.28,10.28,0,0,0,61.59,73.64Z"/><path class="cls-44" d="M61.75,73.65A10.13,10.13,0,1,0,71.87,63.52,10.13,10.13,0,0,0,61.75,73.65Z"/><path class="cls-45" d="M61.9,73.65a10,10,0,1,0,10-10A10,10,0,0,0,61.9,73.65Z"/><path class="cls-46" d="M62.06,73.66a9.82,9.82,0,1,0,9.81-9.81A9.82,9.82,0,0,0,62.06,73.66Z"/><path class="cls-47" d="M62.21,73.67A9.67,9.67,0,1,0,71.87,64,9.67,9.67,0,0,0,62.21,73.67Z"/><path class="cls-48" d="M62.37,73.68a9.51,9.51,0,1,0,9.5-9.51A9.5,9.5,0,0,0,62.37,73.68Z"/><path class="cls-49" d="M62.52,73.69a9.36,9.36,0,1,0,9.35-9.35A9.35,9.35,0,0,0,62.52,73.69Z"/><path class="cls-50" d="M62.68,73.7a9.2,9.2,0,1,0,9.19-9.2A9.2,9.2,0,0,0,62.68,73.7Z"/><path class="cls-51" d="M62.83,73.7a9,9,0,1,0,9-9A9,9,0,0,0,62.83,73.7Z"/><path class="cls-52" d="M63,73.71a8.89,8.89,0,1,0,8.88-8.88A8.89,8.89,0,0,0,63,73.71Z"/><path class="cls-53" d="M63.14,73.72A8.74,8.74,0,1,0,71.87,65,8.73,8.73,0,0,0,63.14,73.72Z"/><path class="cls-54" d="M63.3,73.73a8.58,8.58,0,1,0,8.57-8.58A8.57,8.57,0,0,0,63.3,73.73Z"/><path class="cls-55" d="M63.45,73.74a8.43,8.43,0,1,0,8.42-8.43A8.43,8.43,0,0,0,63.45,73.74Z"/><path class="cls-56" d="M63.61,73.75a8.27,8.27,0,1,0,8.26-8.27A8.26,8.26,0,0,0,63.61,73.75Z"/><path class="cls-57" d="M63.76,73.75a8.12,8.12,0,1,0,8.11-8.11A8.12,8.12,0,0,0,63.76,73.75Z"/><path class="cls-58" d="M63.92,73.76a8,8,0,1,0,8-8A8,8,0,0,0,63.92,73.76Z"/><path class="cls-59" d="M64.07,73.77a7.81,7.81,0,1,0,7.8-7.8A7.8,7.8,0,0,0,64.07,73.77Z"/><path class="cls-60" d="M64.23,73.78a7.65,7.65,0,1,0,7.64-7.65A7.65,7.65,0,0,0,64.23,73.78Z"/><path class="cls-61" d="M64.38,73.79a7.5,7.5,0,1,0,7.49-7.5A7.5,7.5,0,0,0,64.38,73.79Z"/><path class="cls-62" d="M64.53,73.79a7.35,7.35,0,1,0,7.34-7.33A7.34,7.34,0,0,0,64.53,73.79Z"/><path class="cls-63" d="M64.69,73.8a7.19,7.19,0,1,0,7.18-7.18A7.19,7.19,0,0,0,64.69,73.8Z"/><path class="cls-64" d="M64.84,73.81a7,7,0,1,0,7-7A7,7,0,0,0,64.84,73.81Z"/><path class="cls-65" d="M65,73.82A6.88,6.88,0,1,0,71.87,67,6.88,6.88,0,0,0,65,73.82Z"/><path class="cls-66" d="M65.15,73.83a6.73,6.73,0,1,0,6.72-6.72A6.72,6.72,0,0,0,65.15,73.83Z"/><path class="cls-67" d="M65.31,73.84a6.57,6.57,0,1,0,6.56-6.57A6.56,6.56,0,0,0,65.31,73.84Z"/><path class="cls-68" d="M65.46,73.84a6.42,6.42,0,1,0,6.41-6.41A6.41,6.41,0,0,0,65.46,73.84Z"/><path class="cls-69" d="M65.62,73.85a6.26,6.26,0,1,0,6.25-6.25A6.26,6.26,0,0,0,65.62,73.85Z"/><path class="cls-70" d="M65.77,73.86a6.11,6.11,0,1,0,6.1-6.1A6.11,6.11,0,0,0,65.77,73.86Z"/><path class="cls-71" d="M65.93,73.87a5.95,5.95,0,1,0,5.94-6A5.95,5.95,0,0,0,65.93,73.87Z"/><path class="cls-72" d="M66.08,73.88a5.8,5.8,0,1,0,5.79-5.79A5.8,5.8,0,0,0,66.08,73.88Z"/><path class="cls-73" d="M66.24,73.89a5.64,5.64,0,1,0,5.63-5.64A5.63,5.63,0,0,0,66.24,73.89Z"/><path class="cls-74" d="M66.39,73.89a5.49,5.49,0,1,0,5.48-5.48A5.49,5.49,0,0,0,66.39,73.89Z"/><path class="cls-75" d="M66.55,73.9a5.33,5.33,0,1,0,5.32-5.32A5.33,5.33,0,0,0,66.55,73.9Z"/><path class="cls-76" d="M66.7,73.91a5.18,5.18,0,1,0,5.17-5.17A5.18,5.18,0,0,0,66.7,73.91Z"/><path class="cls-77" d="M66.86,73.92a5,5,0,1,0,5-5A5,5,0,0,0,66.86,73.92Z"/><path class="cls-78" d="M67,73.93a4.87,4.87,0,1,0,4.86-4.86A4.87,4.87,0,0,0,67,73.93Z"/><path class="cls-79" d="M67.17,73.94a4.71,4.71,0,1,0,4.7-4.71A4.7,4.7,0,0,0,67.17,73.94Z"/><path class="cls-80" d="M67.32,73.94a4.56,4.56,0,1,0,4.55-4.55A4.56,4.56,0,0,0,67.32,73.94Z"/><path class="cls-81" d="M67.48,74a4.4,4.4,0,1,0,4.39-4.4A4.39,4.39,0,0,0,67.48,74Z"/><path class="cls-82" d="M67.63,74a4.25,4.25,0,1,0,4.24-4.24A4.25,4.25,0,0,0,67.63,74Z"/><path class="cls-83" d="M67.78,74a4.1,4.1,0,1,0,4.09-4.09A4.1,4.1,0,0,0,67.78,74Z"/><path class="cls-84" d="M67.94,74A3.94,3.94,0,1,0,71.87,70,3.93,3.93,0,0,0,67.94,74Z"/><path class="cls-85" d="M68.09,74a3.79,3.79,0,1,0,3.78-3.78A3.79,3.79,0,0,0,68.09,74Z"/><path class="cls-86" d="M68.25,74a3.63,3.63,0,1,0,3.62-3.62A3.63,3.63,0,0,0,68.25,74Z"/><path class="cls-87" d="M68.4,74a3.48,3.48,0,1,0,3.47-3.47A3.47,3.47,0,0,0,68.4,74Z"/><path class="cls-88" d="M68.56,74a3.32,3.32,0,1,0,3.31-3.31A3.32,3.32,0,0,0,68.56,74Z"/><path class="cls-89" d="M68.71,74a3.17,3.17,0,1,0,3.16-3.16A3.17,3.17,0,0,0,68.71,74Z"/><path class="cls-90" d="M68.87,74a3,3,0,1,0,3-3A3,3,0,0,0,68.87,74Z"/><path class="cls-91" d="M69,74a2.86,2.86,0,1,0,2.85-2.86A2.86,2.86,0,0,0,69,74Z"/><path class="cls-92" d="M69.18,74a2.7,2.7,0,1,0,2.69-2.69A2.69,2.69,0,0,0,69.18,74Z"/><path class="cls-93" d="M69.33,74.05a2.55,2.55,0,1,0,2.54-2.54A2.54,2.54,0,0,0,69.33,74.05Z"/><path class="cls-94" d="M69.49,74.06a2.39,2.39,0,1,0,2.38-2.39A2.39,2.39,0,0,0,69.49,74.06Z"/><path class="cls-95" d="M69.64,74.07a2.24,2.24,0,1,0,2.23-2.23A2.23,2.23,0,0,0,69.64,74.07Z"/><path class="cls-96" d="M69.8,74.08A2.08,2.08,0,1,0,71.87,72,2.08,2.08,0,0,0,69.8,74.08Z"/><path class="cls-97" d="M70,74.08a1.93,1.93,0,1,0,1.92-1.92A1.93,1.93,0,0,0,70,74.08Z"/><path class="cls-98" d="M70.11,74.09a1.77,1.77,0,1,0,1.76-1.76A1.76,1.76,0,0,0,70.11,74.09Z"/><path class="cls-99" d="M70.26,74.1a1.62,1.62,0,1,0,1.61-1.61A1.62,1.62,0,0,0,70.26,74.1Z"/><path class="cls-100" d="M70.42,74.11a1.46,1.46,0,1,0,1.46-1.46A1.46,1.46,0,0,0,70.42,74.11Z"/><path class="cls-101" d="M70.57,74.12a1.31,1.31,0,1,0,1.31-1.3A1.3,1.3,0,0,0,70.57,74.12Z"/><path class="cls-102" d="M70.73,74.13A1.15,1.15,0,1,0,71.88,73,1.15,1.15,0,0,0,70.73,74.13Z"/><path class="cls-103" d="M70.88,74.13a1,1,0,1,0,2,0,1,1,0,0,0-2,0Z"/><path class="cls-104" d="M71,74.14a.85.85,0,1,0,.85-.84A.85.85,0,0,0,71,74.14Z"/></g><g class="cls-2"><path class="cls-3" d="M54.58,17.29A16.48,16.48,0,1,0,71.05.82,16.47,16.47,0,0,0,54.58,17.29Z"/><path class="cls-4" d="M54.74,17.29A16.32,16.32,0,1,0,71.05,1,16.31,16.31,0,0,0,54.74,17.29Z"/><path class="cls-5" d="M54.89,17.3A16.17,16.17,0,1,0,71.05,1.14,16.17,16.17,0,0,0,54.89,17.3Z"/><path class="cls-6" d="M55.05,17.31a16,16,0,1,0,16-16A16,16,0,0,0,55.05,17.31Z"/><path class="cls-7" d="M55.2,17.32A15.86,15.86,0,1,0,71.05,1.47,15.85,15.85,0,0,0,55.2,17.32Z"/><path class="cls-8" d="M55.36,17.33A15.7,15.7,0,1,0,71.05,1.63,15.7,15.7,0,0,0,55.36,17.33Z"/><path class="cls-9" d="M55.51,17.33A15.55,15.55,0,1,0,71.05,1.79,15.54,15.54,0,0,0,55.51,17.33Z"/><path class="cls-10" d="M55.67,17.34A15.39,15.39,0,1,0,71.05,2,15.39,15.39,0,0,0,55.67,17.34Z"/><path class="cls-11" d="M55.82,17.35A15.24,15.24,0,1,0,71.05,2.12,15.24,15.24,0,0,0,55.82,17.35Z"/><path class="cls-12" d="M56,17.36A15.08,15.08,0,1,0,71.05,2.28,15.07,15.07,0,0,0,56,17.36Z"/><path class="cls-13" d="M56.13,17.37A14.93,14.93,0,1,0,71.05,2.45,14.93,14.93,0,0,0,56.13,17.37Z"/><path class="cls-14" d="M56.29,17.38A14.77,14.77,0,1,0,71.05,2.61,14.76,14.76,0,0,0,56.29,17.38Z"/><path class="cls-15" d="M56.44,17.38A14.62,14.62,0,1,0,71.05,2.77,14.61,14.61,0,0,0,56.44,17.38Z"/><path class="cls-16" d="M56.6,17.39A14.46,14.46,0,1,0,71.05,2.94,14.46,14.46,0,0,0,56.6,17.39Z"/><path class="cls-17" d="M56.75,17.4A14.31,14.31,0,1,0,71.05,3.1,14.3,14.3,0,0,0,56.75,17.4Z"/><path class="cls-18" d="M56.91,17.41A14.15,14.15,0,1,0,71.05,3.26,14.14,14.14,0,0,0,56.91,17.41Z"/><path class="cls-19" d="M57.06,17.42a14,14,0,1,0,14-14A14,14,0,0,0,57.06,17.42Z"/><path class="cls-20" d="M57.22,17.43A13.84,13.84,0,1,0,71.05,3.59,13.83,13.83,0,0,0,57.22,17.43Z"/><path class="cls-21" d="M57.37,17.43A13.69,13.69,0,1,0,71.05,3.75,13.69,13.69,0,0,0,57.37,17.43Z"/><path class="cls-22" d="M57.53,17.44A13.53,13.53,0,1,0,71.05,3.91,13.53,13.53,0,0,0,57.53,17.44Z"/><path class="cls-23" d="M57.68,17.45A13.38,13.38,0,1,0,71.05,4.08,13.38,13.38,0,0,0,57.68,17.45Z"/><path class="cls-24" d="M57.84,17.46A13.22,13.22,0,1,0,71.05,4.24,13.22,13.22,0,0,0,57.84,17.46Z"/><path class="cls-25" d="M58,17.47A13.07,13.07,0,1,0,71.05,4.4,13.06,13.06,0,0,0,58,17.47Z"/><path class="cls-26" d="M58.14,17.48A12.92,12.92,0,1,0,71.05,4.57,12.91,12.91,0,0,0,58.14,17.48Z"/><path class="cls-27" d="M58.3,17.48A12.76,12.76,0,1,0,71.05,4.73,12.75,12.75,0,0,0,58.3,17.48Z"/><path class="cls-28" d="M58.45,17.49a12.61,12.61,0,1,0,12.6-12.6A12.6,12.6,0,0,0,58.45,17.49Z"/><path class="cls-29" d="M58.61,17.5A12.45,12.45,0,1,0,71.05,5.05,12.44,12.44,0,0,0,58.61,17.5Z"/><path class="cls-30" d="M58.76,17.51A12.3,12.3,0,1,0,71.05,5.22,12.3,12.3,0,0,0,58.76,17.51Z"/><path class="cls-31" d="M58.92,17.52A12.14,12.14,0,1,0,71.05,5.38,12.13,12.13,0,0,0,58.92,17.52Z"/><path class="cls-32" d="M59.07,17.53a12,12,0,1,0,12-12A12,12,0,0,0,59.07,17.53Z"/><path class="cls-33" d="M59.23,17.53A11.83,11.83,0,1,0,71.05,5.71,11.83,11.83,0,0,0,59.23,17.53Z"/><path class="cls-34" d="M59.38,17.54A11.68,11.68,0,1,0,71.05,5.87,11.67,11.67,0,0,0,59.38,17.54Z"/><path class="cls-35" d="M59.54,17.55A11.52,11.52,0,1,0,71.05,6,11.52,11.52,0,0,0,59.54,17.55Z"/><path class="cls-36" d="M59.69,17.56A11.37,11.37,0,1,0,71.05,6.2,11.37,11.37,0,0,0,59.69,17.56Z"/><path class="cls-37" d="M59.85,17.57A11.21,11.21,0,1,0,71.05,6.36,11.21,11.21,0,0,0,59.85,17.57Z"/><path class="cls-38" d="M60,17.58a11.06,11.06,0,1,0,11-11.06A11.05,11.05,0,0,0,60,17.58Z"/><path class="cls-39" d="M60.16,17.58A10.9,10.9,0,1,0,71.05,6.69,10.9,10.9,0,0,0,60.16,17.58Z"/><path class="cls-40" d="M60.31,17.59A10.75,10.75,0,1,0,71.05,6.85,10.74,10.74,0,0,0,60.31,17.59Z"/><path class="cls-41" d="M60.47,17.6A10.59,10.59,0,1,0,71.05,7,10.59,10.59,0,0,0,60.47,17.6Z"/><path class="cls-42" d="M60.62,17.61A10.44,10.44,0,1,0,71.05,7.17,10.44,10.44,0,0,0,60.62,17.61Z"/><path class="cls-43" d="M60.78,17.62A10.28,10.28,0,1,0,71.05,7.34,10.27,10.27,0,0,0,60.78,17.62Z"/><path class="cls-44" d="M60.93,17.63A10.13,10.13,0,1,0,71.05,7.5,10.13,10.13,0,0,0,60.93,17.63Z"/><path class="cls-45" d="M61.09,17.63a10,10,0,1,0,10-10A10,10,0,0,0,61.09,17.63Z"/><path class="cls-46" d="M61.24,17.64a9.82,9.82,0,1,0,9.81-9.81A9.82,9.82,0,0,0,61.24,17.64Z"/><path class="cls-47" d="M61.4,17.65A9.66,9.66,0,1,0,71.05,8,9.66,9.66,0,0,0,61.4,17.65Z"/><path class="cls-48" d="M61.55,17.66a9.51,9.51,0,1,0,9.5-9.51A9.5,9.5,0,0,0,61.55,17.66Z"/><path class="cls-49" d="M61.7,17.67a9.36,9.36,0,1,0,9.35-9.35A9.35,9.35,0,0,0,61.7,17.67Z"/><path class="cls-50" d="M61.86,17.68a9.2,9.2,0,1,0,9.19-9.2A9.2,9.2,0,0,0,61.86,17.68Z"/><path class="cls-51" d="M62,17.68a9,9,0,1,0,9-9A9,9,0,0,0,62,17.68Z"/><path class="cls-52" d="M62.17,17.69a8.89,8.89,0,1,0,8.88-8.88A8.89,8.89,0,0,0,62.17,17.69Z"/><path class="cls-53" d="M62.32,17.7A8.74,8.74,0,1,0,71.05,9,8.73,8.73,0,0,0,62.32,17.7Z"/><path class="cls-54" d="M62.48,17.71a8.58,8.58,0,1,0,8.57-8.58A8.57,8.57,0,0,0,62.48,17.71Z"/><path class="cls-55" d="M62.63,17.72a8.43,8.43,0,1,0,8.42-8.43A8.43,8.43,0,0,0,62.63,17.72Z"/><path class="cls-56" d="M62.79,17.73a8.27,8.27,0,1,0,8.26-8.27A8.26,8.26,0,0,0,62.79,17.73Z"/><path class="cls-57" d="M62.94,17.73a8.12,8.12,0,1,0,8.11-8.11A8.12,8.12,0,0,0,62.94,17.73Z"/><path class="cls-58" d="M63.1,17.74a8,8,0,1,0,7.95-8A8,8,0,0,0,63.1,17.74Z"/><path class="cls-59" d="M63.25,17.75a7.81,7.81,0,1,0,7.8-7.8A7.8,7.8,0,0,0,63.25,17.75Z"/><path class="cls-60" d="M63.41,17.76a7.65,7.65,0,1,0,7.64-7.65A7.65,7.65,0,0,0,63.41,17.76Z"/><path class="cls-61" d="M63.56,17.77a7.5,7.5,0,1,0,7.49-7.5A7.5,7.5,0,0,0,63.56,17.77Z"/><path class="cls-62" d="M63.72,17.78a7.34,7.34,0,1,0,7.33-7.34A7.33,7.33,0,0,0,63.72,17.78Z"/><path class="cls-63" d="M63.87,17.78a7.19,7.19,0,1,0,7.18-7.18A7.19,7.19,0,0,0,63.87,17.78Z"/><path class="cls-64" d="M64,17.79a7,7,0,1,0,7-7A7,7,0,0,0,64,17.79Z"/><path class="cls-65" d="M64.18,17.8a6.88,6.88,0,1,0,6.87-6.87A6.88,6.88,0,0,0,64.18,17.8Z"/><path class="cls-66" d="M64.34,17.81a6.72,6.72,0,1,0,6.71-6.72A6.72,6.72,0,0,0,64.34,17.81Z"/><path class="cls-67" d="M64.49,17.82a6.57,6.57,0,1,0,6.56-6.57A6.56,6.56,0,0,0,64.49,17.82Z"/><path class="cls-68" d="M64.65,17.83a6.41,6.41,0,1,0,6.4-6.42A6.41,6.41,0,0,0,64.65,17.83Z"/><path class="cls-69" d="M64.8,17.83a6.26,6.26,0,1,0,6.25-6.25A6.25,6.25,0,0,0,64.8,17.83Z"/><path class="cls-70" d="M65,17.84a6.1,6.1,0,1,0,6.09-6.1A6.1,6.1,0,0,0,65,17.84Z"/><path class="cls-71" d="M65.11,17.85a5.95,5.95,0,1,0,5.94-6A5.94,5.94,0,0,0,65.11,17.85Z"/><path class="cls-72" d="M65.26,17.86a5.8,5.8,0,1,0,5.79-5.79A5.8,5.8,0,0,0,65.26,17.86Z"/><path class="cls-73" d="M65.42,17.87a5.64,5.64,0,1,0,5.64-5.64A5.63,5.63,0,0,0,65.42,17.87Z"/><path class="cls-74" d="M65.57,17.87a5.49,5.49,0,1,0,5.49-5.48A5.49,5.49,0,0,0,65.57,17.87Z"/><path class="cls-75" d="M65.73,17.88a5.33,5.33,0,1,0,5.33-5.32A5.33,5.33,0,0,0,65.73,17.88Z"/><path class="cls-76" d="M65.88,17.89a5.18,5.18,0,1,0,5.18-5.17A5.17,5.17,0,0,0,65.88,17.89Z"/><path class="cls-77" d="M66,17.9a5,5,0,1,0,5-5A5,5,0,0,0,66,17.9Z"/><path class="cls-78" d="M66.19,17.91a4.87,4.87,0,1,0,4.87-4.86A4.87,4.87,0,0,0,66.19,17.91Z"/><path class="cls-79" d="M66.35,17.92a4.71,4.71,0,1,0,4.71-4.71A4.7,4.7,0,0,0,66.35,17.92Z"/><path class="cls-80" d="M66.5,17.92a4.56,4.56,0,1,0,4.56-4.55A4.56,4.56,0,0,0,66.5,17.92Z"/><path class="cls-81" d="M66.66,17.93a4.4,4.4,0,1,0,4.4-4.4A4.4,4.4,0,0,0,66.66,17.93Z"/><path class="cls-82" d="M66.81,17.94a4.25,4.25,0,1,0,4.25-4.24A4.24,4.24,0,0,0,66.81,17.94Z"/><path class="cls-83" d="M67,18a4.09,4.09,0,1,0,4.09-4.09A4.09,4.09,0,0,0,67,18Z"/><path class="cls-84" d="M67.12,18A3.94,3.94,0,1,0,71.06,14,3.93,3.93,0,0,0,67.12,18Z"/><path class="cls-85" d="M67.28,18a3.78,3.78,0,1,0,3.78-3.78A3.78,3.78,0,0,0,67.28,18Z"/><path class="cls-86" d="M67.43,18a3.63,3.63,0,1,0,3.63-3.62A3.63,3.63,0,0,0,67.43,18Z"/><path class="cls-87" d="M67.59,18a3.47,3.47,0,1,0,3.47-3.47A3.47,3.47,0,0,0,67.59,18Z"/><path class="cls-88" d="M67.74,18a3.32,3.32,0,1,0,3.32-3.31A3.32,3.32,0,0,0,67.74,18Z"/><path class="cls-89" d="M67.9,18a3.16,3.16,0,1,0,3.16-3.16A3.16,3.16,0,0,0,67.9,18Z"/><path class="cls-90" d="M68.05,18a3,3,0,1,0,3-3A3,3,0,0,0,68.05,18Z"/><path class="cls-91" d="M68.21,18a2.85,2.85,0,1,0,2.85-2.86A2.85,2.85,0,0,0,68.21,18Z"/><path class="cls-92" d="M68.36,18a2.7,2.7,0,1,0,2.7-2.69A2.7,2.7,0,0,0,68.36,18Z"/><path class="cls-93" d="M68.52,18a2.54,2.54,0,1,0,2.54-2.54A2.53,2.53,0,0,0,68.52,18Z"/><path class="cls-94" d="M68.67,18a2.39,2.39,0,1,0,2.39-2.39A2.39,2.39,0,0,0,68.67,18Z"/><path class="cls-95" d="M68.82,18.05a2.24,2.24,0,1,0,2.24-2.23A2.23,2.23,0,0,0,68.82,18.05Z"/><path class="cls-96" d="M69,18.06A2.08,2.08,0,1,0,71.06,16,2.08,2.08,0,0,0,69,18.06Z"/><path class="cls-97" d="M69.13,18.07a1.93,1.93,0,1,0,1.93-1.93A1.93,1.93,0,0,0,69.13,18.07Z"/><path class="cls-98" d="M69.29,18.07a1.77,1.77,0,1,0,1.77-1.76A1.77,1.77,0,0,0,69.29,18.07Z"/><path class="cls-99" d="M69.44,18.08a1.62,1.62,0,1,0,3.23,0,1.62,1.62,0,0,0-3.23,0Z"/><path class="cls-100" d="M69.6,18.09a1.46,1.46,0,1,0,1.46-1.46A1.46,1.46,0,0,0,69.6,18.09Z"/><path class="cls-101" d="M69.75,18.1a1.31,1.31,0,1,0,1.31-1.3A1.31,1.31,0,0,0,69.75,18.1Z"/><path class="cls-102" d="M69.91,18.11A1.15,1.15,0,1,0,71.06,17,1.15,1.15,0,0,0,69.91,18.11Z"/><path class="cls-103" d="M70.06,18.12a1,1,0,1,0,1-1A1,1,0,0,0,70.06,18.12Z"/><path class="cls-104" d="M70.22,18.12a.84.84,0,1,0,.84-.83A.83.83,0,0,0,70.22,18.12Z"/></g><path class="cls-105" d="M61.39,50.56A25.34,25.34,0,1,1,36.05,25.23,25.34,25.34,0,0,1,61.39,50.56Z"/><path class="cls-105" d="M31.91,8.66A8.67,8.67,0,1,1,23.24,0,8.67,8.67,0,0,1,31.91,8.66Z"/><path class="cls-106" d="M46.17,45.37a64.16,64.16,0,0,0,10.23,1.3c7.13.5,6.84,1.24,9.23,10.22,1.72,6.48,3.59,11.65,5.7,14.65A10.34,10.34,0,0,0,74.27,74c2.31,1.51,4.19,2.65,2.38,3-1.62.27-3.43-1.92-6.08-1.23-2.08.54-3.09-.9-2.69-1.74s.27-1.81-.39-3.5c-.77-2-2.4-4.35-5.25-7.69s-1.15-8.87-3.81-9.42c-4.69-1-12.73-2.14-12.73-2.14Z"/><path class="cls-107" d="M37.62,46.13a13.07,13.07,0,0,0,8.43,6.13,80.08,80.08,0,0,0,12.76,1.45s.11,6.21,3,9.95A81.19,81.19,0,0,1,67,71.48a3.43,3.43,0,0,0,4.76-.89s-5.37-20.16-9.9-22.82l-18.62-8Z"/><rect class="cls-108" x="70.33" y="15.19" width="1.05" height="4.48" transform="translate(44.76 85.57) rotate(-82.87)"/><path class="cls-109" d="M68.55,16.25s4.19-.86,5,1.39c0,.13-.32.19-1.78-.38-.49-.19-.78-.1-3,.87Z"/><path class="cls-110" d="M46,19.31c7.9-3,23.2-3.28,23.2-3.28A1.36,1.36,0,0,0,69.72,18s-7.36,1.62-12,2.29S49,23.79,46.81,22.79C43.89,21.47,44.64,19.81,46,19.31Z"/><path class="cls-106" d="M38.62,49.92a63.1,63.1,0,0,0,4.25,9.39c3.32,6.33,2.53,6.48-3.86,13.21-4.61,4.86-8,9.17-9.48,12.54A10.54,10.54,0,0,0,29,88.83c-.07,2.76-.05,5-1.26,3.58s-.17-3.93-2.14-5.83c-1.55-1.48-.86-3.09.06-3.2s1.69-.72,2.78-2.16c1.28-1.69,2.45-4.33,3.79-8.51s6.95-5.63,6-8.18c-1.62-4.51-4.86-12-4.86-12Z"/><path class="cls-111" d="M33.49,43a13,13,0,0,0-.8,10.39,80.87,80.87,0,0,0,5.45,11.62s-5.23,3.36-6.91,7.75a83.18,83.18,0,0,1-3.92,8.54,3.42,3.42,0,0,0,3.25,3.58S44.91,69.78,44.8,64.52L43.18,43.63Z"/><path class="cls-112" d="M45.45,9.49a4.06,4.06,0,0,0-5.27-.16c-1.9,1.29-12.87-2.44-12.87,3.36,0,11.88-8.88,9.61-7.25,12.28,5,8.12.63,5.83,4.63,10.26,3.69,4.08,13-5.15,14.41-7.32s3.74-2.63,4.49-6.45A68.16,68.16,0,0,1,46,11.88,1.76,1.76,0,0,0,45.45,9.49Z"/><path class="cls-113" d="M43.59,21.46c.36-1.86.83-3.93,1.28-5.68-.79-.21-1.2,1.18-2.39,1,0,0-5.38-1.13-4.35.53s-.68,3-3.86,2.74-7.36,2.16-4.75,4.06.47,4.62-1.9,5.21c-5,1.24-2.16,5.67-2.93,5.88,3.43,3.78,12.73-3.47,14.94-5.68,0,0-.89-1.21-.85-1.25a2.75,2.75,0,0,0,.32-.39C40.48,25.74,42.84,25.28,43.59,21.46Z"/><path class="cls-114" d="M38.8,19.58c-7,2.46.83,15.7-5.31,23.46-2.16,2.72,17.65,1.73,16.12-1.4-5.07-10.38,4.65-14.91-1.41-21.53C46.61,18.37,43.49,17.94,38.8,19.58Z"/><path class="cls-109" d="M41.77,14.22s.67,3.27-.24,4.82c-.58,1,4,3.43,3.92,2.11-.12-1.71-.93-2.76,0-4.68Z"/><path class="cls-106" d="M45.57,10.12c1.38,1.43,2.64,7.51,1.06,8.76-.69.54-3.39-.25-5-3a5.05,5.05,0,0,1-.23-5.18C42,9.83,44,8.45,45.57,10.12Z"/><path class="cls-112" d="M46.66,11.06c.1.81.1,1.28-1.75,1-2.27-.31-2,1.29-1.76,1.84.59,1.62-2-.08-1.29,1.86S40.18,15.32,40,15s-.9-1.57.53-4.25S46.34,8.56,46.66,11.06Z"/><path class="cls-108" d="M42.9,13.51a1.48,1.48,0,0,0,0,2.23c.83.89,5.21-.46,5.77-.88s.56-2.41-.24-2.51A12.77,12.77,0,0,0,42.9,13.51Z"/><path class="cls-108" d="M42.55,13.92a8.51,8.51,0,0,0-1.93.47c-.15.18-.38.91,1.93.54Z"/><path class="cls-111" d="M62.86,40.67l-.16-.44c7.58-2.78,13.66-12.11,15.15-19.52.71-3.51.29-6.19-1.17-7.55a5.3,5.3,0,0,0-1-.73,12.73,12.73,0,0,1,0,2.6c-.94,7.89-5,12.76-7.53,12.76H68c-.55,0-1.83-.4-1.83-3.08,0-4.67,2.76-11.3,6.33-12.85a3.62,3.62,0,0,1,2.6-.17A5.44,5.44,0,0,0,73.4,8.54c-3-2.67-8.8-1.27-8.86-1.25l-.11-.46c.24-.06,6.06-1.47,9.28,1.37a6,6,0,0,1,1.92,3.68,5.2,5.2,0,0,1,1.36.94c1.59,1.48,2.06,4.31,1.32,8C76.79,28.34,70.6,37.83,62.86,40.67ZM74.07,12a3.38,3.38,0,0,0-1.36.3c-3.41,1.48-6.06,7.89-6.06,12.42,0,1.63.5,2.56,1.39,2.62h.09c2.26,0,6.17-4.83,7.06-12.35a11.76,11.76,0,0,0,0-2.78A3.14,3.14,0,0,0,74.07,12Z"/><path class="cls-111" d="M65.73,7a1,1,0,1,1-1-1A1,1,0,0,1,65.73,7Z"/><path class="cls-111" d="M72.71,25.06a1,1,0,1,1-1-1A1,1,0,0,1,72.71,25.06Z"/><path class="cls-111" d="M64.13,40.45a1,1,0,1,1-1-1A1,1,0,0,1,64.13,40.45Z"/><path class="cls-111" d="M76.29,27.67a.64.64,0,1,1-.64-.64A.63.63,0,0,1,76.29,27.67Z"/><path class="cls-108" d="M74.32,18.06a1,1,0,1,1-.88-1.13A1,1,0,0,1,74.32,18.06Z"/><path class="cls-109" d="M70.28,17.11s1.65.26,1.59.61-1.52.35-2.15,0S70.28,17.11,70.28,17.11Z"/><rect class="cls-108" x="13.46" y="30.26" width="4.3" height="1.01" transform="translate(-12.51 10.78) rotate(-27.68)"/><path class="cls-109" d="M17.29,28.93s-4.07.64-4,2.94c0,.13.35.06,1.47-.94.38-.33.67-.36,3-.25Z"/><path class="cls-108" d="M12.71,32.5a1,1,0,0,0,1.31.41,1,1,0,1,0-.91-1.71A1,1,0,0,0,12.71,32.5Z"/><path class="cls-109" d="M16.09,30.23s-1.49.74-1.33,1.06,1.56-.12,2-.66S16.09,30.23,16.09,30.23Z"/><path class="cls-110" d="M37.82,20.18c-8.13,1.45-21.1,8.88-21.1,8.88A1.32,1.32,0,0,1,17.23,31s7-2.33,11.25-4.11,9-1.37,10.38-3.32C40.65,21,39.2,19.94,37.82,20.18Z"/><path class="cls-111" d="M4.57,12.72a1,1,0,1,0,1-1A1,1,0,0,0,4.57,12.72Z"/><path class="cls-111" d="M10.87,55.47l-.43-.16a106.23,106.23,0,0,0,4.34-14.59l-.06.08c-1.86,2.58-3.55,3.51-5,2.78C6.46,42,5.56,31.93,7.36,26.07c.92-3,2.43-4.49,4.24-4.25a4.55,4.55,0,0,1,3.1,2.42c1.38,2.28,2.32,6.48,1,14.17a15.05,15.05,0,0,0,1.94-11C15.64,18.56,5.53,13,5.43,12.92l.22-.41c.11.06,10.39,5.74,12.45,14.77.93,4.1,0,8.27-2.62,12.41A102.39,102.39,0,0,1,10.87,55.47Zm.35-33.21c-1.81,0-2.85,2.11-3.42,3.95-1.71,5.57-.9,15.46,2.1,16.95,1.55.77,3.27-1,4.45-2.63.23-.32.45-.65.66-1,1.68-8.87.47-13.12-.71-15.08a4.2,4.2,0,0,0-2.76-2.2Z"/><path class="cls-111" d="M14.53,39.8a1,1,0,1,0,1-1A1,1,0,0,0,14.53,39.8Z"/><path class="cls-111" d="M10,55.39a1,1,0,1,0,1-1A1,1,0,0,0,10,55.39Z"/><path class="cls-111" d="M5.54,33.74a1,1,0,0,0,1.94,0,1,1,0,0,0-1.94,0Z"/><path class="cls-115" d="M92.15,90.05c0,2-19.87,3.59-44.39,3.59S3.37,92,3.37,90.05s19.88-3.59,44.39-3.59S92.15,88.07,92.15,90.05Z"/><path class="cls-111" d="M65.3,85.12a3.39,3.39,0,0,1-2.55-.92c-2.3-2.44.52-8.73,6.42-14.31,4.19-4,8.94-6.54,12.09-6.54a3.33,3.33,0,0,1,2.54.93c2.31,2.44-.51,8.72-6.41,14.3C73.19,82.56,68.45,85.12,65.3,85.12Zm16-21.29c-3,0-7.65,2.52-11.76,6.41C63.89,75.55,61,81.66,63.11,83.86a2.87,2.87,0,0,0,2.19.78c3,0,7.64-2.51,11.76-6.41,5.61-5.3,8.47-11.41,6.39-13.61A2.89,2.89,0,0,0,81.26,63.83Z"/><path class="cls-111" d="M75,66.38a1.09,1.09,0,1,1-1.09-1.08A1.09,1.09,0,0,1,75,66.38Z"/><path class="cls-111" d="M66.39,85.12A1.09,1.09,0,1,1,65.3,84,1.09,1.09,0,0,1,66.39,85.12Z"/><path class="cls-111" d="M70.71,85a2.44,2.44,0,0,1-1.84-.67C67.19,82.59,69.23,78,73.51,74c3-2.89,6.49-4.75,8.77-4.75a2.41,2.41,0,0,1,1.84.68c1.68,1.76-.36,6.32-4.64,10.37C76.43,83.17,73,85,70.71,85ZM82.28,69.59c-2.2,0-5.54,1.83-8.53,4.65-4.06,3.85-6.14,8.28-4.63,9.87a2.07,2.07,0,0,0,1.59.57c2.2,0,5.54-1.82,8.53-4.65,4.06-3.84,6.14-8.28,4.63-9.87A2.07,2.07,0,0,0,82.28,69.59Z"/><path class="cls-111" d="M77.77,71.44a.79.79,0,0,1-.8.79.79.79,0,0,1,0-1.58A.8.8,0,0,1,77.77,71.44Z"/><path class="cls-111" d="M71.5,85a.79.79,0,1,1-.79-.79A.79.79,0,0,1,71.5,85Z"/></g></g></g></svg>