<svg xmlns="http://www.w3.org/2000/svg" xmlns:xlink="http://www.w3.org/1999/xlink" viewBox="0 0 374.33 360.34"><defs><style>.cls-1{fill:#00dff4;}.cls-2{fill:#c3f;}.cls-3{fill:#abfaff;}.cls-4{fill:#f9f;}.cls-5{fill:#fff;}.cls-6{fill:#e690ff;}.cls-7{fill:#0037c1;}.cls-7,.cls-8,.cls-9{fill-rule:evenodd;}.cls-8{fill:url(#linear-gradient);}.cls-9{fill:url(#linear-gradient-2);}</style><linearGradient id="linear-gradient" x1="134.18" y1="246.84" x2="142.57" y2="246.84" gradientTransform="matrix(35.22, 24.9, -31.14, 29.85, 3008.06, -10635.35)" gradientUnits="userSpaceOnUse"><stop offset="0" stop-color="#5c6cb3"/><stop offset="0.59" stop-color="#b3428f"/><stop offset="1" stop-color="#fdcf70"/></linearGradient><linearGradient id="linear-gradient-2" x1="141.35" y1="250.41" x2="141.43" y2="250.41" xlink:href="#linear-gradient"/></defs><title>cfeced</title><g id="Capa_2" data-name="Capa 2"><g id="Capa_1-2" data-name="Capa 1"><path class="cls-1" d="M187.16,268c-2,0-3.6-2.88-3.6-6.42v-5.9c0-3.54,1.62-6.42,3.6-6.42s3.6,2.88,3.6,6.42v5.9C190.76,265.12,189.15,268,187.16,268Zm0-14.66c-.72,0-1.32,1-1.32,2.34v5.9c0,1.29.6,2.35,1.32,2.35s1.32-1.06,1.32-2.35v-5.9C188.48,254.39,187.89,253.34,187.16,253.34Zm-18.83,11.58a.5.5,0,0,1-.17,0c-3.56-1-10.17-2.74-14.28-17a3,3,0,0,1,.5-2.75c.57-.51,1.25-.11,1.54.89,3.29,11.49,8.22,13.7,12.58,14.88.62.17,1.05,1.21,1,2.32S168.89,264.92,168.33,264.92Zm18.83-21.74c-2,0-3.6-2.88-3.6-6.42v-5.9c0-3.54,1.62-6.42,3.6-6.42s3.6,2.88,3.6,6.42v5.9C190.76,240.3,189.15,243.18,187.16,243.18Zm0-14.67c-.72,0-1.32,1.06-1.32,2.35v5.9c0,1.29.6,2.35,1.32,2.35s1.32-1.06,1.32-2.35v-5.9C188.48,229.57,187.89,228.51,187.16,228.51Zm0-10.14c-2,0-3.6-2.89-3.6-6.43V206c0-3.54,1.62-6.42,3.6-6.42s3.6,2.88,3.6,6.42v5.9C190.76,215.48,189.15,218.37,187.16,218.37Zm0-14.67c-.72,0-1.32,1.05-1.32,2.34v5.9c0,1.3.6,2.35,1.32,2.35s1.32-1,1.32-2.35V206C188.48,204.75,187.89,203.7,187.16,203.7Zm-35-7.52a.78.78,0,0,1-.21,0c-.62-.2-1-1.27-.91-2.37,2.12-20.41,8.3-31,18.89-32.3,11.34-1.42,20.89-3.64,28.38-6.62.6-.23,1.22.45,1.36,1.55s-.25,2.19-.86,2.43c-7.61,3-17.27,5.28-28.72,6.71-9.53,1.19-14.87,10.4-16.81,29C153.18,195.49,152.7,196.18,152.16,196.18Zm77-46.65a1,1,0,0,1-.78-.56c-1.09-1.82-2.92-2.59-5.46-2.26-.62,0-1.18-.77-1.22-1.89s.43-2.09,1.06-2.17a6.64,6.64,0,0,1,7.18,3.36,3.27,3.27,0,0,1,.05,2.88A1,1,0,0,1,229.14,149.53Z"/><path class="cls-2" d="M197.66,290.33a.81.81,0,0,1-.57-.26l-23.54-23.86c-2.86-3.2-4.68-8.86-4.68-14.45V185.48c0-6.57,2.52-11.24,6.14-11.37a80,80,0,0,0,28.56-6.7c.61-.26,1.23.4,1.38,1.5s-.23,2.2-.85,2.46a81.3,81.3,0,0,1-29,6.81c-2.34.09-3.91,3-3.91,7.3v66.28c0,4.16,1.44,8.56,3.57,10.95l23.5,23.81a3,3,0,0,1,.43,2.78C198.44,290,198.05,290.33,197.66,290.33Zm-38-48.33a1.67,1.67,0,0,1-.32,0c-9.58-1.21-32.81-6.37-41.62-27.87a3.34,3.34,0,0,1-.22-1.21V182.42a2.35,2.35,0,0,1,.75-1.91c.45-.3.95-.06,1.26.59.08.16,8.84,17.28,40.19,18.46,2.51.09,4.48,3.64,4.48,8.08v26.27a11.83,11.83,0,0,1-1.45,5.93A3.79,3.79,0,0,1,159.67,242ZM119.8,212.23c8.41,19.68,30.53,24.52,39.71,25.69a1.81,1.81,0,0,0,1.68-1.06,5.85,5.85,0,0,0,.71-3V207.64c0-2.2-1-4-2.24-4h0c-24.64-.92-35.75-11.39-39.86-16.76Zm8.34-23.29c-.42,0-.82-.42-1-1.13a3,3,0,0,1,.51-2.73,46.26,46.26,0,0,1,6.87-4.18V159.78c-5.52,2.32-15.1,9.3-14.71,15.42.07,1.12-.38,2.13-1,2.26s-1.19-.68-1.26-1.8c-.75-11.84,15-19.48,17.92-20.39a.84.84,0,0,1,.93.44,2.89,2.89,0,0,1,.41,1.56v25.15a2.22,2.22,0,0,1-.83,2,54,54,0,0,0-7.3,4.34A.75.75,0,0,1,128.14,188.94Zm84.61-12.3a2.5,2.5,0,0,1-2.08-1.58c-2.09-3.93-4.95-10.17-8.27-17.38-9.8-21.33-24.61-53.55-34.82-58.78-6.19-3.17-12.4-1.81-17.52,3.8-5.45,6-9.34,16.48-10.66,28.79-.12,1.1-.72,1.84-1.34,1.62s-1-1.28-.91-2.39c1.45-13.43,5.72-24.91,11.72-31.49C154.53,93,161.4,91.5,168.21,95c10.9,5.57,25.38,37.09,36,60.1,3.28,7.16,6.12,13.34,8.15,17.16a.45.45,0,0,0,.63.26l12.67-6.65c-33.74-83.52-49.83-76.48-56.71-73.47-.61.27-1.22-.4-1.38-1.5a2.43,2.43,0,0,1,.84-2.46c12.1-5.29,28.57-.47,59,75.45a6.44,6.44,0,0,1,.28,3.48,3.39,3.39,0,0,1-1.4,2.41l-12.66,6.66A1.9,1.9,0,0,1,212.75,176.64ZM157.59,166c-.63,0-1.14-.91-1.14-2V150.2c0-1,.39-1.84.94-2,13.13-4.09,31.88-1.62,37.31-.76.63.1,1.1,1.09,1,2.21s-.61,1.94-1.24,1.85c-5.23-.82-23-3.17-35.77.44v12C158.73,165.09,158.22,166,157.59,166Zm100.22-3.58s-24.37-5.39-26.8-6a3.78,3.78,0,0,0-3.16.82c-.58.45-1.25,0-1.5-1.08a2.83,2.83,0,0,1,.61-2.67,5.12,5.12,0,0,1,4.34-1.11c2.44.56,26.79,6,26.79,6C259.68,158.71,259.27,162.75,257.81,162.42Zm-105.49-30.3a.58.58,0,0,1-.19,0c-.63-.19-1-1.24-.94-2.35,1.6-16.9,6.06-28,12.56-31.14.61-.29,1.23.34,1.4,1.43a2.48,2.48,0,0,1-.8,2.5c-5.59,2.74-9.46,12.64-10.91,27.89C153.35,131.41,152.86,132.12,152.32,132.12Z"/><path class="cls-2" d="M205.61,290.33c-2,0-4.07-1.43-5.82-4.07A26.55,26.55,0,0,1,196,272.15v-73c0-7.11,2.74-12.17,6.65-12.31,19.16-.71,38.42-8.34,57.23-22.67,2.7-2,5.43-1.79,7.49.65,1.85,2.18,2.91,5.94,2.91,10.31v61.46c0,6.32-2.17,12.77-5.39,16-18.85,19.19-38.37,31.8-58,37.49A4.39,4.39,0,0,1,205.61,290.33ZM263.42,166.9a4.55,4.55,0,0,0-2.7,1c-19.08,14.53-38.62,22.27-58.07,23-2.64.1-4.42,3.41-4.42,8.24v73a21,21,0,0,0,3,11c1.58,2.39,3.46,3.47,5.16,3,19.4-5.61,38.67-18.05,57.28-37,2.49-2.54,4.23-7.69,4.23-12.51V175.16h0c0-3-.66-5.48-1.88-6.91A3.43,3.43,0,0,0,263.42,166.9ZM205.48,278.44a1,1,0,0,1-.81-.6,3.26,3.26,0,0,1,0-2.89l54.26-96.86c.45-.8,1.18-.8,1.62,0a3.31,3.31,0,0,1,0,2.88l-54.27,96.87A1,1,0,0,1,205.48,278.44Zm30.9-20.78a1,1,0,0,1-.81-.6,3.24,3.24,0,0,1,0-2.88l22-39.3c.45-.79,1.17-.79,1.62,0a3.33,3.33,0,0,1,0,2.89l-22,39.29A1,1,0,0,1,236.38,257.66ZM208.5,236.44a1,1,0,0,1-.81-.59,3.33,3.33,0,0,1,0-2.89l19.12-34.12c.45-.8,1.18-.8,1.62,0a3.31,3.31,0,0,1,0,2.88l-19.12,34.13A1,1,0,0,1,208.5,236.44ZM135.25,191.6c-.58,0-1.07-.77-1.14-1.81s.38-2.13,1-2.25c.46-.09,11.32-2.27,14.11-2.54.64-.07,1.17.8,1.21,1.92s-.45,2.09-1.08,2.15c-2.73.26-13.87,2.5-14,2.52Zm-.65-39.06a.77.77,0,0,1-.45-.17,2.8,2.8,0,0,1-.6-2.67l3.18-13.3c.17-.71.55-1.19,1-1.23l15.89-1.48a1,1,0,0,1,.88.63l4,7.38a3.24,3.24,0,0,1,0,2.88c-.45.78-1.17.77-1.61-.05l-3.64-6.72-14.65,1.36-2.9,12.13C135.46,152.07,135,152.54,134.6,152.54Z"/><path class="cls-3" d="M187.16,217.15c-1.61,0-2.91-2.34-2.91-5.21V206c0-2.87,1.3-5.2,2.91-5.2s2.92,2.33,2.92,5.2v5.9C190.08,214.81,188.77,217.15,187.16,217.15Zm0-14.68c-1.1,0-2,1.61-2,3.57v5.9c0,2,.9,3.57,2,3.57s2-1.6,2-3.57V206C189.16,204.08,188.27,202.47,187.16,202.47Z"/><path class="cls-3" d="M187.16,242c-1.61,0-2.91-2.34-2.91-5.21v-5.9c0-2.87,1.3-5.2,2.91-5.2s2.92,2.33,2.92,5.2v5.9C190.08,239.63,188.77,242,187.16,242Zm0-14.67c-1.1,0-2,1.59-2,3.56v5.9c0,2,.9,3.57,2,3.57s2-1.6,2-3.57v-5.9C189.16,228.89,188.27,227.3,187.16,227.3Z"/><path class="cls-3" d="M187.16,266.78c-1.61,0-2.91-2.33-2.91-5.2v-5.9c0-2.87,1.3-5.2,2.91-5.2s2.92,2.33,2.92,5.2v5.9C190.08,264.45,188.77,266.78,187.16,266.78Zm0-14.67c-1.1,0-2,1.6-2,3.57v5.9c0,2,.9,3.57,2,3.57s2-1.6,2-3.57v-5.9C189.16,253.71,188.27,252.11,187.16,252.11Z"/><path class="cls-3" d="M168.33,263.7h-.07c-3.43-.92-9.82-2.65-13.77-16.4a1.22,1.22,0,0,1,.2-1.1c.23-.19.5-.05.62.36,3.44,12,8.56,14.31,13.09,15.53.25.07.42.48.38.93S168.55,263.7,168.33,263.7Z"/><path class="cls-3" d="M152.16,195h-.08c-.25-.08-.41-.51-.37-.95,2.06-19.78,8-30,18.27-31.3,11.37-1.42,21-3.66,28.48-6.64.25-.12.49.17.54.61a1,1,0,0,1-.34,1c-7.57,3-17.2,5.25-28.62,6.68-9.75,1.22-15.46,11-17.43,30C152.57,194.68,152.38,195,152.16,195Z"/><path class="cls-3" d="M229.14,148.3a.38.38,0,0,1-.31-.22c-1.25-2.09-3.22-2.92-6-2.59h0c-.24,0-.44-.32-.46-.75s.17-.84.42-.87c3.07-.41,5.23.6,6.67,3a1.28,1.28,0,0,1,0,1.16A.38.38,0,0,1,229.14,148.3Z"/><path class="cls-4" d="M205.61,289.1c-1.85,0-3.76-1.32-5.38-3.77a24.88,24.88,0,0,1-3.59-13.18v-73c0-6.4,2.45-11,6-11.09,19.25-.72,38.59-8.38,57.49-22.77h0c2.47-1.86,5-1.67,6.84.55,1.68,2,2.6,5.28,2.6,9.29v61.46c0,5.89-2,11.92-5,15-18.78,19.11-38.23,31.68-57.81,37.34A3.66,3.66,0,0,1,205.61,289.1Zm54.85-122.28h0c-19,14.48-38.46,22.18-57.83,22.9-3,.11-5.08,3.91-5.08,9.46v73a22.45,22.45,0,0,0,3.27,11.93c1.74,2.64,3.82,3.85,5.72,3.26,19.48-5.63,38.83-18.13,57.51-37.14,2.69-2.76,4.58-8.34,4.58-13.58V175.16c0-3.44-.78-6.26-2.19-7.93C264.82,165.31,262.65,165.16,260.46,166.82Z"/><path class="cls-5" d="M134.6,151.31a.32.32,0,0,1-.18-.06,1.14,1.14,0,0,1-.24-1.07l3.18-13.3c.07-.28.22-.48.39-.49l15.89-1.48a.43.43,0,0,1,.35.25l4,7.39a1.32,1.32,0,0,1,0,1.15c-.18.32-.47.3-.65,0l-3.85-7.12L138.09,138,135,150.82C135,151.13,134.78,151.31,134.6,151.31Z"/><path class="cls-5" d="M135.25,190.38c-.23,0-.43-.31-.46-.72s.16-.85.41-.9c.46-.1,11.3-2.27,14.07-2.54h0c.24,0,.44.33.45.77s-.18.83-.43.86c-2.74.26-13.91,2.5-14,2.52Z"/><path d="M205.48,277.22a.4.4,0,0,1-.33-.24,1.38,1.38,0,0,1,0-1.16L259.42,179c.18-.32.47-.32.65,0a1.29,1.29,0,0,1,0,1.15L205.8,277A.4.4,0,0,1,205.48,277.22Z"/><path d="M236.38,256.44a.4.4,0,0,1-.33-.24,1.31,1.31,0,0,1,0-1.16l22-39.29c.17-.32.47-.32.64,0a1.31,1.31,0,0,1,0,1.16l-22,39.29A.4.4,0,0,1,236.38,256.44Z"/><path d="M208.5,235.22a.39.39,0,0,1-.32-.24,1.29,1.29,0,0,1,0-1.15l19.12-34.12c.18-.32.47-.32.65,0a1.36,1.36,0,0,1,0,1.15L208.82,235A.38.38,0,0,1,208.5,235.22Z"/><path class="cls-6" d="M197.66,289.11a.33.33,0,0,1-.23-.11l-23.55-23.85c-2.63-3-4.32-8.21-4.32-13.39V185.48c0-5.86,2.24-10,5.47-10.15a80.26,80.26,0,0,0,28.7-6.73c.24-.1.49.16.55.6s-.09.88-.34,1A80.9,80.9,0,0,1,175,177c-2.73.1-4.57,3.52-4.57,8.52v66.28c0,4.56,1.56,9.38,3.88,12l23.53,23.83a1.21,1.21,0,0,1,.17,1.12C198,289,197.82,289.11,197.66,289.11Z"/><path class="cls-6" d="M257.9,161.21c-.25-.06-24.4-5.4-26.8-6a4.15,4.15,0,0,0-3.52.91c-.23.17-.5,0-.59-.44a1.11,1.11,0,0,1,.24-1.07,4.71,4.71,0,0,1,4-1c2.41.56,26.56,5.91,26.8,6s.43.46.39.91S258.18,161.24,257.9,161.21Z"/><path class="cls-6" d="M159.68,240.78l-.28,0c-9.49-1.2-32.47-6.29-41.11-27.37a1.3,1.3,0,0,1-.09-.49V182.42a1,1,0,0,1,.29-.76c.18-.12.38,0,.51.23s8.92,17.7,40.7,18.89c2.13.08,3.8,3.09,3.8,6.86v26.27a10,10,0,0,1-1.22,5A3.19,3.19,0,0,1,159.68,240.78Zm-40.57-28.15c8.48,20.37,31,25.32,40.35,26.51a2.31,2.31,0,0,0,2.19-1.38,7.54,7.54,0,0,0,.94-3.85V207.64c0-2.87-1.28-5.17-2.91-5.23-27.34-1-37.8-13.75-40.57-18.06Z"/><path class="cls-6" d="M212.75,175.42a1.94,1.94,0,0,1-1.59-1.2c-2.07-3.9-4.92-10.12-8.23-17.32-9.86-21.44-24.74-53.84-35.16-59.17-6.36-3.26-12.78-1.87-18.06,3.93-5.62,6.16-9.63,17-11,29.6,0,.44-.27.71-.53.65s-.41-.51-.36-1c1.4-13.09,5.56-24.28,11.4-30.68,5.5-6,12.17-7.5,18.79-4.11,10.69,5.47,25.1,36.82,35.61,59.71,3.3,7.17,6.15,13.37,8.2,17.23.33.61.83.84,1.31.59L225.81,167a.83.83,0,0,0,.34-.59,1.69,1.69,0,0,0-.07-.9C192.17,81,175.76,88.13,168.75,91.2c-.24.09-.49-.16-.55-.6s.09-.88.33-1c11.88-5.21,28.1-.34,58.29,75A4.39,4.39,0,0,1,227,167a2.31,2.31,0,0,1-1,1.64l-12.67,6.65A1.29,1.29,0,0,1,212.75,175.42Z"/><path class="cls-6" d="M152.32,130.89h-.08c-.25-.07-.42-.5-.37-.94,1.55-16.4,5.83-27.11,12.06-30.16.24-.13.49.13.56.57a1,1,0,0,1-.32,1c-5.86,2.87-9.91,13.12-11.4,28.86C152.73,130.61,152.54,130.89,152.32,130.89Z"/><path class="cls-6" d="M128.14,187.72c-.17,0-.33-.17-.41-.46a1.17,1.17,0,0,1,.21-1.09c1.51-1.35,6-3.7,7.24-4.36V158.26c-5.1,1.85-16.57,9.17-16.07,17.08,0,.45-.15.85-.41.9s-.47-.27-.5-.72c-.64-10.16,13.34-17.79,17.36-19.05a.33.33,0,0,1,.37.18,1.19,1.19,0,0,1,.16.62v25.15a.88.88,0,0,1-.33.79s-5.76,2.94-7.42,4.42A.28.28,0,0,1,128.14,187.72Z"/><path class="cls-6" d="M157.59,164.78c-.25,0-.46-.36-.46-.81V150.2c0-.39.16-.73.38-.8,13-4.06,31.72-1.6,37.13-.75.25,0,.44.43.42.88s-.25.77-.5.74c-5.33-.84-23.6-3.25-36.52.62V164C158,164.42,157.84,164.78,157.59,164.78Z"/><path class="cls-7" d="M5,160.2a1.16,1.16,0,0,1-.17.53l.17-.41Z"/><path class="cls-7" d="M6.63,301.06h0l.06.87h0C6.8,301.93,6.69,301.58,6.63,301.06Z"/><path class="cls-7" d="M6.84,231v0Z"/><path class="cls-7" d="M7,279.31v0Z"/><path class="cls-7" d="M4.9,216.19l.11-.05v.64C5,216.78,4.9,216.78,4.9,216.19Z"/><path class="cls-7" d="M2,222v0Z"/><path class="cls-7" d="M4.21,220.86l-.06.53A1.79,1.79,0,0,1,4.21,220.86Z"/><polygon class="cls-7" points="6.35 190.13 6.35 190.13 6.35 190.25 6.35 190.13"/><polygon class="cls-7" points="1.03 273.64 0.97 273.35 1.03 273.41 1.03 273.64"/><path class="cls-7" d="M.06,272.53v.18L0,272.53S.06,272.71.06,272.53Z"/><polygon class="cls-7" points="5.14 184.53 5.14 184.76 5.14 184.7 5.14 184.53"/><polygon class="cls-7" points="333.1 134.95 333.05 135.01 333.05 134.95 333.1 134.95"/><path class="cls-7" d="M2.69,290.44v0Z"/><polygon class="cls-7" points="0.67 200.39 0.67 200.56 0.67 200.62 0.67 200.56 0.67 200.39"/><path class="cls-7" d="M1.71,302.46s.11.06.11,0C1.88,302.63,1.76,302.52,1.71,302.46Z"/><path class="cls-7" d="M6.41,171.87v0Z"/><polygon class="cls-7" points="331.13 157.77 331.13 157.77 331.13 157.72 331.13 157.77"/><path class="cls-7" d="M4.81,160h0v0Z"/><polygon class="cls-7" points="333.86 152.59 333.86 152.16 333.86 152.16 333.86 152.59"/><path class="cls-7" d="M336.34,138h0v0Z"/><path class="cls-8" d="M38.33,197.35c.08.28.07-1.21.13-1.57a22.19,22.19,0,0,0,.1-3.08l.06-2v-.58c0-1.11,0-2.13,0-3.17,0-.13-.05,0-.06,0l0,0,0,0c.08-.9.18-1.83.28-.83s.19.42.18-1.48a40.07,40.07,0,0,1,.11-4.66c.31-3.25.45-2.17.74-3.75l0-.55c.27-1.4.61-4.43.81-3.79l-.09.64h.11c.24-.56.39,0,.57,0s.48-1.28.75-2.47l.06,0c.17-.31.24-.71.48-3.57.05-.11,0-.17,0-.26.49-2.38,1.07-5.2,1.65-7.87.35-1.74.59-3,1-4.86l.31-1.73c0-1.22,1-3.55,1.25-4.95.32-1.2.78-2.5,1-3.59a67.08,67.08,0,0,1,3.49-10.88c.83-2,1.47-3.54,2.32-5.52l0-.12h0l0,.12a41.32,41.32,0,0,0,1.74-4c.73-1.41,1.51-2.89,2.3-4.4,2.83-5.17,5.74-10.74,9.35-15.65a104.49,104.49,0,0,1,10.13-13.7c2.07-2.76,4.69-5.41,7.33-8.35l-.13.09,0,0,.11-.06a101.36,101.36,0,0,1,10.15-10c1.26-1.06,2.77-2.31,4.09-3.47a12.22,12.22,0,0,1,1.86-1.51c1.32-1.17,3.21-2.45,4.74-3.54.68-.48,1.65-1.18,2.5-1.82s1.41-1,2.16-1.51l.3-.21s.09-.07.17-.11c1.54-1,3.24-2.37,5-3.29l.09,0c2.16-1.25,4.44-2.61,6.66-3.87l2-1.14.43-.25.56-.33c3.18-1.75,7-3.4,10.07-4.71h0c-.08,0-.18.1-.05.06a4.13,4.13,0,0,0,.8-.33,25.48,25.48,0,0,0,2.61-1.28l1.09-.49c2.63-1.11,5-1.75,7.52-2.57h0l1.8-.65a88.48,88.48,0,0,1,13.87-3.89,13.15,13.15,0,0,1,1.77-.36,5.89,5.89,0,0,0,1.56-.35l2.28-.58c2.29-.43,4.59-.5,7.15-1l6.71-.91,1.29-.17a35.94,35.94,0,0,1,6.54-.39c1.71-.11,3.43-.21,5.46-.3,4.38-.27,9.08.31,13.41.67a89.22,89.22,0,0,1,14.19,2.05l0,0a16.4,16.4,0,0,0,3.07.35l.5.07s0-.13.63-.07c4,.35,4.9.64,3.29-.29,1,.14,2.5.58,2.95.55l1.68.38.74.08c3.77,1.09,7.5,1.76,11,3.37,3.65,1.41,7.42,3,11.14,4.49,3.68,1.85,7.1,3.61,10.69,5.53a30,30,0,0,1,4.63,2.81l1,.7a9.9,9.9,0,0,1,.89.55l1.17.71,1.42.86c1,.8,2.42,1.57,3.68,2.35.9.62,1.87,1.46,2.87,2.17l.45.39c.9.72,1.86,1.5,2.76,2.27a10.41,10.41,0,0,0,2,1.48l.2.17.23.2c.68.59,2,1.62,2.35,2l1.21,1c1.55,1.24,3.31,3.06,5,4.59l2.54,2.49c1.17,1.27,2.86,2.47,3.83,3.91l2,2.25c.74.94,1.51,1.76,2.28,2.73.57.75,1.3,1.52,1.88,2.28a8.3,8.3,0,0,0,2,2.1l-.35-.35c.12.1.2.23.35.35,1.72,2.35,3.16,4.57,4.67,6.89.34.49.64.86.94,1.27,1.16,1.81,2.31,3.21,3.18,4.42.34.5.7,1.12,1.25,1.9s1.23,1.36,1.22.74c0-.24.36.31.77.92s1.35,2,1.21,1.5l-.09-.18h0l.07.17.67.93c.29.35.53.56.2-.13-.46-1.06,0-.47,0-.75l.68.22-.46-1c-.1-.54.19-.3.48-.14s.41.44.4.19c-.27-.8.12-.36,1.52,2.07a24.21,24.21,0,0,1,1.63,2.63c.1.09.07,0,.06-.1v.11h-.07c.55,1,.87,1.61,1.26,2.26a24.87,24.87,0,0,1,1.32,3.39l0,.17.21.33a4.26,4.26,0,0,0,.78,1.8,10.82,10.82,0,0,1,1,2,22.2,22.2,0,0,0,1.09,2.48l0-.13v.06l0,.07a21.21,21.21,0,0,1,1.45,3.39l.65,2.4c1.2,3.64,1.93,6.82,3.28,10.64a23.73,23.73,0,0,1,1,4.2l.09.69a29.49,29.49,0,0,1,1.05,5.5l.26,1.19a27.62,27.62,0,0,1,1.14,6c.43,4.15.86,8.51,1.29,12.56,0,.34.07.73.09,1.25,0,3.95.09,7.85.08,11.82h0c0,.52,0,1.23,0,1.72l0,.18a36.11,36.11,0,0,1-.54,8.16l-.07-.06a27,27,0,0,1-.22,2.72,14,14,0,0,1-.25,2.86,17.45,17.45,0,0,0-.36,4c-.13,1.17-.64,3.49-1,5.37l-.21.63a18.12,18.12,0,0,0-.59,3h0a53.12,53.12,0,0,1-2,9.25L341.22,223l-.51,1.75-.19.71c-.35,1.13-.75,2.26-1,3.51-.26.79-.47,1.59-.77,2.29-.46,1.2-1,2.38-1.54,3.64-1.46,3.64-2.81,7.33-4.56,10.78-1.09,2.18-2.18,4.25-3.27,6.37l-.32.55c-.86,1.46-1.63,3.14-2.47,4.72a32.51,32.51,0,0,1-1.94,3l-1.33,2c-1.51,2.59-3.11,4.89-4.68,7.22-.55.9-1.3,1.73-2,2.63-.07.14,0,.11.06.05l0,.07,0-.12a35.82,35.82,0,0,1-2.47,3,82.53,82.53,0,0,1-9.75,11.38c-.84,1-1.93,2.06-2.93,3.14-.59.72-1.36,1.53-2,2.18-2.54,2.41-5.54,4.88-8.26,7.24a102.06,102.06,0,0,1-10.36,8.09l-.22.11-.22.17c-2.22,1.46-4.34,3.27-6.71,4.59l-11.06,6.42a9.64,9.64,0,0,1-2.1.95c-3.24,1.55-6.47,3-9.6,4.45a38.21,38.21,0,0,1-6.38,2.47c-4.67,1.24-9.56,3.77-14.49,4.58-1.16.23-2.38.56-3.29.7l-3.64.9c-.08,0,.07,0,.1,0h0s0,0-.08,0l-1.24.35a31.81,31.81,0,0,1-5.8,1.14c.14-.14.14-.14-.17-.15l-.62.08c-3,.38-6,.82-9.09,1.32-3.64.59-7.38.29-11.28.6-2.66.11-5.21.21-7.72.15l-13.74-.86A7.53,7.53,0,0,1,172,335l-2.39-.42c-2-.34-4-.7-6-1,.13,0,.18,0,.07-.09h0a42.46,42.46,0,0,0-4.25-.69c-1.3-.25-2.67-.73-4.35-1.14-3.78-1-7.47-2.05-11.18-3-1.18-.52-2.36-.91-3.55-1.43a7.68,7.68,0,0,0-1.82-.75,99.73,99.73,0,0,1-14.2-6.31c-2.54-1.37-5.2-2.59-7.73-4.15l-7.48-4.75a7,7,0,0,0-.91-.53l-.06,0c-1.94-1.32-3.92-2.92-6.24-4.67l-1-.72A60.92,60.92,0,0,0,95.7,301c-2.83-2.08-5.16-4.8-7.78-7.06-.21-.22-.44-.42-.62-.58-1.29-1.27-2.55-2.51-3.9-3.82a27.1,27.1,0,0,1-2.25-2.76c-3.65-4.22-7.46-8.36-10.46-13.09a28,28,0,0,0-2-3l-2.12-2.95-.2-.23-.17-.24c-1.16-2.13-2.31-4.34-3.45-6.4h0c-.56-1.1-1.24-2.09-1.8-3.14a24,24,0,0,1-2.31-4.24l-4.87-11a34.61,34.61,0,0,1-1.75-5.39c-1.57-5.38-3.51-9.51-4.32-12.35s-1.16-4.16-1.36-4.09-.29-.25-.52-1.21c-.59-2.15-.69-1.92-.75-1.56-.06.56-.36-.41-.83-2.41l-.09.08c-.29,0-.47.72-1.15-1.35-.08-.27-.19-.41-.17-.2.07,2.37-.92-.23-1.07.93,0,.37-.55-1.45-.58-1.32.27,1.66,0,1.21-.23,1.23-.15-.13-.46-.6-.18,1.38a16.39,16.39,0,0,0,0,2.78c0,.5,0,.46-.16.27-.45-.8-.58-.19-.56,1l-.24.1c-.41-.36,0,1.87.63,4.84l.66,2.76a14.89,14.89,0,0,0,.46,1.77l1,3.07c1,3,1.86,5.89,2.75,8.81.76,3.1,2.43,5.92,3.58,8.9a101.83,101.83,0,0,0,5.79,12.34,9.13,9.13,0,0,1,.47.87c1.5,2.67,2.94,5.29,4.38,7.91,1.72,2.5,3.41,4.92,5.13,7.43,1,1.39,1.83,2.65,2.7,4,3.38,4.39,7.12,8.58,10.82,12.89.21.19.08,0,.17,0l.13.17v.05c2.34,2.27,4.87,4.66,7.28,7,3.72,4.12,8.67,7.15,13,10.77,1.45,1.25,3.26,2.4,4.84,3.51,2.93,2.07,6.49,4.21,9.71,6.32,3.1,1.55,6.29,3.22,9.35,4.79.64.35,1.45.73,2.17,1.05.15,0,0,0,0,0l.29.09,1.69,1-.08.09a9,9,0,0,0-1.68-.89l-1.22-.54a22.15,22.15,0,0,0-2.91-1.33c-.17,0-.17,0-.06.06-2-.72-4.32-1.84-7-3.13-.39-.19-1-.52-1.08-.57-1.45-.53-4.94-2.84-7.21-4.12l-1.1-.64-.08.08-.46-.29a22.58,22.58,0,0,0-3.41-2.12,14.48,14.48,0,0,1-2.5-1.85c-4.62-3.88-9.74-7.16-13.92-11.53-.77-.81-1.49-1.44-2.17-2.12l-.42-.41c-.71-.67-1.59-1.52-2.29-2.29l-.37-.47a52.61,52.61,0,0,1-4.89-5.13l-.73-.88c-.3-.31-.37-.32-.11-.1a23.1,23.1,0,0,1-2.1-2.31l-1.2-1.4c-3.27-3.52-5.62-7.65-8.68-11.65-.79-1.05-1.34-1.88-1.41-1.73-.29-.36-.24-.21-.73-.74-.07-.15-.05-.14-.15-.23.38.43.77,1,.88,1-.52-.66-1-1.19-1.92-2.47l0-.15-.16-.28-.17-.26c-.73-1.23-1.1-1.81-.74-1a20.69,20.69,0,0,1-1.41-2.19L54,266.91a24.34,24.34,0,0,0-1.55-2.82l-.07-.06c.18.16,0-.19-.18-.56-.61-1.09-1.19-2.05-1.87-3.25a17.22,17.22,0,0,0-.89-1.68c-.77-.92-2-4-3.07-6.58l-.83-1.78c-.57-1.27-1.11-2.49-1.64-3.72-1.09-2.83-1.78-5.66-2.84-8.47-.29-.76-.67-2-1-3-.63-2.43-1.62-4.92-2.07-7.66l-.12-.66-.25-1.19h0l-.07-.06.09.07c-.78-4.4-1.87-8.65-2.58-13.31-.11-1-.24-2.14-.4-3.14l0-.07a15.14,15.14,0,0,0-.66-4c-.22-.6-.51-1.77-.68-1.77-.28.17-.66-1.48-1.17-4.07-.25-1.18-.33-1.51-.22.27-.53-1.12-.79-.79-1.06,0-.14.34-.27.43-.52-.6-.14-.53-.19-.73-.29-.56l-.5,2.08.06.66h0l-.06-.66c-.23-.62-.39-.7-.56-.59-.05.93-.12,2.14-.37,1.93s.11,2.8.08,3.49c.16,1.82.36,3.68.5,5.38.21,4.37,1.22,8.51,2,12.79s1.51,8.55,3,12.56c.28,1,.56,2.12.83,3l1.4,4.43.09.08a47.83,47.83,0,0,0,1.94,5.55c.15.44.35,1,.72,1.85l5,11.74,6.13,11.15a12.29,12.29,0,0,0,.88,1.73c4.64,6.86,8.7,13.78,14.35,19.81.51.7.89,1.18,1.13,1.49a11.72,11.72,0,0,0,.76,1h0l3.07,3.56a4,4,0,0,0-.94-1.11,6.54,6.54,0,0,1,.94,1.11c5.72,5.65,11,11.56,17.61,16.44,1.07.88,2.22,1.77,3.19,2.6l.44.38c1,.79,2.16,1.76,3.27,2.61,1,.69,2.06,1.32,3.11,2l.17.09,0,0,7.31,4.76a26.9,26.9,0,0,0,4,2.46l7,3.75c-1-.34-1.27-.13-1.37,0s-2-.88-1.94-.65c-.66-.11.46.75.27.89s-.08.24-.77.06c-.37-.17-.32-.12,0,.17l-.1-.08.07-.09-1.93-.75c-1.66-.75-1.3-.5-1.17-.34l.8.95-.08.09c-1.26-.58-2.68-1.14-.82-.11l.69.35c-.8-.08.85.83,1,1.14l-.36.61c1.65,1,1.64,1.1,1.65,1.32h0c-.51-.19-.53-.1-.16.22,1.06.81-.3.46.93,1.36.68.53-.24.25,2.23,1.56a34.68,34.68,0,0,0,4.48,2.07,28.72,28.72,0,0,0,3.2,1.18l-.07-.06c.13.16-.51,0-1.22-.19-2.58-1-.41-.1-.7-.09l1.24.46c3.38,1.32,7.26,2.88,10.83,4.27a47.58,47.58,0,0,0,8.32,2.67,46.44,46.44,0,0,0,4.84,1.31l1.22.33a41.54,41.54,0,0,0,5.46,1.43c1.24.2,2.47.45,3.57.63l2.06.34,3.88.74c2.33.42,2.55.3,1.21,0-3.31-.61-6.52-1.17-10.09-1.79-.56-.13-1.27-.18-1.9-.36l-.07-.06-.25-.06c-.48-.16-1.15-.39-1.8-.58,1,.18,2.08.61,3.07.69l.47.05,10.35,1.87.45.08c.19,0,.26,0,.29.05a64.64,64.64,0,0,0,8.85,1.13l1.56.11,7.94.47c1.28.12,2.44.2,3.35.27l.36.11c1.05,0,2.26,0,3.48-.07s2.2-.1,3.22-.19l1.45-.08,1.47-.06c3.08-.16,6.1-.16,9.15-.4l9.11-1.24h0l.06.05c2.22-.23,4.78-.63,7.15-1,4.85-.93,9.6-2.2,14.44-3.4a76.71,76.71,0,0,0,10.15-3.16l.07,0h0l-.07,0c1-.27,2.42-.78,3.83-1.25s2.5-1,3.77-1.35a24.73,24.73,0,0,0,3.92-1.58l-.05,0c-.16.12-.3.2.05,0,3.66-1.64,7-3.18,10.5-4.74,5.75-2.46,10.85-6.2,16.23-9.12h0l.14-.14-.14.14,1.35-.72c6.27-4.41,12.7-8.53,18.5-13.59h.07c-.15.18,0,.11.09.13-.55.55-1.37,1.28-2.12,2s-1.61,1.21-2.68,2a16.88,16.88,0,0,0,2.69-2l7.1-6.2,3.77-3.34c3.2-2.81,6.19-6.42,9.15-9.24l2.5-2.69a8.75,8.75,0,0,0,1-1.08c.82-.83,1.53-1.9,2.31-2.87l2.19-2.7.53-.67,6.34-8.33,5.68-8.86c1.12-1.69,2.5-3.81,3.55-5.36l1.11-2c1.12-2.15,2.15-4.23,3.28-6.37,1.95-3.69,4-7,5.38-11.25l.23-.52c1.64-4.05,3.34-7.49,4.89-12,.24-.86.61-2,.9-3l.21-.74.18-.61.26-.69c.76-2.56,1.55-5.35,2.32-7.81a63.92,63.92,0,0,0,2.2-9.8l.21-.64.55-2.69v-.06c.16-.62.38-1.55.5-2.17l.18-.76c.05-.26.09-.54.16-.83l.21-.59c-.08.44,0,.36.07,0,.67-2.23.81-1.55,1.28-2.68l.32,0c.46-2,.62-1,1.06-2.71l-.06.61c-.13,2.29.05,1.63.23.81l0,.59.11-.56.21-1.46,0,.22c0,.82.18.16.15,1.21.23-1.13.39-2.53.61-4.38.29-2.91.61-5.86.76-8.74.11-1.49.28-2.88.34-4.41l0-1.41,0-1.56c-.05-2.55-.14-4.72-.17-7.14-.26-3.4.05-7.42-.46-11.08,0-.21,0-.49-.06-.77l-.33-2.78v-.17l-.07-.52h0a9.75,9.75,0,0,0-.17-2.35l-.34-2.89c-.14-1.3-.28-2.9-.46-4.17a46.43,46.43,0,0,0-1-5.09l-.82-3.82a57,57,0,0,0-1.8-7.53l.12.66-.06,0a4.48,4.48,0,0,1-.06-.61c-.27-3.05-1.55-6.34-2.8-10.08l-1.63-4.52c-.25-1.23-.58-2.13-1-3.54a18,18,0,0,0-2-4.7c-.21-.44-.37-.83-.59-1.27-2.42-5.46-4.36-11.12-7.58-16.29l0-.12c-.9-1.74-1.92-3.44-2.85-5.11a61.88,61.88,0,0,0-4.28-7.21c-1.21-1.86-2.3-3.41-3.35-4.93-.63-.85-1.23-1.77-1.74-2.31l-2.92-4.1a35.81,35.81,0,0,0-3.06-4c-.06-.1-.07-.11-.05-.14-.14-.12-.22-.35-.36-.47L332,62.16c-.45-.6-1.15-1.4-1.79-2.16,0,0,0,0,0-.13l-2.82-3.24-1.29-1.47c-3.63-3.54-7.09-7-10.52-10.39-.4-.4-1-.89-1.53-1.37-2.95-2.39-5.89-4.82-9.17-7.28-.71-.62-1.53-1.17-2.14-1.64l-2.15-1.7c-.78-.57-2.28-1.45-3.07-2-5.71-3.59-11-7.54-17.25-10.42L277.68,19,277,18.7a140.71,140.71,0,0,0-16.53-7.34c-.26-.07-.5-.13-.72-.21l-1.39-.53-1.38-.52-2.62-1,0,0c-3.81-1-7.35-2-11.18-3.14-1.81-.58-3.69-1-5.61-1.46-3.64-.83-8-1.46-11.76-2.16-.72-.11-1.39-.22-2-.36-1.89-.24-3.76-.73-5.7-.82-1.31-.06-2.79-.15-4.17-.27C210.51.6,207.2.4,204,.11c-1.36-.09-3.32-.2-3.44,0l.23,0-.23,0c-3.8-.11-8.76.22-13.23.35a56.9,56.9,0,0,0-6.5.43l-.88,0c-5.07.75-10.17,1.47-15.29,2.22a5.39,5.39,0,0,0-1.36.2l0,0c.05-.06.16-.07,0,0s-.49.14-.74.18C157.66,4.68,152.9,5.84,148.12,7l-.68.18a28.15,28.15,0,0,0-3,.92c-1.12.36-2.23.84-3.48,1.2-1.83.61-3.81,1.31-5.61,1.9a19,19,0,0,0-2.07.83h0l-3.43,1.23h-.17c-3.6,1.66-7.17,3.34-10.69,4.9l-.68.33c-1.6.78-3.17,1.51-4.81,2.3a3.19,3.19,0,0,1-.61.28l-.72.36c-.63.27-1.7.94-2.77,1.49l-11.15,6.6c-3.59,2.32-7,5-10.5,7.5l-.66.4C80.92,41.67,75.68,47.12,70,51.88c-1.69,1.56-3.06,3.4-4.69,4.9l-1,1.06c-1.91,2-3.84,4-5.59,5.91-1.51,1.56-2.41,2.82-3.5,4.09l-.45.53-1,1.14c-2.08,2.66-4,5.23-6.08,7.9C44,82.33,40.88,87.63,37.47,92.77a21.84,21.84,0,0,0-2.24,4.09l-3.72,7.27c-3,5.28-4.81,10.57-7,16.12-.6,1.63-.82,2.31-1.41,4,.48-.66-.2,1.57,0,1.55-.05.06-.05.11,0,.08a19.11,19.11,0,0,0-.76,2.77c.18.4.59.15.17,2.44a6.57,6.57,0,0,0,0,2.44l.13-.2h0l-.13.2-.18.81a2.18,2.18,0,0,0-.16.42,14.64,14.64,0,0,0-.53,1.95c.56-.19.12,2.66.09,4.41-.06.93.23.51.63-.16.39-1,.42-.76.26.07-.45,2-.19,1.67.24.81-.11.94.27.39.85-1a2.75,2.75,0,0,0,.21-.53c.06,1.06,1.47-3.39,2.12-4.72.29-.67,1-3.25,1.32-3.92l.09-.38c1.07-3.42,2.7-6.77,4-10.19l.23-.62c1.43-3.26,1.28-2.27,1.4-2.12.16.44.39.6,1.73-1.88.16-.33.34-.78.66-1.47a6.26,6.26,0,0,1,.73-1.37l1-1.77c1.09-1.82,2.33-4.22,3.48-6.45a73.17,73.17,0,0,1,6-10.33,83.62,83.62,0,0,1,5.09-8.29,30,30,0,0,1,3.06-4.31,20.07,20.07,0,0,0,1.75-2.27l6.63-8.39c2.89-3.08,5.85-6.2,8.69-9.27,1-1,1.83-1.85,2.78-3,2.61-2.67,5.64-5.11,8.54-7.72l1.3-1,.68-.59L87.6,48c.74-.69,1.56-1.21,2.37-1.84l1-.79.75-.47c3.12-2.22,6.18-4.44,9.24-6.66a47.52,47.52,0,0,1,4.86-3,3.4,3.4,0,0,1,.42-.25l.12-.05-.54.3-.9,1c.14.12-.89.82-1.91,1.52-1.56,1.16-1.25,1.32-1,1.36s.89-.35-.77.92C98.17,42.53,94.7,45,91.38,47.4c-4,2.94-7.43,6.42-10.94,9.53h0a65.63,65.63,0,0,0-6,5.78c-2.82,3.24-5.83,6.58-8.56,9.59l-.38.44-.78,1.12c-.56.79-1.21,1.61-1.66,2.29h0c-.3.46-.6.87-.33.59l-.57.83-.1.12c-.51.69-.76,1.09-1.05,1.45l-.32.55a13.29,13.29,0,0,0-1.58,3.23,6.88,6.88,0,0,0-1,2.14,5.78,5.78,0,0,1-1,1.7c-1.15,1.77-.36.92-.61,1.47s.14.12-.39,1a8.42,8.42,0,0,1-.65,1.32c-.09.13,0,0,.06,0h0s0,0-.06,0c-.93,1.6-.86,1.72-.76,1.9s.24,0-.22.83c-.21.33-.44.65-.68,1-.56,1.06,0,.34.19.27l0-.11,0,0,0,.08A16.72,16.72,0,0,0,52.79,97c.3-.44,0,0,0,.18l.12-.14h0c-.52,1-.59,1.32.51-.28.09,0,0,.11-.21.54-1,1.58-.85,1.56-.89,1.78-.43,1.47-1.78,4.24-1.45,4.78a5.59,5.59,0,0,0-.46,1.9,4.7,4.7,0,0,1-.49,1.47c-.47,1.18.31.07.1.81l.25.11c.48-.41.74-.49.54.26.1.09.1.29.84-1.07l.3.21c.24-.05,0,.66.79-.34l.31-.55c.43-.55-.11.42-.46,1.18-.5,1.37-.6,1.89.13.83l-.25.55v.21l.1-.12h0l-.1.12a5.92,5.92,0,0,0-.7,2.26c-.15.48-.26.9-.45,1.44a11.06,11.06,0,0,0-.41,2.1c.08.17.26.22-.51,1.87l-.56,1c-.3.91,0,.69,0,.88l-.15.28c-.74,1.92-1.52,3.8-2.29,5.8l-.45,1.08c-.8,1.92-1.64,3.85-2.48,6a54.86,54.86,0,0,0-1.84,5.42c-1.47,5.47-3.65,10.7-4.51,16.34-.31,1.78-.71,3.73-.32,3.1.18-.36.14.73-.08,2.28-.21,3,0,4,.28,4.68a4.62,4.62,0,0,1,.14,1.65c.06,1.69.24,3.13.63,1.67h0a3.72,3.72,0,0,0-.06,1.13c.09.07.19.16.16,1.35s-.16,2.73-.25,3.87c-.22,3.09-.71,6-.69,9.07.09,4.11.22,7.86.32,11.87C38.3,195.54,38.33,196.43,38.33,197.35Zm9.23,27.47c.09.18.06.46-.1-.29l.08.06,0,.15Zm53.57,102.23v0l0,0ZM186.94,360l.07-.05L187,360ZM339.12,125.47l-.05-.35a5,5,0,0,0,.15.58Zm6.38,23.83.07.06-.07-.06ZM60.82,273h0l.05,0Zm41.33,43.17h0l.17,0-.17,0Zm49.66,39.29c.05-.06.15,0,.21,0h0Zm31.6,4.13,0,0,0,0Zm190-196.47V163l0,.26C373.43,163.14,373.43,163.14,373.42,163.13Zm-6.17-33.41,0,0c-.07-.21-.14-.53-.24-.76A2.52,2.52,0,0,1,367.25,129.72ZM79.32,285.27h0l-.08-.08,0,.05,0,0ZM248,349.61v0C247.94,349.69,248,349.63,248,349.61ZM53.7,97.65h0l-.07.09h0ZM249.13,325.94a5.43,5.43,0,0,1-.64.32l.31-.19ZM48.31,257.34l0,0,0,0-.07-.06Zm8.07,24.78.17.24a.39.39,0,0,1-.15-.18Zm81.46,69.64h0Zm-113.52-219Zm24.09,125,0,0,0,0Zm238.1,72.37.32-.2-.23.16S286.54,330.07,286.51,330.05ZM333.14,66.93l0,0,.2.17ZM48.75,88.64l0-.11,0,0ZM46.46,255.69l-.05-.2.06.21Zm-9.52-25.11,0-.07h0C37,230.61,37,230.52,36.94,230.58Zm-4.42-20.87a1.78,1.78,0,0,0,.08-.18C32.59,209.63,32.53,209.73,32.52,209.71Zm11.52,47v.11l0-.07ZM33.29,222l0,0,0,0Zm10,28.41h0Zm1.16,8.26h0l0,0,.1.09Zm-1.87-3.45,0,0,0,0Zm-.3-7.88h0l0,0ZM51.24,267l-.14-.22.06.1C51.22,266.94,51.23,267,51.24,267Zm316.5-129.52a.69.69,0,0,0-.05-.34,2.56,2.56,0,0,1,.12.41ZM296,31.75h0l.06.05ZM66.58,64.45l0,0a1.26,1.26,0,0,1-.19.2Zm11.93-3.76h0l-.15.12-.07.14a1.66,1.66,0,0,0-.39.28c.16-.16.25-.24.46-.42Zm156.63-28h0l.2,0Zm112,172.54a1.48,1.48,0,0,0,.18-.61c-.07.4-.13.65-.17.92C347.09,205.43,347.12,205.3,347.1,205.23Zm.54,2.5,0,0c0,.07,0,0,0,0ZM59,281.37a3,3,0,0,0-.25-.37l.25.37,0,0ZM80.4,306.13l.06.05h0l0,0ZM77.08,304l.44.38c-.15-.14-.22-.09-.36-.16ZM275.16,19l0,0-.07-.06ZM97.56,319.78l.15,0,0,0ZM369.11,194.16v-.11h0C369.11,194.16,369.08,194.13,369.11,194.16ZM38.22,95.1l0,.06,0-.07ZM184.11,29.76l0,0,0,0ZM217,4.28l.1,0h-.17ZM181.28,2.75h.11a5.5,5.5,0,0,1-.62.08C181,2.78,181.1,2.8,181.28,2.75Zm-83,30,.06,0Zm-44,82.9.09-.28.11-.16A.88.88,0,0,0,54.28,115.67Zm285.13-1.14,0,0c.06,0,.05.15.11.2v0h0A1.45,1.45,0,0,0,339.41,114.53Zm10.38,92h0ZM163,354.16l.07-.05-.07.05Zm71.72-4.53s0,0,.27-.08l.06.05h0l0,0h0l0,0h0l0,0s0,0-.19.05C234.73,349.65,234.73,349.65,234.7,349.63ZM125.82,17.3l0,0-.12.05Zm96.64,12.14h0ZM368.17,145.68a3.92,3.92,0,0,1-.15-.48l.1.08C368.11,145.38,368.16,145.52,368.17,145.68ZM137.55,14.53h0l0,0ZM86.26,57l.06-.05h0Zm261.65,86.26a2.41,2.41,0,0,0,.18.67,7.08,7.08,0,0,0-.34-1.11l.07.06Zm-47.8,154.37h0c.07-.08,0,0-.09.08ZM147.29,332.78l.05,0h0l-.07-.06ZM136.85,348.1l.09,0h0Zm209.67-89.73h0l.33-.49h0S346.69,258.06,346.52,258.37ZM105.72,29.42h0l0,0Zm174.81-5.14,0,0h0ZM173.17,341.63s-.06,0,0,0H173Zm-20.41-5.73h0ZM216,5.9l-.26-.07.34,0ZM131.74,18.42l-.37.14h0A2.11,2.11,0,0,0,131.74,18.42ZM120.31,23l-.13,0Zm238.26,96.25v.09a1.7,1.7,0,0,1-.09-.33A.79.79,0,0,0,358.57,119.23Zm-102.94-85,0,0h0Zm92.19,192.9,0,0-.26.65ZM310.6,288.78h0ZM153.28,347.89h0l.09,0s-.2,0-.09,0l.15.09-.15-.09ZM358.39,226.14l0,0c.09-.22.27-.58.34-.83C358.57,225.68,358.49,225.92,358.39,226.14ZM344.89,94.52l-.51-.84A9.58,9.58,0,0,0,344.89,94.52ZM149.07,12.66l-.34.11a1.78,1.78,0,0,1,.41-.11Zm10.66,17.4h0l.15,0ZM319.3,282.93l-.18.16.11-.16S319.27,282.91,319.3,282.93ZM162.64,345.08a2.5,2.5,0,0,0-.74-.18,2.69,2.69,0,0,1,.85.12S162.76,345,162.64,345.08ZM354.19,161.89v0Zm-87.81,165-.09,0,.08,0C266.32,326.9,266.38,326.86,266.38,326.86Zm4.86-1.39,0,0Zm-9.88,8h0l.16-.07Zm-59.08,13.94a6.94,6.94,0,0,0,.74-.08l-.55.14-.25-.11-.32,0,0,0C202,347.43,202.15,347.39,202.28,347.45Zm-1.6,1.89h0Zm-9.37-.81a1.54,1.54,0,0,1,.39,0c-.13,0-.24.05-.37,0Zm38.75-2.75s.06,0-.14,0l-.11.05A.42.42,0,0,1,230.06,345.78Zm-8.64,2.32,0,0h0Zm94.77-54.51.08-.08-.15.18Zm11-225.25-.12-.15,0,0Zm31,146.47s0,0,0,.08,0,0,0,0Zm-.41-8.47v0Zm1.05,3.19v.05l0,.27ZM338.61,265.3h0v0Zm-21.2,24.28,0-.05h0ZM357,210.41l0,0,0,0Zm.16-.68v0l0,.07Zm-.95,17.87a6,6,0,0,1,.37-1.15,9,9,0,0,0-.41,1.28Zm-17.31,25.55v0Zm12.44-26.72.05-.17c0-.06,0,0,.05,0A.88.88,0,0,1,351.31,226.43Zm4.45-14.61c.15-.63.28-1.19.41-1.84l-.06.45A12.2,12.2,0,0,1,355.76,211.82ZM294.59,53.25l-.1-.09a.35.35,0,0,1,.19.12Zm57.31,68.31,0,0,0,0Zm-7.37-21.93-.35-.61.17.15ZM209.33,8.72h0l0,0,0,0ZM356.78,143.59a.91.91,0,0,1-.16-.45A4.37,4.37,0,0,0,356.78,143.59Zm3.37,11.48,0,.09v-.1Zm-.12,3.12,0,.27s0-.13,0-.26Zm-1.7-12.05c.08.54.16,1,.18,1.09s-.09-.19-.15-.34S358.34,146.41,358.33,146.14Zm-1.52-17.9s0,0,0,.06Zm2.84,4.28a.55.55,0,0,1,.11.25l-.12-.2Zm1.91,29.18,0,0h0ZM196.41,10.77l.08,0S196.49,10.74,196.41,10.77Zm-28.23,3.94-.23.06.12-.06Zm36.72,8,0,0Zm-24.05-4.31h0Zm8.47,1.83h0l.05-.06-.05.06Zm21.2-9.58-.08,0h.11Zm-2.05.58h0Zm-45,10.87.19-.08Zm34.08-3.33h0a2,2,0,0,1,.41,0,3.41,3.41,0,0,1-.66.05ZM315.93,63l-.32-.32L316,63S316,63,315.93,63ZM293.75,43.53l.1.09-.13-.06Zm5.51,6,.21.19-.21-.19Zm-7-5h0Zm-24.65-15,.07.06h0l-.09-.07Zm-.77-.92c-.1,0-.08,0-.14,0l.06.05Zm-69.6-13.4h0l.1,0,.11-.06h.36l-.47.06Zm41,4.18,0,0ZM249.77,22l.1.08,0,0-.06,0Zm-16.22-5.13,0,0,0,0Zm4.69,1.74.12-.05Zm1-1.36h0l0,0Zm-30,.24v0Zm.15,1.91-.18,0H209Zm-11.34-4.91.13,0-.1.06Zm21.23-1.64.19.06-.19-.06Zm64,24.55.11.1h0Zm42.31,37.77.08.07-.07-.06ZM165.9,19.44l0,0h0Zm13.9-2.94h0ZM184.41,14h-.24v0Zm5.78.13.8,0-1.15,0A3.24,3.24,0,0,1,190.19,14.11Zm12.59-.81h0l0,0,0,0ZM325,73.45a10.67,10.67,0,0,0,.81.85C325.56,74.1,325.34,73.81,325,73.45ZM273.39,36l-.07-.06.07.06ZM259,27.88h0Zm-46.9-7.44-1.55-.06a1.53,1.53,0,0,0-.41-.1c.18,0,.34,0,.51,0C211.17,20.32,211.64,20.41,212.08,20.44Zm-36.43-.68c-.48.1-.93.13-1.49.2A12.68,12.68,0,0,0,175.65,19.76Zm-14,5.85-.62.18.14-.08Zm37.6-14,0,0,.21,0Zm11.11.07,0,0h0ZM331.47,78.88a1.8,1.8,0,0,1-.28-.4l.07.06a1.28,1.28,0,0,0-.12-.2C331.29,78.57,331.29,78.57,331.47,78.88ZM313.68,66.77h0ZM198.73,11s.05,0,.05,0h-.05ZM308.09,53.63l.05,0-.05,0ZM252.47,26.27l0,0h0Zm-71.84-7.12c-.1,0-.2.08-.3.05Zm-42.77,9.69-.16,0ZM157.4,20l.27-.12A.9.9,0,0,0,157.4,20ZM301.82,46.3l.1.08-.07-.06Zm38,53.33.13.27,0,0ZM325.72,79.24l0,0,0,0Zm-6.3-5.73-.07-.06,0,0h0ZM209.61,22.35s0,0,0,0l-.11,0Zm-2.73-.05-.08,0h0Zm-62.36,7.43ZM145.73,27l-.09,0,.09,0,.13-.09s-.09.07,0,0l-.13.09S145.77,27,145.73,27Zm19.38-12.78s.16,0,0,0Zm99.5,7.39.7.25a4.09,4.09,0,0,0-.47-.2l-.17-.1Zm7.75,3.31.22.18Zm90.1,116.32v0Zm-4.18,11.41v0l0,0S358.29,152.6,358.28,152.64Zm-3.56-10.83v-.06l0,0ZM325.54,79.39h0l-.07-.06.07.06ZM228.25,23.23h.42A3.21,3.21,0,0,0,228.25,23.23Zm-73.51,5.54a.81.81,0,0,1-.39,0C154.51,28.84,154.77,28.8,154.74,28.77Zm-1.09-7.88.15,0,.13,0v0l-.14,0-.17.11S153.72,20.9,153.65,20.89Zm2-1.66.39-.11,0,0-.43.13Zm3-1.7h0c.19,0,.32-.08.47-.1h-.07a.65.65,0,0,1-.4.11Zm200,147.87,0,0h0Zm-3.36-21v-.1l0,0Zm-3-10.22,0,0,0,0ZM299.52,57a1.41,1.41,0,0,0,.47.3l-.05.06Zm-7.45-6.16.14.12h0ZM252,29.31a.91.91,0,0,1-.44-.13h0a.25.25,0,0,0,.25.07C251.83,29.29,251.83,29.29,252,29.31Zm-41.66-4.57,0,0Zm-28.05-.45a5.06,5.06,0,0,1-.87.12l.39-.08A2.5,2.5,0,0,0,182.26,24.29ZM129.31,34.72l0,0-.16.07A.21.21,0,0,0,129.31,34.72Zm5.47-6.48.11-.06h0Zm49.44-17v0l0,0Zm75.87,22.44h0l0,0Zm-52.8-9,0,0,0,0Zm-47.63,4.14-.29,0,0,0Zm-46.73,14s-.08,0-.14,0a1.07,1.07,0,0,0,.41-.26A.83.83,0,0,1,112.93,42.83Zm57.72-33.7,0,0,0,0Zm26.16-.46,0,0-.09-.07ZM310,52.9l0,0-.13-.11-.12-.11-.06-.05.11.1.07.06Zm51.79,114.94Zm-1.3,5.62-.05-.09,0,.07Zm1.81,32.93,0,.13,0,.07Zm-47.51,80.29a.51.51,0,0,0,.13-.14l0,.06Zm-208-239.4a7.12,7.12,0,0,1,.73-.6A7.81,7.81,0,0,0,106.77,47.28ZM102.58,52l-.09.07.09-.07Zm-3.1,2.18c-.32.23-.69.48-.89.66h0A7.56,7.56,0,0,1,99.48,54.18ZM152.14,17c.08,0,0,0,.07,0s.19,0,.24,0a.59.59,0,0,1-.27.08h0ZM183.49,9.3a1.88,1.88,0,0,1-.24,0c.16,0,.13,0,.24,0Zm26.19-1.91c.23.05.49.06,1,.12l-.07-.06A9.34,9.34,0,0,1,209.68,7.39Zm40.58,6.44.08,0,.3.15C250.49,13.94,250.4,13.86,250.26,13.83Zm12.33,5.47,0,0,0,0ZM349.1,242.86a2.73,2.73,0,0,0-.23.52l0-.14A1.67,1.67,0,0,1,349.1,242.86ZM337,269.17l0,0ZM307.46,301.9l-.33.38a4.48,4.48,0,0,1-.66.56A9.64,9.64,0,0,0,307.46,301.9Zm-87.18,47.72h0l0,0Zm74.63-44a1.37,1.37,0,0,1-.18.16l.2-.19Zm41.21-47.1,0,.08-.11.22.09-.13Zm18.81-52.7,0,.07v-.16S354.88,205.86,354.93,205.8ZM358.25,182v0Zm-12.54-68.37-.12-.21h0Zm-16.32-25.7,0,0,0,0ZM239.69,25l.17.1c.06,0,0,0,0,0Zm-91.41-3.69.12-.05s-.09.08,0,0ZM207.6,7.24l-.14,0h-.18l.09,0,.09,0ZM241.32,11h0a.25.25,0,0,1,.17,0ZM360.37,127.37l0-.09h0ZM361.59,189l-.07.15,0,0ZM244.72,343.39l.05-.05,0,0Zm-82.65,7.33h0a.32.32,0,0,1,.2,0ZM258.41,35.83c-.07,0,.13.11.13.11l-.32-.12.2,0ZM86.56,63.43h0a.46.46,0,0,0,.16-.13ZM127.4,30.21l.1,0h0Zm19.53-8.52.17-.06-.16.07C147,21.64,146.93,21.69,146.93,21.69Zm.81-5.08-.29.11Zm76.13-7.16,0,0,.15,0ZM248.8,12h0l0,0Zm16.77,6.89.22.08h0l-.25-.11Zm29.08,19.47.43.27c.08.07.07.06.18,0S295.09,38.61,294.65,38.33Zm60.27,73.26,0,.09,0-.09ZM365.27,166l0,.12h0Zm1.38,16.15h0ZM258.25,336.35c-.24.1-.45.27-.69.38.09-.08.35-.21.4-.27A1,1,0,0,1,258.25,336.35Zm-18.8,8.37,0,0h0Zm-27.14,6.56-.08,0h0l.07-.05Zm-4.92,1.7a2.21,2.21,0,0,0-.65,0C207,353,207.26,353,207.39,353Zm-26.94-1.8.08,0h0Zm140.13-71,0,0,0,0Zm19.49-31.59h0l-.23.41A1.9,1.9,0,0,1,340.07,248.57Zm2.18-5.58h0Zm11.41-31.81,0-.08,0,0Zm2.58-35.88a7.49,7.49,0,0,0-.1-.9A3.41,3.41,0,0,1,356.24,175.3Zm-2-8.07.06-.1ZM322.91,82.85l.12.1h0ZM273.06,43.13l-.2-.08A.48.48,0,0,0,273.06,43.13Zm-1.28-.23,0,0,0,0Zm-13.26-6.83a.16.16,0,0,0-.18,0c-.08-.07.09,0,0-.13ZM210.17,27l-.08,0h.08Zm-120,30.12,0-.05,0,0Zm53.48-40.27c.06,0,.14,0,.2-.08h0Zm74-9.18h.11l0,0ZM256.6,14.4l.28.08h-.13Zm12.6,5.74c-.05,0,.14.12.55.37l0,0Zm57.71,45.92v0h0ZM310.76,301.89h-.07l.28-.32S311,301.59,310.76,301.89Zm-55,37.62-.15.08.06-.06Zm-38.54,12.37h0Zm-61.06-1.82h0Zm11.38-9.25.18.05.07.06Zm144.65-54.15-.06.06h0Zm34.28-167.28,0,0ZM174.27,27l-.07.05.11-.06S174.27,27,174.27,27ZM68,82.83c.09-.13.19-.25.31-.45Zm105.28-75h0ZM367.45,183.53h0v-.35A1.26,1.26,0,0,1,367.45,183.53ZM364,201l0,.07,0,0h0l0,0h0Zm-49.31,99.23-.25.29Zm-1.57-.39.24-.25A2.65,2.65,0,0,1,313.12,299.83Zm-14.31,14.6h0l.05-.06Zm52.55-96.9,0,0h0l0,0Zm.68-1.91,0,0,0,0ZM235.61,30.55l0,0-.17-.05Zm-75.85,1.12a.52.52,0,0,1-.2.08l.18-.09ZM97.54,47.55l0-.06a1.75,1.75,0,0,1,.18-.15Zm26.82-17.1h-.11l.25-.09Zm-.82-7.86,0,0Zm4.81-4.49a4,4,0,0,0,.58-.27l-.46.27S128.46,18.09,128.35,18.1ZM231.92,8.66l.15,0h0Zm40.94,11.62.13.06h0Zm27.52,20.59,0,0c-.1-.19.47.3.05,0l0,0ZM359.14,118l0,.13-.06,0Zm8.33,65.5s0,0,0,.08l0-.07ZM146.83,348.17l0,0Zm23.62-6.84,0,0h-.06Zm71.85-7.84h0Zm12.4-297-.9-.42h0l.86.38,0,0ZM111.16,38.9l.36-.2a3.32,3.32,0,0,0-.57.38C111,39,111.17,38.91,111.16,38.9Zm23.33-17.1a2,2,0,0,1,.41-.2l0,0C134.76,21.74,134.61,21.71,134.49,21.8ZM171.4,6.09a2.1,2.1,0,0,1-.51.13A2.37,2.37,0,0,0,171.4,6.09ZM224,5.76h-.11l0,0Zm65.21,25v.11l-.18-.16Zm26.23,18.81,0,0,.27.23-.23-.19,0,0-.2-.17Zm32,44.68,0-.06.11.3A.33.33,0,0,0,347.47,94.2Zm16.13,119-.15,1ZM161.2,352.83h0Zm-9.28-13.15.13.06-.11-.05S151.9,339.71,151.92,339.68ZM181.21,342s0,0,0,0Zm47.91-3.39Zm81.27-52.59,0,0h0ZM351.14,160.6v0ZM212.49,29.84l-.06.05,0,0ZM182,28h0l.1-.07h0Zm-49,13.65h0l.12-.06ZM113,37l.2-.14-.09.08ZM134.6,19.71l0,0ZM103.82,30.53l0,0h0ZM193.5,3.22l-.13,0S193.4,3.23,193.5,3.22Zm26.07,3.14.65.1C219.94,6.42,219.77,6.38,219.57,6.36Zm8.7,0-.1,0,.07,0Zm18,4.11-.22-.09Zm15.61,4.86-.06-.05h-.17Zm50.19,30.46a33.3,33.3,0,0,0-2.86-1.86h0A18.29,18.29,0,0,0,312.12,45.77Zm33,44.6.08.07,0,0Zm22,97.83,0-.07c0-.06,0,.07,0,.07Zm-29.65,86.38-.1.17s0-.05,0-.05Zm0,1,.08-.09-.05.12S337.55,275.46,337.47,275.55ZM297,317.74l.11-.11v0Zm-36.82,23,0,0,0,0s0,0,0,0l.05-.05a4.1,4.1,0,0,1,.48-.21l-.54.25Zm-62.69,15.12h0l0,0,0,0Zm-8.39-1.09h0c.2,0,.32,0,.75,0h0Zm-27.38-1.05h0Zm-20.88-4-.14,0h0Zm4.13-17.34ZM272.8,319l.33-.23-.13.1Zm80.5-121.66a1.89,1.89,0,0,1-.18.41Zm-1.81-34.92,0-.08,0,0Zm-2.11-5.54h0ZM271.41,45l-.08,0h0Zm-87.83-16.5a2.38,2.38,0,0,1,.42-.09A2.66,2.66,0,0,1,183.58,28.53ZM70.69,88.94l-.09.13h0ZM68.3,90.61l.53-.62a.94.94,0,0,0-.14.19S68.37,90.52,68.3,90.61ZM64.88,89l.3-.41-.15.23Zm56.53-58.84,0,0h0l0,0ZM108,29.21l.07-.09h0ZM92.75,37.65l0,0Zm36.14-21.13a4.31,4.31,0,0,0,.86-.43ZM175.16,4.73h0l.08,0C175.17,4.74,175.16,4.73,175.16,4.73ZM208.34,3h0Zm83,28.11-.14-.07Zm47.25,49.17v.17l-.12-.27a.63.63,0,0,1-.17-.24C338.37,80,338.47,80.15,338.58,80.25Zm5.47,8.35h0s0,0,0,0Zm20.41,39.64-.09-.08c.13-.14,0-.58-.24-1.27A10.36,10.36,0,0,0,364.46,128.24Zm5.24,38.53a4.15,4.15,0,0,0,.17.5C369.78,167.2,369.77,167,369.7,166.77Zm-55.81,139.5h-.06l0,0ZM142.82,350.8a.83.83,0,0,0-.42-.17s-.07.05,0,0A.77.77,0,0,1,142.82,350.8ZM141.33,337h0l0,0Zm36.29,3.92.38.13A1,1,0,0,1,177.62,340.91Zm103-27.11.1-.12-.1.12Zm38.59-37.2,0,0,.08-.09Zm1-1.63.08-.09h0Zm28.15-124.4h0ZM304.91,72.15l0,0,0,0ZM180.67,27.87c.36,0,.49,0,.55.06ZM51,83.37l.07-.25C51.13,83,51.09,83.14,51,83.37ZM162.7,5.5l.12,0h0Zm29-3.15,0,0,0,0Zm51.52,6.27-.08,0,0,0,0,0Zm61.42,29.51c-.23-.1-.33-.19-.07.09l0-.08-.54-.41.1.09a3.18,3.18,0,0,1,.44.32Zm36.24,41.78-.05,0,.08.08Zm3,185.49a1,1,0,0,0-.09.13l.05-.11S343.88,265.39,343.89,265.4ZM306,311.66l.07-.09,0,0,0,0Zm-17.39,12.61-.08.07-.13.15-.16.16.29-.31.07-.08Zm-25.87,15.82-.22.11c.07-.09,0,0,0,0Zm-5.8,4.35Zm-5,1.19.14-.08h0Zm-82.13,9.06,0,0h0ZM140.43,337.5l0,0,0,0Zm168.43-50.58h0l-.06.05Zm22.2-28.23,0,0Zm19.45-57.11,0,.06,0-.14Zm-5.5-72,0,.07,0,.09,0,0Zm-.87-2.85.06.16Zm-35.77-51,0,0h0l0,0,0,0h0ZM259,40.53h0l0,0ZM80.77,78.27l-.27.23.08-.09.08-.09.06,0C80.67,78.33,80.77,78.27,80.77,78.27Zm-7.2,6.61.05-.06h0Zm-11.18.49-.07.09,0,0ZM86,53.76l.07,0,0,.06Zm2.46-12h0l.09-.07.14-.08Zm-9.13,8.69.14-.13a1.34,1.34,0,0,1-.35.3ZM55.67,76.72l-.05.06h0ZM36.2,107.25l-.05.06.05-.06Zm-.87-4.42c-.12.3-.26.54-.37.79s0,0-.05,0Zm.57-3.09h0v0ZM168.64,4h0Zm48.16.51h.07C216.8,4.48,216.82,4.51,216.8,4.48Zm-.51-.59c.05,0,.09,0,.17,0l-.08,0Zm28.28,4.94,0,0-.06,0ZM276.85,20.6l0,0h0Zm62.46,55.94h0l0,0ZM133.15,345l.44.18Zm10.38-14.66a.27.27,0,0,1,.11.05s0,0,0,0Zm109.71-4,.39-.23,0,0A1,1,0,0,0,253.24,326.26ZM322.35,89.72v.1l0,0ZM316.49,86a2.79,2.79,0,0,1-.36-.41ZM124.82,46.43l.1,0h0ZM69.23,93.91a.41.41,0,0,1-.09.13l-.12.15Zm-27.55,58,.09-.28-.09.28ZM71.86,52.66l.21-.13a1,1,0,0,0-.31.24ZM96.32,34l.1-.06.22-.12A1,1,0,0,0,96.32,34Zm77.91-30c.08,0,.08,0,.13,0s-.05,0,0,0Zm2.26-.76h0l-.05,0Zm93.94,13.73h0Zm16,9.65s.23.05.27.08l0,0Zm58.38,59.58c.45.64.76,1,1.06,1.48a4.46,4.46,0,0,1-1-1.41Zm22.09,49.52a1,1,0,0,1-.1-.29.33.33,0,0,1,.08.22ZM349.55,259.75s0-.07,0,0S349.56,259.71,349.55,259.75ZM290.9,323.6l-.07,0ZM130.38,348.05h0Zm2.05-4.47c.07,0,0,0,0,0a.35.35,0,0,0,.24.1Zm-6-7.77a2.9,2.9,0,0,1,.67.23A2.9,2.9,0,0,0,126.44,335.81Zm12.1-.3,0,0,0,0Zm128-15.33.29-.16c-.34.22-.51.28-.9.56l.06-.06Zm1-.6.23-.11-.52.27Zm21.76-14.67h0l0,0h0l0,0,0,0h0Zm59-96.54v-.14l0,.09Zm1.84-43.77,0,0h0Zm-4.49-25.07,0,0,0,0Zm-54.1-80,0-.09.09.08ZM31.09,110.1l.12-.2c-.08.09-.05.06-.07.14S31,110.16,31.09,110.1ZM216.85,3.3h.05c.09,0,0,0,.16,0Zm82.49,29.92-.18,0,0,0Zm41.18,42.52h0l.06,0Zm32,100.52,0,.07Zm-1.08,13.11,0,0h0Zm-98.19,147,.12,0c-.05.06-.07,0-.12,0ZM77.61,304.48l-.06-.05s-.06-.05,0,0l0,0Zm-7.53-11h0ZM70.5,295l0,0h0Zm57.33,39.26h0l.1.08Zm-78-92.4v0ZM98,309.2l-.31-.22s0-.08,0-.08Zm2.71,1.62-.07-.06h0Zm5.86,4.48.11.1-.08-.07Zm-9.41-6.05h0v0Zm-33.82-37-.13-.11L63.1,272s0,0,0,0Zm32.24,32.92h0v.05l.07.06-.07-.06Zm-3.67-2.85.09.08h0ZM43.42,228.5c0-.28-.08-.43-.1-.69a3.54,3.54,0,0,0,.15.74h0Zm.45,1.21,0,0,0,0Zm1.68,1.44h0l0,.08ZM63.23,263.9l.18.16h0ZM334.7,110.73a2.45,2.45,0,0,1-.21-.43A2.15,2.15,0,0,0,334.7,110.73ZM206.77,30.94h0ZM56.18,92.74h0l.07-.09Zm21.9-31.55,0-.06h0ZM94.5,38.85l0-.06,0,.06h0l-.12,0,.12,0Zm-60.89,73-.12.14c.15-.32.15-.32.31-.69A5.44,5.44,0,0,1,33.61,111.87ZM200.81,1.54l-.12.05.05-.06Zm14.81,1,.12,0-.12,0Zm105.45,49,0,0-.4-.35h0Zm44.18,74.83h0l-.05.12ZM302.11,317.73h0l0,0ZM121.33,342.9l0,0ZM39.23,236.59l-.07.09h0s0,0,.07-.1Zm77.65,92.78h0l-.26-.06A1.59,1.59,0,0,0,116.88,329.37ZM51.4,242a1,1,0,0,0,.12.31.25.25,0,0,1-.12-.2Zm23.7,38.7.07.17h0Zm225.7,11.48a1.94,1.94,0,0,1,.55-.5h0A4.77,4.77,0,0,1,300.8,292.19Zm16.43-16.4-.2.23Zm-27-216h0l.12.1h0ZM94.51,67.37l.23-.27v0A1.46,1.46,0,0,0,94.51,67.37Zm-29.33,36.5,0,0h0ZM43.7,150.7l-.05.2A1.13,1.13,0,0,1,43.7,150.7ZM45,133.84l-.11.21.11-.21Zm11-32.65h0s0,0-.07.14ZM81.9,42.87l.06,0c0,.06,0,0,0,0ZM98,31h0Zm50.5-23.57L149,7.3l-.08,0A.76.76,0,0,1,148.52,7.38Zm80.17-3.53,0,0h0Zm41.18,12.07c-.25-.11-.45-.19-.76-.3l-.33-.13C269.15,15.66,269.52,15.72,269.87,15.92Zm64,49.42,0,0h0Zm25.46,44.1,0,.07,0-.07ZM373,166.92v-.06s0,0,0,0v.06Zm-6.37,48,0,0,0,0Zm-5.38,19.57v0Zm-3.54,8.6,0,0-.05.06ZM161.08,356.2l-.27,0Zm-57.77-28.66-.86-.59h0Zm-11-8.49-.11-.1ZM69.55,297.54c-.09-.13-.27-.33-.41-.5ZM42,254.77l.06,0s0,0,0,.12Zm57.75,62.81,0,0,0,0Zm26.13,14.53a7.21,7.21,0,0,1,.91.43c-.09-.07-.37-.11-.29,0A2.42,2.42,0,0,1,125.88,332.11ZM126,331l0,0,0,0h0Zm-75.48-78.7-.06-.16s0,0,0,0C50.52,252.19,50.47,252.25,50.47,252.25Zm-7.14-27.6h0Zm29.06,53.17s0,0,0,0l0-.09,0,0Zm44.52,39.42,0,0,0,0Zm-.55.64-.1-.08,0,0Zm4,1.23a.57.57,0,0,0-.4-.09l-.17-.14A1.07,1.07,0,0,1,120.33,319.11Zm27.79,11.26.06.05-.08-.06Zm160.59-46.95c.14-.19.24-.31.39-.48l.34-.32C309.24,282.86,309,283.17,308.71,283.42Zm38.22-126.2v0l0,.08ZM39.15,170.17l0,0c0,.19,0,.42,0,.35v0ZM100,38.35l0,0s.19-.14.22-.18C100.1,38.31,100.1,38.31,100,38.35ZM78.29,54.93l.19-.15a3.25,3.25,0,0,1-.42.31A.71.71,0,0,0,78.29,54.93ZM79,54.8l0,0ZM254.37,9.67h0Zm18,7.06h0l.22.1-.22-.1c-.45-.19-.45-.19,0,0l0,.06h0l0-.12Zm31.34,19,0,0-.06-.05Zm68.86,137.82c0-.14,0-.15,0-.18l0,.18Zm-.1,22.84v.21l0-.18S372.45,196.41,372.46,196.42Zm-10.39,35.19,0,0h0Zm-75.51,98.68s0,0,0,0h0ZM190.45,358.4h-.26l.27,0Zm-25.22-1Zm-28.86-5.85-.08,0,.08,0ZM86.49,315.15l.13.11h0l-.08-.07Zm17.78,2.34.08.06-.13-.11ZM42.1,217.62v0l.19.83h0Zm13.35,30.54.08.18-.06-.06Zm7.26,14.18v0l-.59-1.07v-.06C62.27,261.64,62.51,262,62.71,262.34Zm227.79,38h0l0,0Zm15.79-14.39h0s0,0,.07-.05ZM311,83.56a2.27,2.27,0,0,0-.36-.47l.35.31ZM172,32.68l-.33.17-.07-.06A1.6,1.6,0,0,1,172,32.68ZM53.63,97.59a2.54,2.54,0,0,1,.24-.4l-.22.42ZM31.94,119.42h0l-.09.23Zm-3.16,6.78h0Zm-5,3.66.09-.23-.05.11ZM174.16,2l.4-.06-.09,0Zm16-1.5h0Zm28.63.9.09,0,0,0Zm98.86,45.71.13.11-.07-.06Zm48.29,172Zm-59.84,97.1.22-.22h0Zm-86.77,41-.2,0,.18-.05ZM118.67,338.27l.11.1,0,0,0,0h0l0,0Zm-18.59-12,0,0h0ZM37.7,246.36l0-.08h0Zm74,78.26h.19C111.84,324.57,111.84,324.57,111.72,324.62ZM69.27,284.38l0,0h0Zm-20.58-35.8a3.32,3.32,0,0,0-.4-.66A6.76,6.76,0,0,1,48.69,248.58Zm-1.51-22.77c.12.62.27,1.16.36,1.54h0A5.73,5.73,0,0,1,47.18,225.81Zm4.09,10.42.07.06h0v.1l0,0,0-.07h0Zm.14.33h0l0-.07Zm39,60,0,0-.14-.12Zm3.48,4,.06,0,0,0Zm48.43,27.72h0Zm5.93,1.84.27,0-.17,0Zm105.92-6.59.24-.16h.06A.59.59,0,0,0,254.13,323.51ZM348.26,171l0,.14,0,0Zm-8-45.84v0h0ZM312,85.18l-.23-.31h0l.2.28ZM172.1,33.72l-.1.06-.07-.06C172.07,33.69,172,33.76,172.1,33.72ZM126.43,48.07l-.15.07.15-.07s0-.07,0,0a1.27,1.27,0,0,1,.18-.06l-.15.08ZM105.75,60.75l0,0h0ZM75.25,90.47l.2-.24a1.26,1.26,0,0,0-.09.13Zm-22.59,19,0-.08h0Zm55-75,.13,0h0Zm-26,18.36,0,.06c-.54.45-1.18,1-1.56,1.41s-.09-.07.15-.32ZM23.24,134.29l0,.07-.13.25ZM233.85,4l0,0,0,0ZM373.18,160.26l0,0v-.1ZM118.73,344.14h.12l.12.1Zm-52.41-48.2,0-.08s0,.05,0,0h0l0,0ZM29.19,203.58l0-.09c0,.09,0,.11,0,.25h0ZM50.72,254.2l-.08-.07h0l.08.07ZM216,334.11l-.11,0H216l0,0-.11,0Zm8.11-1.44,0,0,.35-.1h0Zm92-59.36-.07.09.06-.1ZM326.4,103.78l.08,0Zm-6.87-9.64-.17-.15.17.15ZM174.76,33.4l0,0a5.15,5.15,0,0,0,.85-.13ZM116.08,54.93c.13-.09.2-.18,0,0ZM40.54,171.26a1.2,1.2,0,0,1-.07.3c0-.08.07-.19,0-.28ZM75.21,58.45l-.08.09.05-.06ZM34,99.55l0-.11s0,0,0,0Zm30.82-42.1.09-.08-.09.08ZM83.05,40.54l-.11.1h0Zm29.84-19.1c-.56.34-1.09.64-1.43.81C111.9,22,112.36,21.75,112.89,21.44ZM372.5,201.06l0-.09h0Zm-2.15,2.64,0,0a.61.61,0,0,0,.09-.23A1.85,1.85,0,0,1,370.35,203.7Zm-56,105.8h0l.26-.3Zm-97.95,48.29-.06-.05c.06.05.18,0,.25,0ZM115.15,335l-.25-.11.07.06.18,0,.61.27,0,0ZM39.65,233.79h0l-.07-.06Zm27.61,35h0l0,0ZM346.5,199.09v.31s0-.08,0,0ZM296.74,69.3l-.07-.06.1.08,0,0ZM45.67,150.5h0l0,0S45.64,150.57,45.67,150.5Z"/><path class="cls-9" d="M189.75,360.1a21.86,21.86,0,0,1,2.26-.05,13,13,0,0,1-2.3.22l-2,0c-.53.06-1.12,0-.76,0a17.69,17.69,0,0,1,2.32-.14Z"/></g></g></svg>