<?xml version="1.0" encoding="utf-8"?>
<!-- Generator: Adobe Illustrator 23.0.2, SVG Export Plug-In . SVG Version: 6.00 Build 0)  -->
<svg version="1.1" id="Capa_1" xmlns="http://www.w3.org/2000/svg" xmlns:xlink="http://www.w3.org/1999/xlink" x="0px" y="0px"
	 viewBox="0 0 612 792" style="enable-background:new 0 0 612 792;" xml:space="preserve">
<style type="text/css">
	.st0{fill:#040006;}
	.st1{fill:#FFFFFF;}
</style>
<g>
	<path class="st0" d="M129.91,550.63c16.69-0.09,31.06,1.86,44.57,6.81c4.67,1.71,9.21,3.84,12.35,7.31
		c4.55,5.04,2.39,11.31-4.23,14.51c-15.3,7.39-32.1,7.68-49.07,6.82c-12.26-0.62-24.24-2.7-35.11-7.49
		c-5.61-2.47-11.45-5.11-12.67-10.87c-0.68-3.21,0.75-5.79,3.89-8.03c7.86-5.61,17.61-7.13,27.5-8.43
		C121.98,550.63,126.88,550.69,129.91,550.63z"/>
	<path class="st0" d="M325.74,480.64c-3.2,13.09-6.76,26.05-13.05,38.16c-4.37,8.41-9.51,16.29-16.43,22.95
		c-2.7,2.6-5.91,4.59-9.69,5.53c-6.66,1.65-12.97-1.71-15.35-7.81c-4.34-11.12-3.95-22.56-2.82-34.08c0.08-0.78,0.21-1.55,0.29-2.33
		c0.85-8.26,0.85-8.29-7.83-9.63c-12.56-1.95-25.13-3.86-37.69-5.78c-1.16-0.96-2.56-0.62-3.89-0.7c-1,0-1.99,0-2.76-0.77
		c-8.28-1.34-16.56-2.66-24.84-4.05c-2.06-0.34-2.94,0.62-3.49,2.34c-3.97,12.43-9.93,23.98-16.99,34.98
		c-2.98,4.64-6.43,9.03-10.03,13.24c-7.68,8.96-16.3,16.94-26.41,23.42c-15.89,10.17-32.91,14.94-51.9,11.1
		c-12.48-2.52-22.03-9.36-29.42-19.25c-0.54-0.73-1.29-1.32-1.94-1.97c-13.25-21.04-15.85-43.9-12.56-67.83
		c3.14-22.87,11.36-43.84,24.35-63.16c7.94-11.82,17.29-22.27,28.81-31.01c13.05-9.89,27.17-16.88,44.05-17.53
		c9.23-0.36,18.3,0.81,26.31,5.37c7.19,4.09,13.91,9.04,18.44,16.11c1.87,2.92,3.23,2.31,4.94-0.05
		c9.12-12.61,18.24-25.23,27.46-37.78c6.73-9.16,13.67-18.18,20.39-27.35c8.41-11.48,16.67-23.06,25.04-34.57
		c3.34-4.59,6.62-9.25,10.26-13.61c2.01-2.4,2.43-4.79,1.95-7.65c-4.74-28.4-1.95-56.18,7.78-83.28
		c2.75-7.67,6.71-14.92,11.92-21.28c4.38-5.35,9.87-9.72,17.25-10.74c2.76-0.38,5.42,0.11,8.01,1.66
		c13.54,8.11,17.77,21.49,21.08,35.18c5.39,22.34,4.81,44.84,0.71,67.33c-2.17,11.89-5.78,23.35-11.21,34.21
		c-4.1,8.2-9.73,15.33-17.73,20.37c-5.2,3.28-12.36,2.07-17.67-1.62c-7.56-5.26-11.6-12.52-14.44-20.72
		c-0.28-0.79-0.37-1.97-1.49-2.17c-1.21-0.22-1.52,0.98-2,1.66c-9.93,13.82-19.82,27.67-29.71,41.51
		c-9.89,13.85-19.78,27.71-29.67,41.56c-7.28,10.2-14.53,20.42-21.88,30.57c-1.38,1.9-1.74,3.65-0.97,5.85
		c5.87,16.9,6.48,34.19,3.77,51.69c-0.97,6.27-0.97,6.27,5.52,6.99c1.14,1.24,3.18,0.24,4.26,1.61c12.89,2.65,25.77,5.29,38.66,7.94
		c1.18,0.24,2.36,0.54,3.53,0.82c0.8,0.61,1.9,0.69,2.65,1.38c6.61,1.29,13.24,2.48,19.82,3.9c3.17,0.69,4.61,0.16,5.66-3.26
		c3.81-12.42,9.39-24.17,17.41-34.57c4.13-5.35,8.69-10.64,15.74-12.9c6.34-2.03,10.73-0.17,14.26,5.27
		c5.17,7.98,5.22,16.8,5.31,25.68C327.52,467.97,326.51,474.3,325.74,480.64z"/>
	<path class="st0" d="M340.45,411.25c1.39-8.18,2.8-16.36,4.17-24.54c0.32-1.93,2.1-5.36,0.54-5.48c-2.93-0.23-1.05,3.15-1.68,4.88
		c-3.05,8.37-4.01,17.15-5.3,25.86c-0.19,1.29-0.69,2.76-0.27,3.87c1.62,4.24-1.47,3.87-3.98,4.05c-1.48,0.1-2.85-0.52-4.51-0.1
		c-1.73,0.44-3.43-0.87-3.98-2.63c-1.78-5.65-3.09-11.36-1.78-17.34c0.3-1.38,0.22-2.85,0.31-4.28c-0.33-1.14,0.15-2.19,0.39-3.27
		c0.11-0.88,0.04-1.78,0.06-2.26c-0.2,0.48,0.15,1.42-0.07,2.32c-0.4,1.07-0.35,2.27-1.06,3.24c-0.34,2.33-0.68,4.65-1.02,6.98
		c-2.2-1.03-0.79-2.72-0.81-4.15c0.82-18.57,5.02-36.5,10.25-54.32c4.19-14.27,9.63-28.04,15.49-41.69
		c1.85-4.32,3.53-8.69,5.98-12.75c2.02-3.35,5.23-3.88,7.59-0.84c1.23,1.59,2.57,2.81,4.14,4.1c2.55,2.1,1.89,5.99,1.08,8.6
		c-2.95,9.47-5.21,19.13-8.74,28.45c-2.41,6.39-3.98,13.12-5.46,19.79c-1.28,5.78-3.81,11.31-3.48,17.45
		c5.36-17.05,9.91-34.34,15.78-51.23c0.66-0.09,1.21-0.09,0.74,0.8c-2.82,10.69-5.67,21.38-8.45,32.08c-1.27,4.9-2.3,9.86-3.6,14.76
		c-0.6,2.26,0.64,2.26,2.12,1.83c5.55-1.59,11.61-1.58,16.87-3.39c6.56-2.26,13.2-1.33,19.69-2.64c2.37-0.48,3.77-1.19,4.19-3.34
		c1.86-9.59,5.25-18.78,8.55-27.93c3.61-9.99,6.93-20.06,10.42-30.08c0.5-1.45,1.24-3.23,3.37-2.59c1.95,0.59,1.39,2.42,1.17,3.73
		c-0.51,3.06-1.18,6.11-2.01,9.11c-0.63,2.26-0.68,4.29,1.07,6.16c2.68-2.89,1.2-6.87,2.82-9.97c0.69-1.32,0.32-3.92,2.99-3.37
		c2.05,0.42,2.29,2.41,2.49,4.08c0.78,6.76-1.19,13.24-2.52,19.73c-2.97,14.52-6.45,28.95-9.44,43.47
		c-3.43,16.66-6.55,33.39-9.8,50.08c-0.07,0.38,0,0.81-0.13,1.17c-0.46,1.31,1.13,3.36-1.16,3.93c-2.23,0.55-4.54,0.57-6.34-1.38
		c-0.54-0.59-0.56-2.05-2.31-0.92c-4.16,2.66-8.96-0.11-8.87-5.03c0.13-6.28,1.97-12.35,2.68-18.56c0.44-3.88,0.75-7.79,1.41-11.64
		c0.69-4.03-0.85-5.5-4.91-4.73c-1.97,0.34-4.01,1.26-5.69-0.69c3.66-0.51,7.49,0.32,11.07-1.16c-4.44-1.12-8.92-1.69-13.38-1.26
		c-8.47,0.8-16.92,1.67-25.44,1.51c-2.19-0.04-2.95,1.07-3.44,3.02c-2.09,8.44-4.14,16.88-5.5,25.46c-0.24,1.54-0.64,3.05-0.97,4.58
		C340.26,413.13,340.98,411.68,340.45,411.25z"/>
	<path class="st0" d="M553.38,325.2c0.19-3.15,1.22-5.6,3.52-7.67c3.13-2.82,6.75-5.23,8.85-9.05c0.66-1.21,0.65-1.82-0.45-2.89
		c-1.23-1.2-1.9-0.48-2.71,0.11c-4.06,2.94-6.18,7.49-9.64,10.95c-1.16,1.16-2.04,2.82-3.76,1.54c-1.46-1.09,0.12-2.16,0.75-3.23
		c1.49-2.52,4.05-4.43,4.6-7.71c-5.47,0.73-10.8,1.75-16.14,3c-6.39,1.5-12.99,2.21-19.52,3.06c-2.09,0.27-3.02,1.19-3.62,3.02
		c-2.5,7.67-5.09,15.31-7.69,22.95c-0.31,0.9-0.81,1.89,0.13,2.48c0.72,0.46,1.36-0.64,1.98-0.83c6.72-2.05,13.62-3.1,20.62-1.97
		c3.48,0.56,6.58,5.8,6.12,9.32c-0.04,0.33-0.08,0.83,0.12,1.01c3.69,3.31,2.21,7.56,2.54,11.57c0.2,2.55-1.23,2.55-2.7,2.65
		c-7.42,0.48-14.85,0.89-22.28,1.22c-3.78,0.17-7.47,0.98-11.2,1.35c-2.98,0.3-3.89,1.85-4.41,4.14
		c-3.67,16.44-8.04,32.76-10.11,49.5c-0.32,2.57-0.04,5.21-0.04,8.81c-2.95-3.87-6.42-3.34-9.99-2.33
		c-0.48,0.14-1.41,0.12-1.55-0.13c-1.89-3.39-6.36-4.91-6.33-9.83c0.06-10.53,1.56-20.83,3.65-31.1c0.75-3.69,1.46-7.4,2.39-11.05
		c0.56-2.21,1.22-4.06-1.54-5.52c-1.61-0.85-0.39-1.94,0.7-2.58c0.9-0.53,2.18-0.39,2.83-1.37c0.43-0.65,0.91-1.49,0.11-2.12
		c-0.6-0.47-1.25-0.1-1.6,0.56c-0.58,1.07-1.25,2.39-2.68,1.43c-1.27-0.86-1.75-2.43-1.09-3.87c1.2-2.59,2.31-5.2,5.44-6.44
		c2.86-1.13,4.38-3.4,5.12-6.48c2.12-8.87,5.38-17.4,8.8-25.87c0.37-0.92,1.46-2.04,0.23-2.76c-0.66-0.39-1.81,0.29-2.79,0.76
		c-4.43,2.1-9.08,3.76-13.65,5.58c-0.82,0.33-1.86,0.3-2.26-0.34c-0.75-1.2,0.7-1.33,1.29-1.93c4.88-4.84,11.24-7.07,17.52-9.47
		c2.25-0.86,4.96-1.36,5.33-4.86c-6.73,2.98-13.45,5.07-19.79,8.15c-2.99,1.46-5.46,3.02-6.68,6.08c-0.52,1.32-0.74,2.96-2.86,2.22
		c-1.68-0.58-2.73-1.86-2.69-3.55c0.1-4.06,2.34-7.14,5.06-10.07c6.09-6.55,14.71-8.25,22.54-11.63
		c11.01-4.76,22.76-6.23,34.37-7.99c9.37-1.42,18.95-3.53,28.54-1.27c4.84,1.14,9.56,2.72,9.14,9.08c-0.05,0.75,0.68,1.67,1.27,2.31
		c2.58,2.76,2.61,7.47,0.18,10.35C563.28,317.3,558.03,320.89,553.38,325.2z"/>
	<path class="st0" d="M379.42,380.63c1.78,1.17,3.83,0.19,5.69,0.69c-6.12,1.46-12.2,0.66-18.3,0.63c0-0.44,0.01-0.88,0.01-1.32
		C371.02,380.63,375.22,380.63,379.42,380.63z"/>
	<path class="st0" d="M321.45,398.39c0.27,1.38,0.54,2.77,0.81,4.15c0,1.5,0,3,0,4.5C320.72,404.22,320.76,401.33,321.45,398.39z"/>
	<path class="st0" d="M340.45,411.25c0.44,0.51,0.88,1.02,1.31,1.53c0.35,1.99-1.14,3.75-0.92,5.78
		C339.2,416.21,340.71,413.67,340.45,411.25z"/>
	<path class="st0" d="M204.41,467.29c-1.7,0.16-3.3,0.06-4.26-1.61C201.78,465.7,203.63,465.18,204.41,467.29z"/>
	<path class="st0" d="M323.29,395.56c0.05-1.13-0.53-2.4,0.81-3.22c0.18-0.04,0.37-0.08,0.55-0.12c0.34,1.21-0.18,2.26-0.67,3.32
		l-0.35-0.04L323.29,395.56z"/>
	<path class="st0" d="M364.81,316.76c-0.25-0.27-0.49-0.53-0.74-0.8c0.31-0.77,0.61-1.54,1.31-3.3
		C365.63,314.8,366.05,315.86,364.81,316.76z"/>
	<path class="st0" d="M249.26,477.43c-1.25,0.19-2.23-0.08-2.65-1.38C247.93,475.73,248.76,476.28,249.26,477.43z"/>
	<path class="st0" d="M216.51,486.17c1.07,0.02,2.13,0.04,3.2,0.06c0.59,0.4,0.6,0.89,0.24,1.44
		C218.54,487.74,217.11,487.85,216.51,486.17z"/>
	<path class="st0" d="M219.95,487.68c-0.08-0.48-0.16-0.96-0.24-1.44c1.42-0.14,2.79-0.19,3.45,1.4
		C222.09,487.65,221.02,487.66,219.95,487.68z"/>
	<path class="st1" d="M184.48,446.08c-0.28,16.99-4.36,33.09-11.65,48.56c-6.12,13.01-14.17,24.81-24.81,34.48
		c-15.23,13.82-32.75,22.83-54.77,17.84c-12.87-2.91-21.04-11.31-26.77-22.22c-7.09-13.5-8.79-28.01-7.42-42.88
		c1.85-20.07,8.44-38.57,19.85-55.51c8.9-13.21,19.75-24.14,34.08-32.14c10.67-5.96,21.71-8.11,33.47-6.33
		c15.39,2.33,24.96,12.27,31.36,25.23C182.93,423.46,184.56,434.65,184.48,446.08z"/>
	<path class="st1" d="M334.81,224.03c0.14,20.56-2.99,38.26-10.93,54.91c-2.74,5.75-6.16,11.35-11.73,15.22
		c-8.08,5.61-18.15,2.94-23.27-5.21c-11.85-18.85-12.31-39.55-10.94-60.46c0.99-15.11,4.34-29.87,12.02-43.26
		c3.96-6.91,8.2-14.1,17.44-15.61c5.14-0.84,9.29,0.93,12.88,4.79c9,9.68,11.43,21.69,13.52,33.88
		C334.81,214.26,334.71,220.29,334.81,224.03z"/>
	<path class="st1" d="M322.51,467.83c-0.36,12.02-3.32,24.75-8.29,37.16c-3.59,8.95-8.52,17.07-14.73,24.47
		c-1.97,2.35-4.51,4.22-7.38,5.45c-6.84,2.93-12.03,0.57-14.8-6.31c-3.77-9.39-3.21-18.99-1.81-28.67
		c2.32-16.14,7.77-31.21,16.86-44.93c3.19-4.82,7.3-9.1,12.44-12.03c5.32-3.04,10.21-1.51,13.46,3.52
		C322.28,452.66,322.42,459.58,322.51,467.83z"/>
	<path class="st0" d="M360.19,298.33c0.82,2.34,0.33,3.6-0.99,4.82C358.56,301.44,359.97,300.38,360.19,298.33z"/>
	<path class="st0" d="M324.64,392.21l-0.3-0.04l-0.25,0.17c0-1.13,0-2.27,0-3.89C325.26,389.94,324.78,391.09,324.64,392.21z"/>
	<path class="st0" d="M500.65,317.13c-0.05,0.58,0.06,1.16-0.16,1.58c-4.77,8.93-7.41,18.64-11.09,27.97
		c-0.28,0.71-0.61,1.43-1.06,2.05c-0.46,0.63-1.08,1.3-2.02,0.99c-1.57-0.52-0.41-1.71-0.22-2.22c2.9-8.09,3.58-16.86,8.6-24.34
		C496.33,320.73,495.64,316.73,500.65,317.13z"/>
	<path class="st0" d="M473.64,417.9c-1.9-6.28-0.41-12.53,0.41-18.63c1.19-8.86,3.59-17.57,5.4-26.36c0.24-1.18,0.23-2.84,1.76-2.44
		c1.61,0.42,0.41,1.99,0.2,2.98c-2.26,10.81-4.97,21.55-6.55,32.48C474.29,409.9,474.04,413.91,473.64,417.9z"/>
	<path class="st0" d="M535.35,301.22c-7.55,0.66-14.47,4.81-22.3,3.91C520.37,303.19,527.55,300.49,535.35,301.22z"/>
	<path class="st0" d="M520.15,354.27c-5.87,1.14-11.73,2.29-17.6,3.43c-0.08-0.37-0.17-0.74-0.25-1.11
		c4.95-2.85,10.74-2.24,16.22-2.91C519.3,353.26,520.01,353.02,520.15,354.27z"/>
	<path class="st0" d="M505.77,306.55c-2.53,4.24-2.53,4.24-5.39,4.41C500.96,307.22,500.96,307.22,505.77,306.55z"/>
	<path class="st0" d="M511.26,360.77c3.15-1.23,6.59-0.72,9.8-1.52c0.38,0.57,1.37,0.11,1.62,0.89c-1.85,1.05-3.93,0.7-5.86,0.62
		c-2.15-0.1-3.8,0.82-5.57,1.62C510.78,361.85,510.77,361.31,511.26,360.77z"/>
	<path class="st0" d="M541.56,299.32c-0.57,1.48-2.07,1.54-3.52,1.57c-0.79,0.01-1.73-0.02-1.49-1.22c0.4-1.99,2.35-1.31,3.58-1.81
		C541.11,297.47,541.58,298.15,541.56,299.32z"/>
	<path class="st0" d="M484.47,359c0.26,2.35,0.59,4.22-2.49,4.89C481.99,361.83,482.23,360.21,484.47,359z"/>
	<path class="st0" d="M520.15,354.27c-0.54-0.2-1.09-0.39-1.63-0.59c2.8-1.4,5.73-0.61,8.67-0.13
		C524.85,353.79,522.5,354.03,520.15,354.27z"/>
	<path class="st0" d="M511.26,360.77c0,0.54,0,1.07,0,1.61c-0.79-0.09-2.09,0.45-2.1-0.79C509.16,360.38,510.48,360.9,511.26,360.77
		z"/>
	<path class="st0" d="M522.69,360.14c-0.55-0.28-1.5,0.11-1.62-0.89c1.44,0,2.87,0,4.49,0
		C524.72,360.55,523.53,359.73,522.69,360.14z"/>
	<path class="st0" d="M482.79,368.34c-0.62,0.47-0.98,0.93-1.44,1.06c-0.52,0.14-1.1-0.08-0.93-0.82c0.14-0.64,0.7-0.71,1.25-0.65
		C481.97,367.96,482.25,368.14,482.79,368.34z"/>
	<path class="st0" d="M501.24,363.58c1.2-0.68,2.02-0.5,3.09-0.25C503.26,364.37,502.36,364.12,501.24,363.58z"/>
</g>
</svg>
