<svg xmlns="http://www.w3.org/2000/svg" xmlns:xlink="http://www.w3.org/1999/xlink" viewBox="0 0 2121.32 2121.32"><defs><style>.cls-1{isolation:isolate;}.cls-2{opacity:0.4;}.cls-2,.cls-24,.cls-25{mix-blend-mode:screen;}.cls-3{fill:url(#linear-gradient);}.cls-4{fill:url(#linear-gradient-2);}.cls-5{fill:url(#linear-gradient-3);}.cls-6{fill:url(#linear-gradient-4);}.cls-7{fill:url(#linear-gradient-5);}.cls-8{fill:url(#linear-gradient-6);}.cls-9{fill:url(#linear-gradient-7);}.cls-10{fill:url(#linear-gradient-8);}.cls-11{fill:url(#linear-gradient-9);}.cls-12{fill:url(#linear-gradient-10);}.cls-13{fill:url(#linear-gradient-11);}.cls-14{fill:url(#linear-gradient-12);}.cls-15{fill:url(#linear-gradient-13);}.cls-16{fill:url(#linear-gradient-14);}.cls-17{fill:url(#linear-gradient-15);}.cls-18{fill:url(#linear-gradient-16);}.cls-19{fill:url(#linear-gradient-17);}.cls-20{fill:url(#linear-gradient-18);}.cls-21{fill:url(#linear-gradient-19);}.cls-22{fill:url(#linear-gradient-20);}.cls-23{fill:url(#linear-gradient-21);}.cls-24{fill:url(#linear-gradient-22);}.cls-25{opacity:0.7;fill:url(#linear-gradient-23);}.cls-26{fill:#fff;}.cls-27{fill:#f7b18a;}.cls-28{fill:#008e8e;}.cls-29{fill:#1f181a;}.cls-30{fill:#302546;}.cls-31{fill:#281e33;}.cls-32{fill:#1a2d50;}.cls-33{fill:#1e3665;}.cls-34{fill:#00a7b0;}.cls-35{fill:#f29e70;}.cls-36{fill:#d4794c;}.cls-37{fill:#432c2f;}.cls-38{fill:#30294c;}.cls-39{fill:#dedcef;}.cls-40{fill:#adaccc;}.cls-41{fill:#40386d;}.cls-42{fill:#24204a;}.cls-43{fill:#1d1933;}.cls-44{fill:#4c8ac9;opacity:0.6;}.cls-45{fill:url(#linear-gradient-24);}.cls-46{fill:url(#linear-gradient-25);}.cls-47{fill:url(#linear-gradient-26);}.cls-48{fill:url(#linear-gradient-27);}.cls-49{fill:url(#linear-gradient-28);}.cls-50{fill:url(#linear-gradient-29);}.cls-51{fill:url(#linear-gradient-30);}.cls-52{fill:url(#linear-gradient-31);}.cls-53{fill:url(#linear-gradient-32);}.cls-54{fill:url(#linear-gradient-33);}.cls-55{fill:url(#linear-gradient-34);}.cls-56{fill:url(#linear-gradient-35);}.cls-57{fill:url(#linear-gradient-36);}.cls-58{fill:url(#linear-gradient-37);}.cls-59{fill:url(#linear-gradient-38);}.cls-60{fill:url(#linear-gradient-39);}.cls-61{fill:url(#linear-gradient-40);}.cls-62{fill:url(#linear-gradient-41);}.cls-63{fill:url(#linear-gradient-42);}.cls-64{fill:url(#linear-gradient-43);}.cls-65{fill:url(#linear-gradient-44);}.cls-66{fill:url(#linear-gradient-45);}.cls-67{fill:url(#linear-gradient-46);}.cls-68{fill:url(#linear-gradient-47);}.cls-69{fill:url(#linear-gradient-48);}.cls-70{fill:url(#linear-gradient-49);}.cls-71{fill:url(#linear-gradient-50);}.cls-72{fill:url(#linear-gradient-51);}.cls-73{fill:#86cee1;}</style><linearGradient id="linear-gradient" x1="968.66" y1="1329.87" x2="1231.34" y2="1636.87" gradientUnits="userSpaceOnUse"><stop offset="0"/><stop offset="0.47" stop-color="#36b6ea"/><stop offset="1"/></linearGradient><linearGradient id="linear-gradient-2" x1="901.96" y1="1046.21" x2="1176.97" y2="1367.62" xlink:href="#linear-gradient"/><linearGradient id="linear-gradient-3" x1="1113.47" y1="1429.2" x2="1345.36" y2="1700.22" xlink:href="#linear-gradient"/><linearGradient id="linear-gradient-4" x1="901.96" y1="1203.34" x2="1176.97" y2="1524.75" xlink:href="#linear-gradient"/><linearGradient id="linear-gradient-5" x1="1692.71" y1="1826.51" x2="1801.45" y2="1953.61" xlink:href="#linear-gradient"/><linearGradient id="linear-gradient-6" x1="901.96" y1="889.09" x2="1176.97" y2="1210.5" xlink:href="#linear-gradient"/><linearGradient id="linear-gradient-7" x1="1837.51" y1="1925.84" x2="1915.47" y2="2016.95" xlink:href="#linear-gradient"/><linearGradient id="linear-gradient-8" x1="1547.89" y1="1727.18" x2="1687.43" y2="1890.27" xlink:href="#linear-gradient"/><linearGradient id="linear-gradient-9" x1="1403.09" y1="1627.86" x2="1573.4" y2="1826.91" xlink:href="#linear-gradient"/><linearGradient id="linear-gradient-10" x1="1258.28" y1="1528.53" x2="1459.38" y2="1763.57" xlink:href="#linear-gradient"/><linearGradient id="linear-gradient-11" x1="759.55" y1="389.55" x2="996.89" y2="666.93" xlink:href="#linear-gradient"/><linearGradient id="linear-gradient-12" x1="431.72" y1="216.15" x2="576.69" y2="385.59" xlink:href="#linear-gradient"/><linearGradient id="linear-gradient-13" x1="213.16" y1="100.55" x2="296.57" y2="198.03" xlink:href="#linear-gradient"/><linearGradient id="linear-gradient-14" x1="322.44" y1="158.35" x2="436.63" y2="291.81" xlink:href="#linear-gradient"/><linearGradient id="linear-gradient-15" x1="901.96" y1="731.95" x2="1176.97" y2="1053.37" xlink:href="#linear-gradient"/><linearGradient id="linear-gradient-16" x1="1982.32" y1="2025.17" x2="2029.49" y2="2080.3" xlink:href="#linear-gradient"/><linearGradient id="linear-gradient-17" x1="103.89" y1="42.75" x2="156.5" y2="104.24" xlink:href="#linear-gradient"/><linearGradient id="linear-gradient-18" x1="868.83" y1="447.36" x2="1136.95" y2="760.72" xlink:href="#linear-gradient"/><linearGradient id="linear-gradient-19" x1="901.96" y1="574.83" x2="1176.97" y2="896.24" xlink:href="#linear-gradient"/><linearGradient id="linear-gradient-20" x1="650.27" y1="331.75" x2="856.82" y2="573.15" xlink:href="#linear-gradient"/><linearGradient id="linear-gradient-21" x1="541" y1="273.95" x2="716.76" y2="479.37" xlink:href="#linear-gradient"/><linearGradient id="linear-gradient-22" x1="503.09" y1="883.69" x2="1630.61" y2="880.37" xlink:href="#linear-gradient"/><linearGradient id="linear-gradient-23" x1="538.86" y1="887.76" x2="1653.08" y2="871.13" xlink:href="#linear-gradient"/><linearGradient id="linear-gradient-24" x1="1328.43" y1="190.84" x2="1334.3" y2="563.28" gradientUnits="userSpaceOnUse"><stop offset="0" stop-color="#87c2eb"/><stop offset="0.31" stop-color="#83c0ea"/><stop offset="0.6" stop-color="#78bbe8"/><stop offset="0.88" stop-color="#65b3e4"/><stop offset="1" stop-color="#5aaee2"/></linearGradient><linearGradient id="linear-gradient-25" x1="1323.18" y1="190.84" x2="1329.08" y2="564.7" xlink:href="#linear-gradient-24"/><linearGradient id="linear-gradient-26" x1="1300.4" y1="191.23" x2="1306.29" y2="564.74" xlink:href="#linear-gradient-24"/><linearGradient id="linear-gradient-27" x1="1378.48" y1="189.74" x2="1384.37" y2="563.57" xlink:href="#linear-gradient-24"/><linearGradient id="linear-gradient-28" x1="1549.61" y1="187.28" x2="1555.5" y2="560.88" xlink:href="#linear-gradient-24"/><linearGradient id="linear-gradient-29" x1="1545.44" y1="187.36" x2="1551.33" y2="560.94" xlink:href="#linear-gradient-24"/><linearGradient id="linear-gradient-30" x1="1550.92" y1="187.27" x2="1556.81" y2="560.85" xlink:href="#linear-gradient-24"/><linearGradient id="linear-gradient-31" x1="1317.52" y1="190.95" x2="1323.42" y2="564.54" xlink:href="#linear-gradient-24"/><linearGradient id="linear-gradient-32" x1="1283.54" y1="191.47" x2="1289.43" y2="565.09" xlink:href="#linear-gradient-24"/><linearGradient id="linear-gradient-33" x1="1288.29" y1="191.5" x2="1294.18" y2="564.95" xlink:href="#linear-gradient-24"/><linearGradient id="linear-gradient-34" x1="1306.76" y1="191.15" x2="1312.66" y2="564.69" xlink:href="#linear-gradient-24"/><linearGradient id="linear-gradient-35" x1="1381.53" y1="189.91" x2="1387.43" y2="563.99" xlink:href="#linear-gradient-24"/><linearGradient id="linear-gradient-36" x1="1368.46" y1="190.15" x2="1374.35" y2="563.65" xlink:href="#linear-gradient-24"/><linearGradient id="linear-gradient-37" x1="1356.79" y1="190.33" x2="1362.68" y2="563.9" xlink:href="#linear-gradient-24"/><linearGradient id="linear-gradient-38" x1="1378.51" y1="189.99" x2="1384.4" y2="563.44" xlink:href="#linear-gradient-24"/><linearGradient id="linear-gradient-39" x1="1374.18" y1="190.05" x2="1380.08" y2="563.72" xlink:href="#linear-gradient-24"/><linearGradient id="linear-gradient-40" x1="1371.38" y1="190.1" x2="1377.27" y2="563.66" xlink:href="#linear-gradient-24"/><linearGradient id="linear-gradient-41" x1="1374.77" y1="190.04" x2="1380.66" y2="563.72" xlink:href="#linear-gradient-24"/><linearGradient id="linear-gradient-42" x1="1370.18" y1="190.1" x2="1376.08" y2="563.91" xlink:href="#linear-gradient-24"/><linearGradient id="linear-gradient-43" x1="1384.68" y1="189.88" x2="1390.58" y2="563.52" xlink:href="#linear-gradient-24"/><linearGradient id="linear-gradient-44" x1="1385.61" y1="189.85" x2="1391.5" y2="563.8" xlink:href="#linear-gradient-24"/><linearGradient id="linear-gradient-45" x1="1392.03" y1="189.78" x2="1397.92" y2="563.21" xlink:href="#linear-gradient-24"/><linearGradient id="linear-gradient-46" x1="1391.2" y1="189.78" x2="1397.09" y2="563.37" xlink:href="#linear-gradient-24"/><linearGradient id="linear-gradient-47" x1="1402.9" y1="189.59" x2="1408.79" y2="563.22" xlink:href="#linear-gradient-24"/><linearGradient id="linear-gradient-48" x1="1522.82" y1="187.71" x2="1528.72" y2="561.3" xlink:href="#linear-gradient-24"/><linearGradient id="linear-gradient-49" x1="1499.13" y1="188.08" x2="1505.02" y2="561.67" xlink:href="#linear-gradient-24"/><linearGradient id="linear-gradient-50" x1="1496.3" y1="188.11" x2="1502.2" y2="561.77" xlink:href="#linear-gradient-24"/><linearGradient id="linear-gradient-51" x1="1451.5" y1="188.83" x2="1457.39" y2="562.45" xlink:href="#linear-gradient-24"/></defs><title>mundo</title><g class="cls-1"><g id="Capa_2" data-name="Capa 2"><g id="Capa_1-2" data-name="Capa 1"><g class="cls-2"><polygon class="cls-3" points="101.78 2121.32 158.69 2121.32 2121.32 907.63 2121.32 872.43 101.78 2121.32"/><polygon class="cls-4" points="0 1870.01 0 1905.2 2121.32 593.37 2121.32 558.18 0 1870.01"/><polygon class="cls-5" points="355.87 2121.32 412.78 2121.32 2121.32 1064.76 2121.32 1029.56 355.87 2121.32"/><polygon class="cls-6" points="0 2027.13 0 2062.33 2121.32 750.5 2121.32 715.3 0 2027.13"/><polygon class="cls-7" points="1372.21 2121.32 1429.12 2121.32 2121.32 1693.27 2121.32 1658.07 1372.21 2121.32"/><polygon class="cls-8" points="0 1712.88 0 1748.08 2121.32 436.24 2121.32 401.05 0 1712.88"/><polygon class="cls-9" points="2121.32 1815.19 1626.3 2121.32 1683.21 2121.32 2121.32 1850.39 2121.32 1815.19"/><polygon class="cls-10" points="1118.12 2121.32 1175.04 2121.32 2121.32 1536.14 2121.32 1500.94 1118.12 2121.32"/><polygon class="cls-11" points="864.04 2121.32 920.95 2121.32 2121.32 1379.01 2121.32 1343.81 864.04 2121.32"/><polygon class="cls-12" points="609.95 2121.32 666.87 2121.32 2121.32 1221.88 2121.32 1186.69 609.95 2121.32"/><polygon class="cls-13" points="0 1084.36 0 1119.56 1810.4 0 1753.49 0 0 1084.36"/><polygon class="cls-14" points="0 612.98 0 648.18 1048.14 0 991.23 0 0 612.98"/><polygon class="cls-15" points="0 298.73 0 333.92 539.97 0 483.06 0 0 298.73"/><polygon class="cls-16" points="0 455.85 0 491.05 794.06 0 737.14 0 0 455.85"/><polygon class="cls-17" points="0 1555.75 0 1590.94 2121.32 279.11 2121.32 243.91 0 1555.75"/><polygon class="cls-18" points="2121.32 1972.33 1880.38 2121.32 1937.3 2121.32 2121.32 2007.53 2121.32 1972.33"/><polygon class="cls-19" points="0 141.6 0 176.79 285.88 0 228.97 0 0 141.6"/><polygon class="cls-20" points="0 1241.5 0 1276.69 2064.49 0 2007.57 0 0 1241.5"/><polygon class="cls-21" points="0 1398.63 0 1433.82 2121.32 121.99 2121.32 86.79 0 1398.63"/><polygon class="cls-22" points="0 927.23 0 962.43 1556.32 0 1499.4 0 0 927.23"/><polygon class="cls-23" points="0 770.11 0 805.31 1302.23 0 1245.31 0 0 770.11"/></g><polygon class="cls-24" points="1437.34 1765.11 1905.71 0.01 337.34 0.01 683.98 1765.11 1437.34 1765.11"/><polygon class="cls-25" points="1437.34 1765.11 1905.71 0.01 337.34 0.01 683.98 1765.11 1437.34 1765.11"/><path class="cls-26" d="M1328.9,1884.16c-145.1,61.2-383.73,58.72-533-5.54s-149.25-163.51,0-221.67,387.91-55.7,533,5.55S1474,1822.93,1328.9,1884.16Z"/><path class="cls-26" d="M204.22,834.85c-13.68-26.12-20.49-52.89-20-80,1.67-95.25,93.73-183.21,259.22-247.69,162.16-63.18,376-98,602.11-98,243.3,0,470.6,39.39,640,110.9,162.48,68.55,252,159.31,252,255.59a161.58,161.58,0,0,1-11.5,59.13h7.43a167.58,167.58,0,0,0,11-59.13c0-99.26-91-192.31-256.22-262C1518,441.85,1289.76,402.27,1045.54,402.27c-227,0-441.69,35-604.63,98.46C272.61,566.3,179,656.52,177.25,754.79c-.48,27.12,6.08,53.92,19.22,80.06Z"/><path class="cls-26" d="M284.83,1078.38c-12.39-23.66-18.56-47.92-18.13-72.43,1.51-86.28,84.91-166,234.84-224.37,146.89-57.24,340.6-88.76,545.44-88.76,220.41,0,426.31,35.67,579.77,100.45C1774,855.37,1855,937.59,1855,1024.82a146.33,146.33,0,0,1-10.41,53.56h6.73a151.71,151.71,0,0,0,10-53.56c0-89.92-82.43-174.21-232.11-237.36-154.22-65.1-361-101-582.23-101-205.61,0-400.13,31.67-547.74,89.19C346.78,835.09,262,916.83,260.39,1005.85c-.43,24.57,5.52,48.85,17.42,72.53Z"/><path class="cls-26" d="M334,1419c-11.61-22.16-17.39-44.87-17-67.83,1.42-80.82,79.53-155.46,220-210.16,137.59-53.62,319-83.14,510.89-83.14,206.44,0,399.3,33.41,543,94.09,137.87,58.16,213.8,135.18,213.8,216.87A136.92,136.92,0,0,1,1795,1419h6.3a142.17,142.17,0,0,0,9.36-50.17c0-84.21-77.22-163.17-217.41-222.32-144.45-61-338.13-94.55-545.34-94.55-192.58,0-374.78,29.67-513,83.54C392,1191.14,312.57,1267.7,311.11,1351.07c-.4,23,5.17,45.77,16.32,67.94Z"/><path class="cls-27" d="M1192.23,666.48l92.59,69.95s14.49,11.15,21.23,20.64c9.57,13.48,11.25,27.54,0,35.42,0,0,7,20.33-133.44-60.27Z"/><path class="cls-28" d="M1273.93,716.8,1174.78,649s-30.33-24.34-59.36-4.42c-26.15,18-14.35,58.09,1.08,69.75,10.82,8.18,74.29,45.06,127.14,62.12C1243.64,776.41,1277.88,747.87,1273.93,716.8Z"/><polygon class="cls-29" points="1073.63 1705.06 1092.15 1699.75 1076.22 1687.44 1071.32 1698.49 1073.63 1705.06"/><path class="cls-30" d="M1073.53,1701l.09,4.1L1042,1693.51s-7.18-48,3.66-72.66l61.55,5.88,9,24.6s37.92,31.2,63.63,47.31c0,0,17,9.78,15.45,22.83,0,0-4.93,23.88-43.8,11.19,0,0-27.52-9.64-46.87-17.72C1104.69,1714.94,1083.69,1699.38,1073.53,1701Z"/><path class="cls-31" d="M1073.53,1701c10.16-1.58,31.16,14,31.16,14,19.35,8.08,46.87,17.72,46.87,17.72,38.87,12.69,43.8-11.19,43.8-11.19a15.56,15.56,0,0,0-1.45-8.18c-14.41,20.57-132.08-46.64-113-46.64,11.12,0,26.76-6.36,39-12.32-2.32-1.89-3.66-3-3.66-3l-9-24.6-61.55-5.88c-10.84,24.62-3.66,72.66-3.66,72.66l31.59,11.55Z"/><path class="cls-32" d="M1039.7,1182.11s25.28,139.05,28.84,152.63,7.31,68.49,7.31,68.49-16.64,57.57-18.49,71.69-21.43,158.49-21.43,158.49,9.08,29.57,81.65-1.68c0,0,24.81-150.31,37.93-209.63,14.19-64.15,10.44-235.27,12-276.21,2-51.32-3-99.62-3-99.62Z"/><polygon class="cls-29" points="986.2 1772.76 1004.73 1767.44 988.79 1755.13 983.9 1766.18 986.2 1772.76"/><path class="cls-30" d="M950.26,1768.66l.1,4.1-31.59-11.56s-7.18-48,3.65-72.65l61.56,5.88,9,24.6s37.92,31.2,63.63,47.29c0,0,17,9.78,15.45,22.84,0,0-4.93,23.88-43.79,11.21,0,0-27.52-9.65-46.88-17.74C981.42,1782.63,960.42,1767.07,950.26,1768.66Z"/><path class="cls-31" d="M950.26,1768.66c10.16-1.59,31.16,14,31.16,14,19.36,8.09,46.88,17.74,46.88,17.74,38.86,12.67,43.79-11.21,43.79-11.21a15.59,15.59,0,0,0-1.45-8.18c-14.4,20.59-132.07-46.64-113-46.64,11.11,0,26.75-6.36,39-12.33-2.33-1.88-3.67-3-3.67-3l-9-24.6-61.56-5.88c-10.83,24.63-3.65,72.65-3.65,72.65l31.59,11.56Z"/><path class="cls-33" d="M901.18,1705.06s30.09,20.34,93.13,0c0,0-4.49-191.31,17.76-254.7,0,0,33.21-60,36.23-82.6s51.77-201.55,60.65-222.49c5.47-12.89,33.84-99.77,32.33-118.57S951,1062.05,951,1062.05s3.81,12.27,1.7,74.78c-2.47,72.94-12.58,201.24-16.1,207.28,0,0-21.26,59.37-30.19,100.63C902.15,1464.47,901.18,1705.06,901.18,1705.06Z"/><path class="cls-34" d="M939,703.65s-6.66-10.12,65.64-47.31c13.94-7.17,96.72-18.13,128.62-18.85,18.74-.43,55,87.82,36.47,191,0,0,6.25,193.68,6.25,237.45,0,0-46.82,42.68-123.31,42.66,0,0-67.26-5.37-108.82-46.25,0,0,8.36-55.72,11.37-117.1,0,0,7.11-77.16-5.92-113.57C940.55,807.13,909.8,717.4,939,703.65Z"/><path class="cls-27" d="M976.79,824.23l-28.28,160.3s-24.13,5.8-31.75-3.1l7.38-160.86Z"/><path class="cls-35" d="M1091.08,635.34s-.08,25.35,3.55,48.39c0,0-8.3,16.33-15.15,19.92,0,0-52.91-12.79-74.82-47.31,0,0,13.88-34.09,1.76-90.91l9.79-4.59Z"/><path class="cls-36" d="M1004.66,656.34c6.11,9.62,14.64,17.5,23.75,23.94-5.32-16.74-7.34-56.26-7.34-56.26,24,20,56.23,31.34,70.86,34.72-.11-12.2-.85-23.4-.85-23.4l-74.87-74.5-9.79,4.59C1018.54,622.25,1004.66,656.34,1004.66,656.34Z"/><path class="cls-27" d="M1124,493.27l5.83,44.28s.28,43.2-3.21,62.5c0,0-5.35,36.58-12.31,44.41a37.57,37.57,0,0,1-27.39,3.49c-11.62-2.91-45.35-14.72-58.15-34.65,0,0-16.32-27.9-16.06-36.6,0,0-3.59,8.25-9.52-2.18s-8.33-30.47-6.58-36.56,9.86-3.48,11.75-3.48,4.8,2.61,6.37,8.71-6.42-41.35,6.16-57.46C1039.27,462.23,1095.85,451.79,1124,493.27Z"/><path class="cls-37" d="M1012.71,539.89s2.36,16.44,5.24,17.88,6.49-5.62,5.43-10.17,10.62-20.71,12.55-40.17l31.82,2.37c19,1.43,46.48,4.29,57.52-7,3.1-3.19-.4-31.2-9-37.65,0,0-33.37-34.49-103.39-20.33,0,0-45.29,6.49-36.64,88.6A162,162,0,0,0,997,579.59a84.73,84.73,0,0,1,14.24,39.57s5.28-25.38,1.54-42.46c0,0-7,14.67-15-18.27,0,0-4.05-21.5,3.66-24.38C1001.38,534.05,1009.59,532.29,1012.71,539.89Z"/><path class="cls-34" d="M980.5,857.71l25.29-117.46s11.05-37.28-18.37-56.61c-26.51-17.43-64.11,10.22-68.33,39.68-1.92,13.43-9.44,73.52-5.23,128.89C913.86,852.21,953.23,873.11,980.5,857.71Z"/><path class="cls-38" d="M1141.88,524.76l-13-10.64s-10.63-2-21.39,9.74c0,0-3.49,7.21-23.67,4.14-18.15-2.76-29.16,1.86-31.45,3.41,0,0-17.1,10.62-7.06,43.72l9.25,7.59Z"/><path class="cls-38" d="M1070.93,557.1l86-20.9a4.23,4.23,0,0,1,2.06.59h0l.17.12,6.37,4.52-5.94,4.26-1.38,26.82a5.34,5.34,0,0,1-2.44,1.8c-1.17.46-46.79,11.68-68.46,17.1l-12.92,9.24-5.53-4.64c-.09,0-1.5-1.07-1.35-4l1.62-32.85S1068.86,557.61,1070.93,557.1Z"/><path class="cls-39" d="M1054.5,541.94l85.3-20.9a4.15,4.15,0,0,1,2.06.6h0a1,1,0,0,0,.17.12l23.88,19.5-16,7.91-13.26,4.57a5.36,5.36,0,0,1-2.45,1.79c-1.16.46-23.54,31.19-45.21,36.6l-14.66,8.53-22.06-17.77c-.09,0-1.5-1.07-1.35-4l1.72-34.88S1052.43,542.44,1054.5,541.94Z"/><path class="cls-40" d="M1082.09,596.18l-7.71,4.48-22.06-17.77c-.09,0-1.5-1.07-1.35-4l1.72-34.88a1.82,1.82,0,0,1,.15-.9l26,22.59Z"/><path class="cls-41" d="M1166.71,544l-1.7,33.37a5.36,5.36,0,0,1-2.45,1.79c-1.74.68-87.7,21.81-87.7,21.81s-1.56-.23-1.36-4l1.68-32.87s-.13-1.56,1.93-2.07l86.62-21S1167.11,541,1166.71,544Z"/><path class="cls-42" d="M1163.54,545.81,1162,576.9a5,5,0,0,1-2.28,1.67c-1.62.64-81.73,20.32-81.73,20.32s-1.44-.2-1.27-3.69l1.57-30.63s-.13-1.46,1.8-1.93l80.71-19.58S1163.91,543,1163.54,545.81Z"/><polygon class="cls-39" points="1044.69 568.63 1049.86 572.16 1051.15 547.11 1046 542.94 1044.69 568.63"/><path class="cls-43" d="M977,491s27.7,30.33,71.77,57.87l-.94,19.59s-51.16-32.52-72.7-58.87A101.14,101.14,0,0,1,977,491Z"/><path class="cls-27" d="M1274.25,781.18s76.76-142.13,87.83-170.79c0,0,16.91-12.66,23.13,8,0,0-47.88,145.73-58.53,162.68C1312.07,804.25,1286.89,795.11,1274.25,781.18Z"/><path class="cls-27" d="M951.27,968.51s6,35.39,5.44,83.58c-.36,32.37-5.49,97.2-5.49,97.2l-13.42,1.37s-20.41-100.36-21-169.23Z"/><path class="cls-27" d="M937.12,1222.77c-1.52-6.22-1.94-31.41-.31-46.09.91-8.32-7.9-76.45-8.47-79.51,2-1,22.36-30.26,28.41-30.24.38,6.07,0,89.82,0,89.82.91,1.13,12.3,12.44,17.41,29,3.78,12.26,7,21.59,8.79,26.22s-1.57,5.84-1.57,5.84c-4.79-1-11.88-14.9-12.66-16.58,1.32,3.56,4.35,16.77,4.35,16.77s6.94,31.73,5.44,32.55-3.43-.13-4.94-3.43-8.9-29.59-9.18-31-.68-3-1.51-3,10.28,43.17,9.32,43.71c0,0-.13,2.75-2.05,2.89s-2.88,0-4-4c-1-3.5-11.1-38.37-11.1-38.37s-.82-1.64-1.78.27,8.09,39.6,8.09,39.6,1.37,3.16-1,4.39-4.25,1-5.49-3.28c0,0-8.63-36.05-9.59-35.91s-.27,2.2-.27,2.2l4.25,33.16a3.25,3.25,0,0,1-3.29,3.28c-3.15.27-4.43-10.92-4.43-10.92Z"/><path class="cls-27" d="M1404.84,595l-9.38-5c-10.36-4.76-15.73-1.18-15.73-1.18-11.25-1.29-15.18,3.79-18.16,12.84-3.23,9.84-4.75,15.76-1.94,19,3.82,4.41,36.42,5.78,50.08,4.54,9.49-.86,11.44-5.61,11.44-5.61s6.69-1.08,8.63-2.38a33.55,33.55,0,0,0,4.54-4.1s2.58.21,3.88-1.29,8.41-14.9,8.41-14.9,4.75-7.33,2-7.76-6.48,3.45-7.56,5c0,0,5-14,3.46-15.55-2.6-2.58-6.26,1.73-6.69,3.25a53.15,53.15,0,0,1-2.6,5.61s3.24-12.31.87-14-3.89.9-6.69,6.7c0,0-3.45,7.55-4.53,10.57,0,0,2.37-11,2.58-12.95s1.08-8.2-1.94-7.33-6.57,10.94-7.77,14.89C1416.23,590.09,1410.41,591.41,1404.84,595Z"/><path class="cls-44" d="M1596.2,389.55c0,105.86-85.83,191.69-191.7,191.69s-191.7-85.83-191.7-191.69,85.83-191.7,191.7-191.7S1596.2,283.68,1596.2,389.55Z"/><g class="cls-1"><g class="cls-1"><path class="cls-45" d="M1327.7,213.88l.11,0-.09,0c.08,0,1.89-.8,2.15-.92a1,1,0,0,0-.18.06l.06,0-2,.88h0"/><path class="cls-46" d="M1320,217.45l.17-.07,0,0,.15-.07.22-.1.25-.13.3-.13.28-.12.26-.13.22-.1c1.27-.57,2.5-1.2,3.76-1.77l-.07,0a15.68,15.68,0,0,1,1.67-.77l-7.43,3.48.17-.1"/><path class="cls-47" d="M1290.52,235.46c-1.39.95-1.39.95-5.13,4.94.79-.15,1.29-.77,1.94-1.15-.19.49-.68.78-.87,1.27.58,0,4.51-3.63,4.63-3.92-.3,0-.3,0-1.64.81.3-.34.67-.61,1-.93a1.68,1.68,0,0,0-.54.16c.61-1,1.74-1.34,2.45-2.18a3,3,0,0,0-.49.2,42.54,42.54,0,0,1,3.53-2.61c-.45.41-1,.76-1.41,1.16,2.94-1.4,5.26-3.72,8-5.42a2.4,2.4,0,0,1-.23.38c.28,0,.28,0,6.71-4l-.47.23c2.6-2.17,6-3.06,8.61-5.12-.41.16-.81.38-1.21.57l.84-.48c-4.66,2.61-10.86,6.14-15.41,8.95l-10.32,7.15h0"/><path class="cls-48" d="M1397.33,577.3a6.59,6.59,0,0,0,.71-.34,4.89,4.89,0,0,0-1.14.22c.25-.18.53-.29.78-.46a18.14,18.14,0,0,0-2.81.93,7.1,7.1,0,0,0,1-.49c-.38,0-1.63,0-1.87.66-.34.11-3.27.68-3.91.75,1.1-.41,2.3-.44,3.39-.88h-.21c-.56,0-5.31.8-5.34.81-3,.56-6.14-.16-9.2.4,1.14.88,2.36.07,3.54.18-2,.45-4-.27-6-.27a1.27,1.27,0,0,0,.52.17,28.3,28.3,0,0,1-3.72-.37l.14,0c-.44-.08-2.07-.28-2.08-.28l.81.18c-.23,0-.47-.06-.71-.1,1.6.26,3.72.63,5.32.86l.82.12c3,.41,6.41.89,8,.54a3.36,3.36,0,0,1-.63-.13c9.91-1.34,10.75-1.71,12.59-2.49"/><path class="cls-49" d="M1590,387.84c-.42,49.08-.47,54.2-10.11,74.52-16.71,35.21-16.71,35.21-64.11,81.82l.9-.07c-.27.27-.27.27-4.89,3.69,3.42-1.67,7.79-4.75,14.61-10.3l6.13-5.28c12.64-12.19,14-13.47,21.76-23,11.1-15,11.77-15.9,17.5-26,8.64-16.86,9.15-17.87,13.05-28.49,5.95-18.74,6.19-19.47,8.26-30.58,2.76-19.52,3-21.11,3.13-34.28-.21-5.57-.37-13-.85-18.57.72,8.64.72,8.64-.28,21.67-.88-1.9-.66-4.07-1.43-6l-1-.19c-.72-1.5.21-3.56-1.57-4.7l-.84.33c-.09,1.62-.28,3.78-.3,5.41"/><path class="cls-50" d="M1571.84,323.29l.83-.12c1.31,1.1,2.14,2.62,3.32,3.85,1.76-.13,1.76-.13,2.61.5,0-.29,0-.68,0-1l.76.37c0-.09,0-.09-.59-6.51,1.4,2,2,4.45,3.71,6.22-.49-6.75-.49-6.75-1.51-9.55a8.06,8.06,0,0,1,1.32,2.29c-.06-.24-.13-.56-.19-.8,1.77,3.43,2.4,6.76,4.1,15.67-.58-1.51-.86-3.13-1.57-4.61.79,5.81.79,5.81.72,5.91-.46-.29-.46-.29-5.24-11.43.43,2.64,1.19,5.23,1.45,7.9a7,7,0,0,1-1.36-1.35c-1.24,3.68-1.46,4.34,5.78,27.14,2.92,9.18,6.84,18,8.81,27.5.87-2.95.87-2.95-.53-23.57l-.66-4.19c-4.13-19.74-4.21-20.12-7.84-30.73-7.06-18.09-7.34-18.8-12.64-28.65C1563.35,281.69,1563,281.05,1556,272c-11.89-14.17-12.6-15-21.39-23.26-11.35-9.77-18.84-16.23-35.53-26,35.87,20.37,62.36,56,72.75,100.52"/><path class="cls-51" d="M1545.54,508.65l.39-.35a3.25,3.25,0,0,0-.39.35h0m17.82-33.23c.05-.09,6.78-10.74,6.8-10.76s0,.22.08.31-2.3,9.62-2.88,10.51c-2.29,3.56-2.29,3.56-2.37,3.85a.6.6,0,0,0,.24.78c.48.37.5,1.21,0,2.49-.65,1.81-1.6,3.45-4.14,7.49l-.25.37c-1.41,2-3.2,3.6-4.72,5.47-1.76,2.16-2.32,5-4.26,7.1-.07.08-7.88,8.2-10.8,8.35.09-.65.09-.74,3.19-4.67,4.92-6.23,6.17-8.68,6.77-9.87,1.26-2.46,3.74-3.92,5.24-6.18s1.83-5,3.1-7.31c.6-1.12,1.75-1.82,2.31-3a5.63,5.63,0,0,0,.52-2.08c.07-.59.1-.94,1.14-2.88"/></g><g class="cls-1"><path class="cls-52" d="M1418.35,524c-.72,2.8-.72,2.8-8.88,8.61l1,1.61c-.15.61-.35,1.42-.51,2a30.06,30.06,0,0,0-4.08,1.66,9.24,9.24,0,0,0,1.67,3.66c-8.49,20.84-8.49,20.84-19,19.22-2.06,3.32-2.06,3.32-4.82,3.59.14,1.28.39,3,.63,4.26-3.27,3-3.27,3-4,4.84l-2,.36a7.1,7.1,0,0,1-1.81,3.17l-2.19-.17,1.83,1H1374c4.71,1.57,4.71,1.57,5.42,1.84l-2-.26-.82-.12-5.32-.86-1.85-.37-1.18-.24h0C1355.71,575,1347.8,567,1342,561.1c.13-2.81-1.64-5.52-5.27-8.08.36-.51.82-1.2,1.19-1.72a23.21,23.21,0,0,0-2.87-2.91c-.41-5-10.57-8.57-10.67-8.59-.17-.61-.39-1.43-.56-2-5.82-2.11-9-3.27-26.14-26.18.12-.63.3-1.47.42-2.1l-1.44-1.22-1.78.66c-3.15-2.52-3.12-2.71-2.38-7.45a17.51,17.51,0,0,0,3.42-2.33c-2.39-1-5.25-.73-7.35-2.57l1.5-1.29a27.23,27.23,0,0,1-1.24-7.85l2-.45c0-.62,0-1.45,0-2.08l1.94.48a12.21,12.21,0,0,0-.58-4.41l1.9-1a6.46,6.46,0,0,0-1.62-3.53,10.83,10.83,0,0,1,2.81-3.18c-1.11-2.51-1.56-3.55-7.49-10.07-.26.52-.61,1.2-.87,1.7.21.58.5,1.35.72,1.93l-1.78.7c-2-1.05-3-3.13-4.64-4.49l-1.89.49-1.93-1.16a32.91,32.91,0,0,0,.32-4.44l-1.48-1.43c-4.08.15-4.08.15-5.63-1.19a29.72,29.72,0,0,1,3.66-2.22c.16-.82.37-1.93.53-2.76a9.26,9.26,0,0,0-2.59,2.91c-4.66-2.06-4.68-2.38-5.21-11a43.49,43.49,0,0,0-7.53-2.66c-1.69-4.4-4.1-8.47-6.07-12.73l-1.89-.11a7.47,7.47,0,0,1-2.39,2.84c-1.36-.63-1.36-.63-9.75-9.27,1.91-7.87-5.19-12.66-6.62-19.38-1.51-7.08-.34-14.32-1.28-21.43-1.19-9.06.31-18.22-1-27.27-2.35,3.68-2.1,33.13-1.53,38.15-4.67-3.18-4.33-25.9-4.29-26.1.34.48.79,1.13,1.13,1.6,1.83-4.63,3.3-26.85,3.3-27.07-.48-.45-1.12-1.05-1.61-1.49,1.89-14.69,1.89-14.69,24.91-54.3.55-.07,1.3-.14,1.85-.2,38.51-48.06,38.51-48.06,42-50.6-2,1.16-4,2.41-6,3.48,2.74-2.08,2.74-2.08,10.66-7-2.21,1.06-3.43,1.64-10.36,6.62l10.32-7.15c4.59-2.76,10.72-6.4,15.41-8.95l3.87-1.91-.26.1,7.43-3.48.41-.19,2-.88c-1,.51-2.47,1.18-3.53,1.68,14.1-6,14.1-6,19.58-5.92-8.46,4.74-8.46,4.74-17.79,10.6,2.15-.14,3.8-1.66,5.83-2.14l-1.55,1.24,2.37-.44c-.54.45-1.25,1.07-1.79,1.53a21.3,21.3,0,0,0,4.28-1.14,33.45,33.45,0,0,1-3.87,2.59l2-.57c-2.3,1.47-3.38,4.14-5.64,5.66,0,.59,0,1.37,0,2l-1.85,1c.48.34,1.11.79,1.58,1.14l-1.18,1.67c1.62-.15,1.62-.15,9.8-3.31a13.83,13.83,0,0,1-6.1-.2c3.93-6.07,3.93-6.07,18-11.14-3.51.36-6.69,2.17-10.27,2.27,4.85-3.32,15.61-7.74,20-6.81a75.35,75.35,0,0,0-8.47,6.49c1.18-.36,2.75-.86,3.91-1.26-1.85,1.16-3.77,2.21-5.65,3.35,3-1,5.71-2.39,8.68-3.28-.13.12-18.89,12.7-23.65,12.83-.46,1-1,2.45-1.44,3.52,3.78-.1,3.78-.1,5.91-.66.8-1.72.8-1.72,6.52-4.62-.47,2.3-.47,2.3-4,4.56,11.2-.05,15.94-11.49,25.48-14.47l1.44,1.18c-15.76,8.34-15.76,8.34-19.52,12.44l1.91-.05c-.23.83-.23.83-5.23,5.82,0,.56,0,1.31,0,1.87.09-.08,9.52-7.86,9.53-11.15,9-8.33,15.17-8.16,15.43-8.15-.53.52-.53.52-5.55,3.39,2.06-.36,3.86-1.43,5.81-2.07l1.43,1.32,2.14-.76a38.13,38.13,0,0,1-2.45,5.45c.3.48.71,1.12,1,1.61l-.91,1.83,1.75.69a14.45,14.45,0,0,1-2.58,2.94l2,.22c-3.87,3.29-3.87,3.29-4.3,4.54,2.55,1.82,2.83,2.43,3.61,4.74,1.15.28,2.67.67,3.81,1-2.35,3-5.62,5.13-7.92,8.21-.33-.41-.33-.41-2.72-6l-2,.75c1.75,7.45,1.75,7.45-1.93,11.34a6.92,6.92,0,0,1-2.25-3c-.76,2.62,1,5.07.55,7.67l-2,.54c-1-.76-2.28-1.75-3.3-2.45-.21-1.87-.21-1.87-2.77-5.24.63-3.36.34-3.74-1.08-5.58-1.14-.11-2.65-.35-3.77-.58a10.64,10.64,0,0,1,3.38-3.23l1.24,1.62c.79-.35.79-.35,8.47-6.71a8.13,8.13,0,0,1,1-3.56l-1.8-.55a53.65,53.65,0,0,1,3.16-5.49,22.39,22.39,0,0,1-3.91-.43c-6.57,8.5-6.57,8.5-16.77,11.81a39.25,39.25,0,0,0,.57,8.25c-.32.59-.75,1.38-1.08,2l-1.89.47-.73-2c-2.13.16-4,1.44-6.08,1.59.23-.53.56-1.25.8-1.78l-1.66-.91c2.35-2.47,5.45-4,8-6.15-3.48.2-5,4.61-8.78,4.14-4.82,3.87-4.82,3.87-7.15,3.16-10.71,6.77-10.71,6.77-13.95,9.8l1.66.89c-.22,3.92-.32,4-2.58,5.67a5.69,5.69,0,0,0,2.69,2.46c.54,2,.54,2,2.7,5.5-.29.53-.67,1.24-1,1.76l1.19,1.81c1.14.19,2.65.47,3.79.71a11.21,11.21,0,0,1-1.87,4.13c.84,2.26.84,2.26-2.85,6.5.45,1,.45,1,1.53,6.26l1.81.51c1.67-3.15,2.82-6.58,5-9.45-2.65-6.24,9.68-11.76,9.81-11.81l.33-1.95c-.46-.53-1.07-1.24-1.54-1.76l13.07-17c2.45,3.84,3.93,3.59,6.17,3.21,0,1.2-.06,2.81,0,4a10.37,10.37,0,0,0,3.67-1.43c-1.37,3.78-5.11,6.57-4.6,11.12,5,1.29,6.23-4.95,10.43-5.34.54,2.74.18,16.45-.55,21.25,7.73,3,7.73,3,5.36,21.78,1.55.56,1.55.56,5.85.07a6.3,6.3,0,0,1-.8,3.58c6.12,15.45-4.91,10.57-5,10.5a6.76,6.76,0,0,1-1.27-1.39c.38-.59.87-1.39,1.25-2l-1.7-.89-1.82.69c-2.07-1-2.07-1-5.88-1l-1.35-1.53c7-6,8.17-15.17,8.16-15.24-2.55,1.35-4.18,3.93-6.84,5.13a10.53,10.53,0,0,1-3.25-2.64l-1,1.6a38.55,38.55,0,0,1,1.66,3.57l-1.21,1.46c-15.52-4-15.52-4-16-.85,8.61,1.1,8.61,1.1,10.1,2.13-1.36,2.61-4.73,3.79-5.08,7.12a7.06,7.06,0,0,0,3.69,1.37,9.29,9.29,0,0,0,3.16,2.62c3-3.78,3-3.78,4.68-4.17,2.37,3.43,2.37,3.43,2.13,5.54-4.21,1.75-22.25,8.19-22.27,8.19,1.59-3.37,5-4.89,7.42-7.45l-1.86-.57c-5,3.83-11.89,3.75-16.69,8,.57,8.73.57,8.73-5.17,7-2.91,3.5-3.22,8.7-7.41,11.37l-1.51-1.35a12,12,0,0,0-.55-4.12,17.44,17.44,0,0,0-3.49,2.8c.35,2.8.46,3.63,3.52,5.5,0,1.16,0,1.16-19.06,21.94-6.31,6.87-.09,10.58,9.33,16.2a18.07,18.07,0,0,1-.54,4.51c-.2,0-4.84-.8-6.63-4.71l-1.69,1c.3,3.9.3,3.9-.93,6a10.21,10.21,0,0,1-3.73-1.48c-1.42-12.82-2.44-22.09-14.06-25.4-.53,2.4-.69,3.13,1.72,5.34a8.19,8.19,0,0,1-2.74,3.15c-4-2.24-4-2.24-5.69-10.69-.64-.2-.64-.2-6-.06l-10.7,24.08L1255,419.36a24,24,0,0,1,1.62-4l1.86-.18c.78-2.23.14-4.76,1.49-6.87a41,41,0,0,1,6.85-.73c3.33,7.72,3.33,7.72-3,23.19,3.63,5.58,10.84,3.39,15.34,7.08.75,19.21.75,19.21,3.23,23.2,4.46-2.19,8.79,1.26,13.23.34a21.89,21.89,0,0,1,2.57-5.63c1.43.07,3.32.18,4.74.32,1.53-1.37,2.59-3.24,4.56-4.12a9.06,9.06,0,0,1,3,2.77c-1.22,2.52-3.49,4.16-5.23,6.25.82,3.17.82,3.17,4.4,4.57l1.12-1.7c-2.3-2.92-1.9-4-.93-5.77,5.95-.28,9.17,7.07,15.56,5.55,5.18-1.24,9.57-4.78,15-5.13.07.58.18,1.35.25,1.93-.91,1-.91,1-6.51,3-.28.58-.67,1.37-1,2a8.43,8.43,0,0,0,3.8.4c.46.38,1.1.88,1.57,1.25l-1.36,1.95c.22.6.51,1.4.72,2,8,1.44,10.78,11.9,19.89,11.33,8.93-.56,10.1,9.38,16.52,12.21.26,4.6-1.08,5-8.5,6.95v2.12c3.39,1,7.07.9,10.35,2.41a10.87,10.87,0,0,1,2.37-3.63c.26,0,30.86,8.16,36.37,13.2-.33,3.37,4.09,4.88,3.31,8.42"/><path class="cls-53" d="M1301.55,424.49c-1,.25-3.6-.76-4.36-1.07s-.78-.32-4.69-.93c-1.9-.29-2.14-1.53-2.55-3.59-.38-1.85-.62-3.08-2.32-3.9a3.14,3.14,0,0,0-2.5-.2c-.19.09-.65.28-1.27-.37a21.08,21.08,0,0,1-1.86-2.69c-2.22-3.44-2.33-3.43-3.09-3.36-.75,1-.47,2.6-2,3.15-.63.22-1.21-.19-1.84-.12s-1.07.68-1.75.53c-.39-.08-.64-1.33-.65-1.35a3.19,3.19,0,0,1,.1-1.71,5.32,5.32,0,0,1,.39-.65c.41-.66,1.17-1,1.58-1.68s.35-1.43.77-2.06c.3-.42.84-.17,1.24.12.55.37.84,1.06,1.57,1.21,1.78.36,3.6-.15,5.38.21,1.55.45,2.29,1.9,3.47,2.81.91.69,2.11-.21,3,.54a4.55,4.55,0,0,1,1.19,2,15.31,15.31,0,0,0,3,5.32c1.51,1.64,4,1.53,5.54,3.12,1.21,1.27,1.59,4.6,1.59,4.63"/><path class="cls-54" d="M1295.52,431.54c-.18,1.92-2.11,2.8-3.55,1-3-3.66-3-3.66-3.45-6.23.42.13,1.5.45,2.56.66.43.08.87,0,1.3.09,1.23.36,3.35,2.31,3.14,4.45"/><path class="cls-55" d="M1323.27,432.67c-.11,1.05-.57,3.5-2.31,3.49-2.89,0-4.16-3.11-6.8-3.57-1.91-.33-3.61,1.09-5.54.58a1.47,1.47,0,0,1-.89-.54c-.23-.38.16-1.06-.43-1.23a40.38,40.38,0,0,0-4.44-.24,10.37,10.37,0,0,1-4.72-1.53c-.62-.48-.42-2.06.25-2,1.36.2,2,1.84,3.47,1.79.89,0,2.05-1.12,1.48-1.93a3.62,3.62,0,0,0-1.82-1c-.66-1.64-.06-2.14,2.21-1.85.9.17,1.61.3,6.86,2.45,3.18,1.3,4.78,2.26,4.77,2.89a1.93,1.93,0,0,0,.82,1.43c.65.4,1.37-.05,2.55-.78,1.91-1.18,2.75-1.19,3.71-.77,0,0,1.08.5.83,2.75"/><path class="cls-56" d="M1383.83,209.09c-.9.2-1.81.28-2.72.48-1.4.32-2.73.92-4.15,1.14-.41.06-.87-.22-.78-.42.22-.5,4.77-1.66,6.33-1.61-1.17.57-2.5.58-3.68,1.09a15.44,15.44,0,0,0,2.83-.69c.47-.42,5.79-1,5.83-1a28.84,28.84,0,0,1-3.66,1.05"/><path class="cls-57" d="M1366.49,216a1.87,1.87,0,0,1-1,.08c0-.15.13-.25.16-.39-.88-.35-1.57.76-2.45.31,0-.4-.61-.46-1-.45-.88,0-1.7.41-2.56.49a.13.13,0,0,1,0-.09l.37-1.12c1.49-.75,3.19-.76,4.73-1.36-.81,0-1.56.56-2.41.37,0-.22-.19-.29-.27-.45a24.06,24.06,0,0,1,5-1.47,15.72,15.72,0,0,0,2.59-.48l0,0h0c-.2-.11-.52-.08-3.71.65a9,9,0,0,1-2,.39,18.71,18.71,0,0,1,3.73-1,20.49,20.49,0,0,0,2.13-.49,4.11,4.11,0,0,0-1.21.19c-3,.66-3.92.19-4,.18.91-.86,10.68-2,11.82-2a9.24,9.24,0,0,1-1.39.38c1-.12,1.89-.83,3-.48a18.84,18.84,0,0,1-3.92,1.1,11.29,11.29,0,0,0-2.26.55.25.25,0,0,1,.05.17c-.16.1-.34.18-.5.29a11.52,11.52,0,0,0,2.67-.55,36.26,36.26,0,0,1-4.68,1.28s-.57.15-.71.43a6.92,6.92,0,0,0,1.36-.24c-.06.1-.06.1-.75.36a17,17,0,0,0-3.38,1.53c.46.14,4.44-1.6,4.47-1.62a15.53,15.53,0,0,1,4.17-1,.57.57,0,0,0,0,.13c-1.35,1.13-3.12,1-4.66,1.62.1.09.21.12,1.53-.21a6.13,6.13,0,0,1,1.13-.23,41.07,41.07,0,0,1-5.44,2.2c-.25-.05-.76.29-.76.3,1.2,0,2.22-.67,3.37-.86a30.62,30.62,0,0,1-3.24,1.51"/><path class="cls-58" d="M1358.3,222.85c-1.38.68-2.69,1.5-4.14,2.08a20.5,20.5,0,0,1-2.07.42c-.64.17-1.18.6-1.81.79a.83.83,0,0,1-.35.05c-.16-.23.32-.71.32-.71s.23-.22.32-.31c.57-.51,1.25-.87,1.81-1.37s.73-.89,1.17-1.28.94-.74,1.42-1.1a5.2,5.2,0,0,1,2.81-1.21s0,.06,0,.08c-1.61.7-.61,1.17-.6,1.18.52.13,2.22-.71,2-1.29a4.48,4.48,0,0,1,3.34-1.32c.2.3-.12.51-.13.77.13.1.15.11,1.27-.27a4.84,4.84,0,0,1,1.06-.32,22.62,22.62,0,0,1-4.12,1.93s-1.18.07-1.42.53a.25.25,0,0,0,0,.07,5,5,0,0,0,.67-.14,5.7,5.7,0,0,1-1.57,1.42"/><path class="cls-59" d="M1377.19,211.9c-.39.1-.45,0-.35-.19a2.3,2.3,0,0,1,1-.63c1-.35,2-.54,3-.81a28,28,0,0,1-3.69,1.63"/><path class="cls-60" d="M1373.88,213.2s-1.14.37-1.1.21a4.24,4.24,0,0,1,1.37-.83,13,13,0,0,1,2.15-.31s0,0,0,0-2.4.88-2.43.9"/><path class="cls-61" d="M1370.46,216.48a4.55,4.55,0,0,0-1.49.3c-.76.31-1.39.95-2.28.94,0,0,0,0,0,0-.12-.33-.66-.62-.34-1,.55-.64,1.42-.53,2.07-.94-.07,0-.17,0-.24-.08a13.08,13.08,0,0,1,2.73-1.45l.31-.1c.69-.19,1.4-.24,2.09-.44,1.24-.36,2.37-1.1,3.71-1.13v0l0,.1c0,.13.12.19.09.31s-.23.17-.31.29a1.44,1.44,0,0,0,.62-.05.28.28,0,0,1-.12.12l-.12.06c-1.61.74-3.27,1.37-4.89,2-.63.25-1,.91-1.74,1"/><path class="cls-62" d="M1378.84,219s-4.93,3.15-5.48,2.88c0-.66.93-.85.79-1.58-.17-.11-.35-.14-1.5.27a2.71,2.71,0,0,1-.91.21c-.24,0-.53-.1-.48-.51s.52-.66.67-1.06a.15.15,0,0,1,0-.06c-.93,0-1.75,1.06-2.74.25,0-.27.31-.4.35-.66a1.12,1.12,0,0,1-.11-.15c.25-.27.73-.54,2.88-1.46a22.1,22.1,0,0,0,3.41-1.76l-.06-.06a3,3,0,0,0-.79.22c-.37.13-.38.12-.49,0,.69-.91,1.86-1,2.73-1.55-.35,0-.65.41-1,.17.11-.11.35-.37,2.14-1.09l1.71-.66a1.21,1.21,0,0,1,.61-.08.22.22,0,0,1,0,.08,4.61,4.61,0,0,1-1.09,1.14c-.12.09-.13.11-.14.2s.11.13,1,0c0,0,0,0,0,.06a20.3,20.3,0,0,1-2.35,1.19c-1.2.57-1.62.78-1.72,1,.17.15.42.06.6.18-.13.32-.81.4-.59.82.07.15.07.15,1-.14a7.75,7.75,0,0,1,.94-.27c.26,0,.52,0,.78,0,.64-.05,1.41-.17,2-.26a.81.81,0,0,1,.31,0c-.18.6-.91.74-1.11,1.31a.54.54,0,0,0,.18,0c-.14.3-.28.53-1.5,1.32"/><path class="cls-63" d="M1369.63,218.11a2.93,2.93,0,0,1-1.07.35c-.06,0-.9-.36-.87-.53s4.08-1.94,4.89-2.27a1.51,1.51,0,0,1,.89-.09c.52.3-3.79,2.52-3.84,2.54"/><path class="cls-64" d="M1382.68,212.42c-.64.22-2.18.54-2.08.15a19.38,19.38,0,0,1,2.8-1.24,9.62,9.62,0,0,0-1.4.37c.24-.26.67-.21.91-.5-.08-.06-.17,0-.26,0,.45-.34,6.74-2.17,6.78-2.17l-.07.05c-.54.29-1.11.49-1.65.78-.12.07-.18.23-.31.3-1.12.57-2.44.65-3.51,1.33-.32.2-.44.27-.42.39s-.6.5-.79.56"/><path class="cls-65" d="M1382.59,211.12c-1.19.39-1.32.37-1.41.35a.14.14,0,0,1,0-.06c.33-.58,1-.46,1.5-.79,0-.1-.18-.08-.16-.21s.14-.18.23-.23a19,19,0,0,1,1.76-.71c.73-.26,1.51-.33,2.24-.54s1.24-.47,1.88-.63a5.05,5.05,0,0,1,1.24-.16v.06c.29,0,.55-.09.83-.07-.76.46-1.72.38-2.48.85.39.12.72-.15,1.1-.15l-.16.08a.53.53,0,0,0-.12,0c-1.18.4-2.39.7-3.56,1.1-1,.34-1.9.76-2.87,1.08"/><path class="cls-66" d="M1390.8,208.6a7.29,7.29,0,0,1-1.46.38,50.13,50.13,0,0,1,6-1.64,2.83,2.83,0,0,1-.41.14l-4.09,1.12"/><path class="cls-67" d="M1404.89,205.39a5.22,5.22,0,0,1-.68.43h0a36.69,36.69,0,0,1-8.43,4.09,1,1,0,0,1,.19-.25.67.67,0,0,1-.14-.09,6.31,6.31,0,0,0-1.77.86,1.4,1.4,0,0,0,.28-.06.75.75,0,0,0,.07.12c-.41.32-4.28,2.84-4.83,2.87l-.1-.12a.51.51,0,0,1,0-.13,8.18,8.18,0,0,0-3.73,1.63c.13,1-3.84,2.76-3.88,2.76l-.07-.11a5.37,5.37,0,0,0-1.46.31l-.13,0c.09-.22.13-.31,2.37-1.65a7.46,7.46,0,0,0,.81-.52,8.09,8.09,0,0,0-.83.09c-.39-.46-1.25-.08-1.67.1a2.67,2.67,0,0,1-2.74-.2c.58-.77,4.13-2.14,4.5-2.19l7.09-2.65a6.39,6.39,0,0,0-2.4.57c-1.06.38-1.59.55-1.85.25,1-.75,1-.75,4.65-2.17l0,0h0c2.3-1.43,11.57-3.21,11.67-3.23-1.28.5-2.66.7-3.92,1.24,2.42-.3,4.64-1.38,7-1.92h0"/><path class="cls-68" d="M1384.15,258.08h0m21.92-52c-.29-.17-.68-.37-1-.53l0,0,.35.3-.48-.4-.11.06a3.28,3.28,0,0,1-.2.31,2.56,2.56,0,0,0,.22-.35l-.1.06c-7.38,5.6-10.13,6.3-11.17,6.56l-.25-.26c-.57.23-.7.29-1.93,1.77l.32.25.77-.19c-.65,2-2.91.75-4,1.83l.18.36.46.09c-.42,1.08-1.58,1.69-1.81,2.89,1.37-.42,2.21-1.66,3.48-2.25a8.84,8.84,0,0,0-.5,1.79c1,.56,3.57,2,.08,7.29a20.68,20.68,0,0,0-2.92,8.62c1.11-.64,1.34-2.21,2.71-2.56l.21.29c-.21,1.16,1,2,.76,3.17-.18.87-1.25.66-1.46.36-.39-.58-.1-1.24-.24-1.85-.77.17-4.59,4.9-4.67,5.19,1,.65,2.92,1.42,4-.75a4.85,4.85,0,0,0,1.88.05c.2.3.41.6,0,1.38-.74,1.37-2.4,1.78-3.21,3.08-1.19,1.93-1.34,4.28-2.53,6.2a8.29,8.29,0,0,0-.65,8.34c1.24,0,1.34-2,2.82-1.66-.08.45-.15.84-2.73,2.55-.19,1.4.56,9.69.58,9.71,1.83,2.31,5,1.12,7.12,2.82,1.65,1.35,2.85,3.22,4.76,4.29a.84.84,0,0,0,.77-.06,7.5,7.5,0,0,0,2.91-7.94c-.41-.77-1.48-1.15-1.25-2.26.34-1.72,2.12-2.58,2.55-4.24.48-1.81,1.94-3.18,2.33-5,.2-.92,0-1.59-.6-3.06l.27-.28c6.39,1.75,11.15-3.38,11.17-4.26.09-3.41.09-3.41.22-3.51,1.44-1.08,2.49,1.6,3.92.41l5-5.47c.62-1.34-.75-3.57-.76-3.59-.54-.68-1.36-.63-2.45.15-1.33,1-4.52.78-5,.25-.8-.86,2.31-3,3.1-3,1.94,0,3,2.1,5,2,.64-5.32-10.6-4.56-7.26-8.75l.37,0c1.71,2.07,1.71,2.07,2.69,1.87.6-1.09.83-2.38,1.78-3.28a4.64,4.64,0,0,0-2.28-2.82,4,4,0,0,1-.67.3,2.28,2.28,0,0,1-.74-.6,1,1,0,0,1,1.45-.62c-1-1.84-3.33-2.16-4.56-3.76,0-.13,0-.3.08-.43.21-.14.21-.14,1.42-.14,0,0-.19-2.52-3.85-2.61-4.45-7-4.45-7-6.27-8.11"/><path class="cls-69" d="M1499.09,222.77c12.68,7.77,21,12.91,35.53,26,12.82,12.73,13.87,13.77,21.39,23.26,10.94,15.21,11.59,16.12,17.12,26.17,8.58,17.37,8.92,18,12.64,28.65,5.71,18.86,5.93,19.6,7.84,30.73l.66,4.19c-2-12.85-4.42-19.51-6-22.83.38,11.26,6.12,21.32,7.2,32.42.29,5.57.82,13,.85,18.57-.85,20.28-.91,21.49-3.13,34.28-4.4,19.65-4.49,20-8.26,30.58-7.29,17.95-7.58,18.66-13.05,28.49-10,16.28-10.35,16.92-17.5,26-11.76,13.64-12.72,14.75-21.76,23l-6.13,5.28c23.8-21.34,40.49-54.23,40.65-54.56,5.61-11.15.36-23.66,4.39-35-.1,0-12.73,1.59-12.75,1.62-6.43,8.65-21.64,9-23.77,7.3-.74-11.87-12.4-16.1-17.43-25,1.75-2.62,4.61-4.36,5.87-7.39a7,7,0,0,0-3.25-2.24c.1-2.07.21-4.43,5-8.23-.16-3.17-.16-3.17-6.76-9,.17-3.72-.35-4.29-1.63-5.63.37-2.76,12.11-28.88,12.2-29a7.51,7.51,0,0,0,2.37-3.44c.94-4.9-2.31-9.31-1.68-14.18.66-5,5.29-8.53,5.34-13.81,2.18-1.41,2.18-1.41,6,2.28,3.47-3.33,13.64-17.28,13.69-17.37,1-.28,2.4-.6,3.43-.8l.14-.06,0,0h0c2.66,3.45.73,8.53,4.14,11.71l15.64,6.72c-.45-3.52-3.57-6-3.69-9.67a33.64,33.64,0,0,0,2.22-2.56c1.31.95,1.31.95,5.47,6.2.18-.78.18-.78-.58-8l1.66.94c0-5.41-7.36-19.86-8.58-21.91.52,2.14,1.37,4.18,2,6.29a8.43,8.43,0,0,1-2.24-2.68l-1.32,1.06c-3.71-2.74-3.71-2.74-5.51-7.57-2.14-.94-2.22-1-4.4-3.6,0,6.34,1,6.85,5.58,9.28,2,7.68,2,7.68,2.32,8.35-3.54-.79-3.54-.79-14.07-17.75-2.72-.59-2.72-.59-7.56-4.88l-1.87.39c-.91-.76-2.13-1.77-3.06-2.51-1.84,9.82,12.07,7.8,15.47,14.51-.23.52-.52,1.2-.75,1.71,2.51,3.64,3,4.3,3.76,7.44-.27.42-.64,1-.92,1.4-18.36-17.43-18.36-17.43-20.27-17.7a44.15,44.15,0,0,0,.64,5.68,11.22,11.22,0,0,1-3.7-.86c-.21.47-.48,1.11-.69,1.58,4.77,6.39,4.21,22.75,4.17,22.88-1.49,5.08-2.67,9.1-13.19,7.8-5.52-.69-12.75-27.5-12.71-27.75l1.46-.82a33.74,33.74,0,0,0,2.73,2.75c1.45-.37,5.68-2.68,7.2-5.11-2.69-4.34-7-12.19-7.05-12.22-7.91-1.23-7.91-1.23-10.25-4.08,2.9-3,4.1-3,6.09-2.93a7.21,7.21,0,0,0,.21-3.45l1.59-.53c-1.39-3.28-1.25-7.14-3.75-10,1-2.29,1.12-2.48-.56-5.35l1.7.46c0-.55.09-1.28.13-1.83-9.61-8.41-9.61-8.41-10.26-12.07,5.76,3.08,10.21,8.37,16.85,10a16.46,16.46,0,0,0-1.23-3.93l1.89-.23c-.13-1-.13-1-12.6-13.79.94.48,2.18,1.14,3.1,1.66-1.27-3.31-5.31-3.61-7-6.43.36-.36.83-.82,1.2-1.17-1.61-1.75-1.61-1.75-4.82-3.56a10.79,10.79,0,0,0,1.75,3c-.17.47-.39,1.11-.55,1.58-10.11-2.31-14.68-13-24.26-16.08,8.59,16.26,30.39,18.4,38.08,35.63-7.14-2.41-11.8-8.45-18-12.27,1.78,6.61,1.78,6.61,1.76,6.71a7.71,7.71,0,0,1-3.4-1.73l-40.76-34.48,1.63-.37a30.32,30.32,0,0,0-3.47-1.73,25.28,25.28,0,0,1,3.78.75c-.85-.56-.85-.56-5.2-2.69.08-.14.19-.31.26-.44l-1.57-.65,1.71.36c-.42-.28-1-.65-1.38-.92,2.36.35,3.08.46,9.7,2.51-2.13-.91-2.13-.91-5.42-2.14,2,.52,2,.52,6,1.71l-1.43-.84c11.48-.13,19.13,9.13,29.39,12-.92-1.37-.92-1.37-6.3-3.56l2.1.07c-2.65-1.71-2.65-1.71-8.64-5.13l1.94.47c-4.77-2.49-10-3.67-15-5.5,1.46.37,1.46.37,13.06,4.07-5.48-2.48-13.34-6-13.34-6,.54.1.54.1,5.59,1.38-7.64-3.57-7.64-3.57-16.39-5l1.79.13-1.5-.71c1.33,0,2.62.5,4,.33a143,143,0,0,1,40.26,15.4"/><path class="cls-70" d="M1511,272.37c.76,1.24.6,2.85,1.61,4a12,12,0,0,0,2.61,2.11c.41.27,1.51,1,1.39,2a6.91,6.91,0,0,1-.71,2.51l-.14.12c-.8.6-2.57.68-3.52.72-.69,0-.87.24-1,.45-.23.59,0,1.25-.28,1.82-1.25,2.21-1.53,2.1-1.87,2-2.41-.86-1.87-3.18-.78-4.16.33-.3.54-.49.27-1s-.78-1.32-1.54-.93c-.44.23-.9.48-2.1-1,1.07-.9,1.48-1.24,1-2.17-.91-1.61-3-2.1-3.75-3.89l.1-.26c1.31-.49,1.13-.92-.41-2.89-1.27-1.62-3.27-2.32-4.75-3.7l.16.1c-.12-.27-.56-.94-2.1-1.32a7.6,7.6,0,0,1-3.08-1.27,2.3,2.3,0,0,0-2.3-2.58,7.71,7.71,0,0,1-5.61-3.84l.09-.15c1.24,0,2.15.93,3.34,1.07,0-.31,0-.31-.8-1.23-1.82-2.07-1.84-2.14-1.95-2.59.4-.65,1-.2,1.56-.29.75-.13.52-.95.92-1.33a13.33,13.33,0,0,1,1.39.21l2.22,3.32,1.32,2.38c2-4,4.41,2.48,4.43,2.56.11.43-.64.41-.48.84a6.69,6.69,0,0,0,1.39,1.72c.62.52,1.06-.46,1.64-.48,1.27,0,1.38,1.28,2.15,1.83.61.44.61.44,3.55,1.75,1.56.7,2.1,2.45,3.48,3.34.08.06.86.55,1.15.25s.2-.56.35-.82l.38,0a4.37,4.37,0,0,1,.67.82"/><path class="cls-71" d="M1498.92,271.75c1.11,2.38,1.19,5.18,2.93,7.31.47.58,1.18.9,1.59,1.53a1.11,1.11,0,0,1,.13,1.15s-.71,2.06-2.32,2.38a15.21,15.21,0,0,1-6.28-.66.15.15,0,0,1-.06,0c.36-.39,1-.46,1.22-1s-.25-1.06.28-1.48c.19-.16.19-.16,1.22.31.51.24.8-.14.21-.79a6.85,6.85,0,0,0-1.95-1.09c-1.23-.44-1.46-.52-2.1-1.4-.18-.26-1.92-3.89-2-4.32.84.1,1.47,1.09,2.45.56.44-.24-.22-1.31-.44-1.66-.8-1.3-.81-1.33-.73-1.57,0,0,1.5-.94,1.5-.94a1.87,1.87,0,0,1,1.29.06c.6.24,1.16.58,1.78.82.26.09.57,0,.84.12s.35.52.47.75"/><path class="cls-72" d="M1460.18,240.47a2.37,2.37,0,0,1,.57,1c0,.5-.56.66-.63,1.11s.37,1.07.2,1.64c0,.18-.32.29-.8.47-.91.34-1.31.57-.34,2,.52.74.83,1.18-1.1,1a11,11,0,0,1-3.15-.94c-.45-.23-.47-.24-.63-.19-.36.1-.65.43-1.07.36l-.16,0a3.51,3.51,0,0,1-1.61-1.18,11.25,11.25,0,0,1-1.87-3,.69.69,0,0,0-.16-.18c-.72-.5-1.09.7-1.79.54a.37.37,0,0,0,0-.11c1.53-.64-.19-1.83-.35-1.9s-.22,0-.27,0c-.45.45-2.47-.53-2.94-1.08s-.21-2.42.14-2.51a10.73,10.73,0,0,1,3.26,1.85c1.36,1.21,1.59,1.25,1.82,1.29l.07-.08c0-1.39-1.4-1.85-2-2.84l.06-.07a3.92,3.92,0,0,1,2,1c.48.37.89.71,1,.64s.33-.15,0-1.53c-.09-.41-.11-.5,0-.58.24-.31.69-.18,1-.44s.38-1.08.94-1.36a1.18,1.18,0,0,1,.81.25c1.2.78,2.2,1.81,3.42,2.58.72.45,1.59.55,2.29,1a9.31,9.31,0,0,1,1.3,1.25"/></g></g><path class="cls-73" d="M1446.85,456.12l-17,.35c-5.42.12-12,.3-19.6.08s-16.16,0-25.46-.6-19.41-.72-30-1.84c-10.65-.91-21.87-1.85-33.41-3.5-11.58-1.26-23.44-3.45-35.49-5.51-6-1-12-2.57-18.08-3.84l-9.08-2-9-2.5a291.24,291.24,0,0,1-35.26-11.54c-11.36-4.57-22.27-10-31.77-16.89a60.83,60.83,0,0,1-12.46-12c-3.4-4.53-5.76-9.92-5.91-15.43s1.94-10.7,4.82-14.85a48.56,48.56,0,0,1,10.21-10.41,108.83,108.83,0,0,1,22-12.7c6.88-3.14,13.11-5.31,18.23-7.09s9.23-2.95,12-3.71l4.28-1.22-4.26,1.28c-2.8.8-6.85,2.13-12,3.87s-11.28,4.11-18.11,7.33a108.72,108.72,0,0,0-21.65,12.92,47.68,47.68,0,0,0-9.88,10.33c-2.73,4.06-4.73,9-4.42,14.21s2.51,10.24,5.85,14.56a59,59,0,0,0,12.28,11.48c9.41,6.64,20.24,11.85,31.56,16.22a289.46,289.46,0,0,0,35.14,10.95l9,2.36,9.05,1.87c6,1.18,12,2.64,18,3.57,12,1.88,23.82,3.9,35.36,5,11.5,1.48,22.67,2.26,33.26,3,10.58,1,20.65.95,29.89,1.42s17.74.14,25.26.25,14.09-.15,19.5-.35c10.84-.38,17-.58,17-.58Z"/><path class="cls-73" d="M1460.75,452.47a9.46,9.46,0,1,1-9.45-9.45A9.45,9.45,0,0,1,1460.75,452.47Z"/><path class="cls-73" d="M1260.16,308.71a9.46,9.46,0,1,1-9.46-9.45A9.46,9.46,0,0,1,1260.16,308.71Z"/><path class="cls-73" d="M1498.37,239.57a9.45,9.45,0,1,1-9.45-9.45A9.45,9.45,0,0,1,1498.37,239.57Z"/><path class="cls-73" d="M1614.3,267.63a9.45,9.45,0,1,1-9.45-9.46A9.45,9.45,0,0,1,1614.3,267.63Z"/><path class="cls-73" d="M1572.18,508.39l1.88,5.18a121.36,121.36,0,0,1,4.19,15c1.29,6.53,2.62,14.85.51,24.08-1.13,4.51-3.3,9.35-7.39,12.83a27.47,27.47,0,0,1-15.19,6.33c-11.61,1.38-24.14-1.5-36.61-5.72a220.07,220.07,0,0,1-37.63-17.53l-18.9-11c-6.19-4.07-12.34-8.39-18.61-12.64-3.1-2.17-6.31-4.23-9.36-6.5l-9-7c-6-4.73-12.2-9.3-18.13-14.19-11.52-10.09-23.57-19.8-34.37-30.32-11.15-10.15-21.5-20.91-31.62-31.17-9.79-10.56-19.35-20.71-27.8-30.87-8.79-9.88-16.3-19.88-23.53-28.87-6.87-9.27-13.16-17.78-18.46-25.52-5.1-7.89-9.75-14.64-13.22-20.43l-10.62-18.37a2.75,2.75,0,1,1,4.76-2.75h0l.09.16,10.27,18.24c3.35,5.76,7.89,12.48,12.85,20.34,5.16,7.73,11.3,16.25,18,25.52,7.09,9,14.43,19,23,28.94,8.29,10.2,17.68,20.39,27.31,31,9.95,10.3,20.07,21.08,31.13,31.38,10.71,10.67,22.47,20.35,33.9,30.58,5.84,4.93,11.94,9.55,17.88,14.32l8.94,7.09c3,2.29,6.16,4.37,9.22,6.55,6.17,4.29,12.23,8.66,18.35,12.77q9.51,5.72,18.77,11.25A219.85,219.85,0,0,0,1520,564.88c12.32,4.33,24.69,7.29,36.07,6.07a26.83,26.83,0,0,0,14.86-6c4-3.33,6.18-8,7.34-12.46,2.18-9.07,1-17.38-.25-23.9a120.33,120.33,0,0,0-4-15C1572.81,510.2,1572.18,508.39,1572.18,508.39Z"/><path class="cls-73" d="M1319.33,547.88l-5.29,2.6c-3.47,1.65-8.45,4.32-15,7.24-6.72,2.49-14.65,6.28-24.37,8.75A93.85,93.85,0,0,1,1259,569.3a43.62,43.62,0,0,1-17.59-1.8,24.28,24.28,0,0,1-8.22-4.82,23.37,23.37,0,0,1-5.62-8.16c-2.59-6.31-2.78-13.47-2-20.51,1.7-14.17,7.17-28.3,13.79-42.19,3.39-6.9,7-14,11.11-20.7l6.07-10.28c2.11-3.41,4.38-6.75,6.58-10.16,8.79-13.62,18.65-26.77,28.72-39.77,5.1-6.45,10.39-12.74,15.56-19.08l16.1-18.38c10.89-12,21.9-23.49,32.86-34.32s21.91-20.95,32.47-30.35l15.61-13.45,14.95-12.13c9.79-7.53,18.74-14.46,27.05-20.11,8.14-5.9,15.6-10.5,21.67-14.42s11.11-6.55,14.43-8.55l5.14-3,2.6,4.85-5.1,2.88c-3.28,1.95-8.29,4.46-14.32,8.28s-13.45,8.28-21.57,14c-8.29,5.51-17.25,12.3-27,19.67l-15,11.9L1391.56,312c-10.6,9.24-21.58,19.21-32.63,29.86s-22.11,22-33.07,33.83l-16.23,18.14c-5.22,6.26-10.55,12.47-15.69,18.84-10.16,12.82-20.14,25.85-29,39.27-2.23,3.36-4.51,6.65-6.65,10l-6.18,10.21c-4.22,6.72-7.78,13.58-11.24,20.45-6.73,13.72-12.28,27.69-14.09,41.58-.84,6.9-.71,13.88,1.72,20a22.71,22.71,0,0,0,5.29,7.86,23.31,23.31,0,0,0,7.86,4.71,43,43,0,0,0,17.26,1.94,92.79,92.79,0,0,0,15.62-2.65c9.72-2.36,17.66-6.05,24.4-8.48,6.59-2.84,11.59-5.46,15.09-7.07Z"/><path class="cls-73" d="M1609.52,266.62l1,1a20.51,20.51,0,0,1,2.87,3.37,26.39,26.39,0,0,1,2,3.23c.53,1.19,1.11,2.5,1.66,3.93.35,1.47.76,3.06,1.07,4.75.1,1.68.32,3.5.26,5.36-.22,7.48-2.84,15.8-7.16,24.25a149.12,149.12,0,0,1-17.51,26,289.35,289.35,0,0,1-25,26.64c-4.48,4.54-9.57,8.9-14.65,13.43s-10.45,8.89-15.87,13.37c-10.91,8.88-22.52,17.61-34.59,26.07s-24.52,16.77-37.25,24.64c-6.29,4-12.77,7.78-19.2,11.56s-12.88,7.41-19.33,10.94-12.89,7-19.32,10.27-12.76,6.52-19.11,9.49-12.52,6-18.72,8.67-12.17,5.46-18.16,7.78c-11.86,4.95-23.29,9-33.87,12.74L1303.29,519c-4.88,1.53-9.61,2.61-14,3.82l-6.4,1.69-6,1.2-10.6,2.11c-6.41,1.25-11.57,1.46-15,2l-5.33.6,5.31-.71c3.45-.58,8.58-.89,15-2.26l10.56-2.33,6-1.32,6.32-1.8c4.36-1.3,9-2.47,13.87-4.08l15.2-5.13c10.46-3.91,21.77-8.2,33.49-13.36,5.92-2.43,11.84-5.29,17.94-8.11s12.26-5.84,18.48-9,12.55-6.35,18.84-9.83,12.71-6.86,19-10.59,12.75-7.32,19-11.27,12.67-7.73,18.85-11.87c12.5-8.07,24.74-16.52,36.51-25.2s23.14-17.51,33.75-26.5c5.27-4.52,10.57-8.87,15.37-13.47s9.72-8.82,14.16-13.49a282.14,282.14,0,0,0,23.9-26.48,142,142,0,0,0,16.06-24.84c3.79-7.79,5.77-15,5.8-20.6a17.7,17.7,0,0,0-3.27-11.28c-.38-.93-1.84-2.07-2.33-2.65-.65-.64-1-1-1-1a4.72,4.72,0,0,1,6.68-6.66Z"/><path class="cls-26" d="M1936.29,794.94c-11.09,89.1-99.13,172.44-250.79,236.44-157.86,66.58-369.45,103.25-595.82,103.25-242.7,0-472.19-41.24-646.2-116.15-145.57-62.68-234-140.87-254.59-223.54h-7.17c20.4,85.49,110.42,165.95,259,229.93,174.86,75.27,405.33,116.72,649,116.72,227.27,0,439.84-36.86,598.53-103.8,154.55-65.22,244.14-150.84,255.1-242.85Z"/><path class="cls-26" d="M1853.91,1042.23c-10.05,80.71-89.8,156.22-227.18,214.19C1483.72,1316.73,1292,1350,1087,1350c-219.86,0-427.76-37.37-585.4-105.22-131.87-56.78-212-127.62-230.63-202.5h-6.49c18.48,77.45,100,150.33,234.63,208.29,158.4,68.19,367.19,105.73,587.89,105.73,205.89,0,398.44-33.39,542.2-94,140-59.08,221.17-136.64,231.11-220Z"/><path class="cls-26" d="M1803.66,1385.15c-9.4,75.59-84.11,146.31-212.79,200.62-133.95,56.5-313.48,87.61-505.56,87.61-205.93,0-400.65-35-548.3-98.56-123.52-53.19-198.56-119.52-216-189.67h-6.08c17.31,72.54,93.69,140.81,219.77,195.1,148.36,63.86,343.92,99,550.63,99,192.85,0,373.21-31.29,507.85-88.08,131.14-55.34,207.16-128,216.46-206.06Z"/><path class="cls-26" d="M597.09,1394.5a9.36,9.36,0,1,1-9.36-9.35A9.37,9.37,0,0,1,597.09,1394.5Z"/><circle class="cls-26" cx="449.91" cy="1119.99" r="9.36" transform="translate(-749.78 1252.38) rotate(-74.41)"/><path class="cls-26" d="M478,1073.71a9.35,9.35,0,1,1-9.35-9.35A9.34,9.34,0,0,1,478,1073.71Z"/><path class="cls-26" d="M633.88,1511.5a9.36,9.36,0,1,1-9.35-9.36A9.35,9.35,0,0,1,633.88,1511.5Z"/><circle class="cls-26" cx="744.49" cy="1563.26" r="9.36"/><circle class="cls-26" cx="569.02" cy="1665.87" r="9.36"/><path class="cls-26" d="M374.57,941.8a9.35,9.35,0,1,1-9.35-9.35A9.35,9.35,0,0,1,374.57,941.8Z"/><path class="cls-26" d="M487.33,628.37A9.36,9.36,0,1,1,478,619,9.36,9.36,0,0,1,487.33,628.37Z"/><path class="cls-26" d="M406.38,441.84a9.35,9.35,0,1,1-9.35-9.36A9.35,9.35,0,0,1,406.38,441.84Z"/><path class="cls-26" d="M432.25,385.23a9.36,9.36,0,1,1-9.36-9.35A9.36,9.36,0,0,1,432.25,385.23Z"/><path class="cls-26" d="M311.09,276.58a9.35,9.35,0,1,1-9.35-9.36A9.35,9.35,0,0,1,311.09,276.58Z"/><path class="cls-26" d="M635,297.35a9.35,9.35,0,1,1-9.35-9.35A9.35,9.35,0,0,1,635,297.35Z"/><path class="cls-26" d="M803.41,489.36a9.36,9.36,0,1,1-9.35-9.35A9.35,9.35,0,0,1,803.41,489.36Z"/><path class="cls-26" d="M644.4,803.85A9.36,9.36,0,1,1,635,794.5,9.35,9.35,0,0,1,644.4,803.85Z"/><path class="cls-26" d="M827.2,1141.59a9.35,9.35,0,1,1-9.35-9.35A9.34,9.34,0,0,1,827.2,1141.59Z"/><path class="cls-26" d="M209.79,1160.45a9.36,9.36,0,1,1-9.36-9.36A9.36,9.36,0,0,1,209.79,1160.45Z"/><path class="cls-26" d="M219.14,411.63a9.36,9.36,0,1,1-9.35-9.36A9.35,9.35,0,0,1,219.14,411.63Z"/><path class="cls-26" d="M191.08,568.45a9.36,9.36,0,1,1-9.36-9.36A9.36,9.36,0,0,1,191.08,568.45Z"/><path class="cls-26" d="M209.79,1052a9.36,9.36,0,1,1-9.36-9.35A9.35,9.35,0,0,1,209.79,1052Z"/><path class="cls-26" d="M295.2,1169.8a6.22,6.22,0,1,1-6.21-6.22A6.22,6.22,0,0,1,295.2,1169.8Z"/><path class="cls-26" d="M349.77,1023.44a6.22,6.22,0,1,1-6.22-6.22A6.22,6.22,0,0,1,349.77,1023.44Z"/><path class="cls-26" d="M165.8,882.45a4.35,4.35,0,1,1-4.35-4.35A4.34,4.34,0,0,1,165.8,882.45Z"/><path class="cls-26" d="M304.17,670a4.35,4.35,0,1,1-4.35-4.35A4.33,4.33,0,0,1,304.17,670Z"/><path class="cls-26" d="M675.85,618.56a4.35,4.35,0,1,1-4.34-4.35A4.34,4.34,0,0,1,675.85,618.56Z"/><path class="cls-26" d="M170.14,460.67a4.35,4.35,0,1,1-4.34-4.35A4.34,4.34,0,0,1,170.14,460.67Z"/><path class="cls-26" d="M482.32,815.09a4.35,4.35,0,1,1-4.35-4.34A4.35,4.35,0,0,1,482.32,815.09Z"/><path class="cls-26" d="M582.54,909.44a4.35,4.35,0,1,1-4.35-4.35A4.35,4.35,0,0,1,582.54,909.44Z"/><path class="cls-26" d="M544.32,963.92a4.35,4.35,0,1,1-4.35-4.35A4.35,4.35,0,0,1,544.32,963.92Z"/><path class="cls-26" d="M482.32,1017.22a4.35,4.35,0,1,1-4.35-4.35A4.35,4.35,0,0,1,482.32,1017.22Z"/><path class="cls-26" d="M332.44,701.62a4.35,4.35,0,1,1-4.34-4.35A4.34,4.34,0,0,1,332.44,701.62Z"/><path class="cls-26" d="M360.21,433.71a4.35,4.35,0,1,1-4.34-4.35A4.34,4.34,0,0,1,360.21,433.71Z"/><path class="cls-26" d="M427.24,406.62a4.35,4.35,0,1,1-4.35-4.35A4.34,4.34,0,0,1,427.24,406.62Z"/><path class="cls-26" d="M562.77,285.93a4.35,4.35,0,1,1-4.35-4.34A4.35,4.35,0,0,1,562.77,285.93Z"/><path class="cls-26" d="M702.46,489.36a4.35,4.35,0,1,1-4.35-4.34A4.35,4.35,0,0,1,702.46,489.36Z"/><path class="cls-26" d="M765.65,343.71a4.35,4.35,0,1,1-4.34-4.35A4.34,4.34,0,0,1,765.65,343.71Z"/><path class="cls-26" d="M894.54,188.18a4.35,4.35,0,1,1-4.35-4.34A4.35,4.35,0,0,1,894.54,188.18Z"/><path class="cls-26" d="M942.86,343.71a4.35,4.35,0,1,1-4.35-4.35A4.35,4.35,0,0,1,942.86,343.71Z"/><path class="cls-26" d="M410.73,595.18a4.35,4.35,0,1,1-4.35-4.34A4.35,4.35,0,0,1,410.73,595.18Z"/><path class="cls-26" d="M728.24,913.79a4.35,4.35,0,1,1-4.35-4.35A4.34,4.34,0,0,1,728.24,913.79Z"/><path class="cls-26" d="M702.46,959.57a4.35,4.35,0,1,1-4.35-4.34A4.35,4.35,0,0,1,702.46,959.57Z"/><path class="cls-26" d="M548.66,1098.71a4.35,4.35,0,1,1-4.34-4.34A4.34,4.34,0,0,1,548.66,1098.71Z"/><path class="cls-26" d="M677.52,1258.54a4.35,4.35,0,1,1-4.35-4.34A4.35,4.35,0,0,1,677.52,1258.54Z"/><path class="cls-26" d="M753.18,1376.48a4.35,4.35,0,1,1-4.34-4.35A4.34,4.34,0,0,1,753.18,1376.48Z"/><path class="cls-26" d="M711.15,1480.74a4.35,4.35,0,1,1-4.35-4.35A4.34,4.34,0,0,1,711.15,1480.74Z"/><path class="cls-26" d="M732.59,1502.14a4.35,4.35,0,1,1-4.35-4.34A4.35,4.35,0,0,1,732.59,1502.14Z"/><path class="cls-26" d="M569.23,1511.5a4.35,4.35,0,1,1-4.35-4.35A4.34,4.34,0,0,1,569.23,1511.5Z"/><path class="cls-26" d="M642.57,1665.87a4.35,4.35,0,1,1-4.34-4.35A4.34,4.34,0,0,1,642.57,1665.87Z"/><path class="cls-26" d="M702.46,1679.29a4.35,4.35,0,1,1-4.35-4.35A4.35,4.35,0,0,1,702.46,1679.29Z"/><path class="cls-26" d="M677.33,1582a4.35,4.35,0,1,1-4.35-4.34A4.35,4.35,0,0,1,677.33,1582Z"/><path class="cls-26" d="M780.62,1614.89a4.35,4.35,0,1,1-4.34-4.34A4.34,4.34,0,0,1,780.62,1614.89Z"/><path class="cls-26" d="M824.69,1628.74a4.35,4.35,0,1,1-4.35-4.35A4.34,4.34,0,0,1,824.69,1628.74Z"/><path class="cls-26" d="M856.29,1577.63a4.35,4.35,0,1,1-4.35-4.35A4.34,4.34,0,0,1,856.29,1577.63Z"/><path class="cls-26" d="M888.72,1610.55a4.35,4.35,0,1,1-4.35-4.35A4.34,4.34,0,0,1,888.72,1610.55Z"/><path class="cls-26" d="M880,1525.2a4.35,4.35,0,1,1-4.35-4.34A4.35,4.35,0,0,1,880,1525.2Z"/><path class="cls-26" d="M811.39,1472.05a4.35,4.35,0,1,1-4.35-4.35A4.34,4.34,0,0,1,811.39,1472.05Z"/><path class="cls-26" d="M793.93,1553.91a4.35,4.35,0,1,1-4.35-4.35A4.34,4.34,0,0,1,793.93,1553.91Z"/><path class="cls-26" d="M736.93,1661.52a4.35,4.35,0,1,1-4.34-4.34A4.34,4.34,0,0,1,736.93,1661.52Z"/><path class="cls-26" d="M642.57,1741.55a4.35,4.35,0,1,1-4.34-4.35A4.34,4.34,0,0,1,642.57,1741.55Z"/><path class="cls-26" d="M614.3,1590.66a4.35,4.35,0,1,1-4.35-4.34A4.35,4.35,0,0,1,614.3,1590.66Z"/><circle class="cls-26" cx="251.02" cy="1364.27" r="9.36" transform="translate(-1133.92 1285.77) rotate(-76.33)"/><path class="cls-26" d="M502.92,1208.59a9.36,9.36,0,1,1-9.36-9.35A9.35,9.35,0,0,1,502.92,1208.59Z"/><path class="cls-26" d="M459.27,1572.62a9.36,9.36,0,1,1-9.36-9.36A9.35,9.35,0,0,1,459.27,1572.62Z"/><circle class="cls-26" cx="1641.73" cy="1468.64" r="9.36" transform="matrix(0.97, -0.25, 0.25, 0.97, -316.57, 460.06)"/><path class="cls-26" d="M1770.19,1194.13a9.36,9.36,0,1,0,9.36-9.35A9.35,9.35,0,0,0,1770.19,1194.13Z"/><path class="cls-26" d="M1751.48,1147.86a9.36,9.36,0,1,0,9.36-9.36A9.36,9.36,0,0,0,1751.48,1147.86Z"/><path class="cls-26" d="M1595.58,1585.64a9.36,9.36,0,1,0,9.35-9.35A9.36,9.36,0,0,0,1595.58,1585.64Z"/><path class="cls-26" d="M1475.61,1637.41a9.36,9.36,0,1,0,9.35-9.36A9.35,9.35,0,0,0,1475.61,1637.41Z"/><path class="cls-26" d="M1651.08,1740a9.36,9.36,0,1,0,9.35-9.35A9.35,9.35,0,0,0,1651.08,1740Z"/><path class="cls-26" d="M1854.88,1016a9.36,9.36,0,1,0,9.36-9.36A9.36,9.36,0,0,0,1854.88,1016Z"/><circle class="cls-26" cx="1751.48" cy="702.52" r="9.36" transform="translate(-114.55 421.2) rotate(-13.28)"/><path class="cls-26" d="M1823.07,516a9.36,9.36,0,1,0,9.36-9.35A9.37,9.37,0,0,0,1823.07,516Z"/><path class="cls-26" d="M1797.21,459.37a9.36,9.36,0,1,0,9.35-9.35A9.35,9.35,0,0,0,1797.21,459.37Z"/><path class="cls-26" d="M1918.36,350.72a9.36,9.36,0,1,0,9.36-9.35A9.36,9.36,0,0,0,1918.36,350.72Z"/><path class="cls-26" d="M1594.41,371.5a9.36,9.36,0,1,0,9.36-9.36A9.36,9.36,0,0,0,1594.41,371.5Z"/><path class="cls-26" d="M1426,563.5a9.36,9.36,0,1,0,9.36-9.35A9.36,9.36,0,0,0,1426,563.5Z"/><path class="cls-26" d="M1585.06,878a9.36,9.36,0,1,0,9.35-9.36A9.35,9.35,0,0,0,1585.06,878Z"/><path class="cls-26" d="M1402.25,1215.73a9.36,9.36,0,1,0,9.36-9.35A9.36,9.36,0,0,0,1402.25,1215.73Z"/><circle class="cls-26" cx="2029.03" cy="1234.59" r="9.36" transform="translate(-278.7 1796.34) rotate(-45)"/><path class="cls-26" d="M2010.32,485.77a9.36,9.36,0,1,0,9.35-9.36A9.34,9.34,0,0,0,2010.32,485.77Z"/><path class="cls-26" d="M2038.38,642.59a9.36,9.36,0,1,0,9.36-9.36A9.37,9.37,0,0,0,2038.38,642.59Z"/><circle class="cls-26" cx="2029.03" cy="1126.12" r="9.36" transform="translate(704.74 3031.73) rotate(-84.23)"/><path class="cls-26" d="M1934.25,1244a6.22,6.22,0,1,0,6.22-6.22A6.22,6.22,0,0,0,1934.25,1244Z"/><path class="cls-26" d="M1879.69,1097.58a6.22,6.22,0,1,0,6.22-6.22A6.21,6.21,0,0,0,1879.69,1097.58Z"/><path class="cls-26" d="M2063.66,956.59a4.35,4.35,0,1,0,4.34-4.35A4.34,4.34,0,0,0,2063.66,956.59Z"/><path class="cls-26" d="M1925.29,744.16a4.35,4.35,0,1,0,4.34-4.34A4.34,4.34,0,0,0,1925.29,744.16Z"/><path class="cls-26" d="M1553.61,692.7a4.35,4.35,0,1,0,4.34-4.34A4.34,4.34,0,0,0,1553.61,692.7Z"/><path class="cls-26" d="M2059.31,534.81a4.35,4.35,0,1,0,4.35-4.35A4.35,4.35,0,0,0,2059.31,534.81Z"/><path class="cls-26" d="M1747.14,889.23a4.35,4.35,0,1,0,4.34-4.35A4.34,4.34,0,0,0,1747.14,889.23Z"/><path class="cls-26" d="M1646.92,983.58a4.35,4.35,0,1,0,4.35-4.35A4.34,4.34,0,0,0,1646.92,983.58Z"/><path class="cls-26" d="M1685.14,1038.06a4.35,4.35,0,1,0,4.35-4.35A4.34,4.34,0,0,0,1685.14,1038.06Z"/><path class="cls-26" d="M1747.14,1091.36a4.35,4.35,0,1,0,4.34-4.34A4.34,4.34,0,0,0,1747.14,1091.36Z"/><path class="cls-26" d="M1897,775.76a4.35,4.35,0,1,0,4.34-4.35A4.34,4.34,0,0,0,1897,775.76Z"/><path class="cls-26" d="M1869.25,507.85a4.35,4.35,0,1,0,4.34-4.35A4.34,4.34,0,0,0,1869.25,507.85Z"/><path class="cls-26" d="M1802.22,480.76a4.35,4.35,0,1,0,4.34-4.35A4.35,4.35,0,0,0,1802.22,480.76Z"/><path class="cls-26" d="M1666.69,360.08a4.35,4.35,0,1,0,4.35-4.35A4.34,4.34,0,0,0,1666.69,360.08Z"/><path class="cls-26" d="M1527,563.5a4.35,4.35,0,1,0,4.34-4.34A4.34,4.34,0,0,0,1527,563.5Z"/><path class="cls-26" d="M1463.8,417.84a4.35,4.35,0,1,0,4.35-4.34A4.35,4.35,0,0,0,1463.8,417.84Z"/><path class="cls-26" d="M1334.92,262.32a4.35,4.35,0,1,0,4.35-4.34A4.34,4.34,0,0,0,1334.92,262.32Z"/><path class="cls-26" d="M1286.6,417.84a4.35,4.35,0,1,0,4.35-4.34A4.35,4.35,0,0,0,1286.6,417.84Z"/><path class="cls-26" d="M1818.73,669.32a4.35,4.35,0,1,0,4.34-4.34A4.35,4.35,0,0,0,1818.73,669.32Z"/><path class="cls-26" d="M1501.22,987.92a4.35,4.35,0,1,0,4.35-4.34A4.35,4.35,0,0,0,1501.22,987.92Z"/><path class="cls-26" d="M1527,1033.71a4.35,4.35,0,1,0,4.34-4.35A4.34,4.34,0,0,0,1527,1033.71Z"/><path class="cls-26" d="M1680.8,1172.86a4.35,4.35,0,1,0,4.34-4.34A4.34,4.34,0,0,0,1680.8,1172.86Z"/><path class="cls-26" d="M1551.94,1332.68a4.35,4.35,0,1,0,4.35-4.35A4.34,4.34,0,0,0,1551.94,1332.68Z"/><path class="cls-26" d="M1476.27,1450.62a4.35,4.35,0,1,0,4.35-4.35A4.34,4.34,0,0,0,1476.27,1450.62Z"/><path class="cls-26" d="M1518.3,1554.88a4.35,4.35,0,1,0,4.35-4.34A4.35,4.35,0,0,0,1518.3,1554.88Z"/><path class="cls-26" d="M1496.87,1576.29a4.35,4.35,0,1,0,4.35-4.35A4.35,4.35,0,0,0,1496.87,1576.29Z"/><path class="cls-26" d="M1660.23,1585.64a4.35,4.35,0,1,0,4.34-4.34A4.34,4.34,0,0,0,1660.23,1585.64Z"/><path class="cls-26" d="M1586.89,1740a4.35,4.35,0,1,0,4.34-4.35A4.34,4.34,0,0,0,1586.89,1740Z"/><path class="cls-26" d="M1527,1753.43a4.35,4.35,0,1,0,4.34-4.35A4.34,4.34,0,0,0,1527,1753.43Z"/><path class="cls-26" d="M1552.13,1656.11a4.35,4.35,0,1,0,4.35-4.34A4.35,4.35,0,0,0,1552.13,1656.11Z"/><path class="cls-26" d="M1448.84,1689a4.35,4.35,0,1,0,4.34-4.35A4.34,4.34,0,0,0,1448.84,1689Z"/><path class="cls-26" d="M1404.77,1702.89a4.35,4.35,0,1,0,4.34-4.35A4.34,4.34,0,0,0,1404.77,1702.89Z"/><path class="cls-26" d="M1373.17,1651.77a4.35,4.35,0,1,0,4.34-4.35A4.34,4.34,0,0,0,1373.17,1651.77Z"/><path class="cls-26" d="M1340.74,1684.69a4.35,4.35,0,1,0,4.34-4.34A4.35,4.35,0,0,0,1340.74,1684.69Z"/><path class="cls-26" d="M1349.43,1599.34a4.35,4.35,0,1,0,4.35-4.34A4.35,4.35,0,0,0,1349.43,1599.34Z"/><path class="cls-26" d="M1418.07,1546.19a4.35,4.35,0,1,0,4.34-4.35A4.35,4.35,0,0,0,1418.07,1546.19Z"/><path class="cls-26" d="M1435.53,1628.05a4.35,4.35,0,1,0,4.34-4.35A4.34,4.34,0,0,0,1435.53,1628.05Z"/><path class="cls-26" d="M1492.53,1735.66a4.35,4.35,0,1,0,4.34-4.34A4.34,4.34,0,0,0,1492.53,1735.66Z"/><path class="cls-26" d="M1586.89,1815.7a4.35,4.35,0,1,0,4.34-4.35A4.34,4.34,0,0,0,1586.89,1815.7Z"/><path class="cls-26" d="M1615.16,1664.8a4.35,4.35,0,1,0,4.34-4.34A4.34,4.34,0,0,0,1615.16,1664.8Z"/><path class="cls-26" d="M1969.08,1438.4a9.36,9.36,0,1,0,9.36-9.36A9.35,9.35,0,0,0,1969.08,1438.4Z"/><path class="cls-26" d="M1726.54,1282.73a9.36,9.36,0,1,0,9.35-9.35A9.36,9.36,0,0,0,1726.54,1282.73Z"/><path class="cls-26" d="M1770.19,1646.76a9.36,9.36,0,1,0,9.36-9.35A9.36,9.36,0,0,0,1770.19,1646.76Z"/></g></g></g></svg>