<svg xmlns="http://www.w3.org/2000/svg" xmlns:xlink="http://www.w3.org/1999/xlink" viewBox="0 0 989 956"><defs><style>.cls-1{isolation:isolate;}.cls-2{fill:#e5e5e5;}.cls-3{fill:#099;}.cls-3,.cls-33,.cls-4,.cls-40,.cls-41,.cls-46,.cls-7{opacity:0.5;}.cls-5,.cls-7{fill:#ff4d78;}.cls-6{fill:#5c4dc7;}.cls-8{fill:#b6ff8b;}.cls-9{fill:#8446b2;}.cls-10{fill:#6328b8;}.cls-11{fill:#b66aea;}.cls-12{fill:#bfbcc4;}.cls-13{fill:#41324c;}.cls-14{fill:#d2ced8;}.cls-15{fill:#974ec6;}.cls-16{fill:#9e9b2c;}.cls-17{fill:#b969ed;}.cls-18{fill:#31263a;}.cls-19{fill:#b458dd;}.cls-20{fill:#fff68b;}.cls-21{fill:#4646b2;}.cls-22{fill:#1c36b8;}.cls-23{fill:#6c6aea;}.cls-24{fill:#bcbec4;}.cls-25,.cls-48{fill:#32324c;}.cls-26{fill:#ced0d8;}.cls-27{fill:#514ec6;}.cls-28{fill:#9e7a2c;}.cls-29{fill:#6c69ed;}.cls-30{fill:#26263a;}.cls-31{fill:#6258dd;}.cls-32{fill:#dddfeb;}.cls-33{fill:#020202;}.cls-33,.cls-36,.cls-40,.cls-41,.cls-44{mix-blend-mode:soft-light;}.cls-34{fill:#333;}.cls-35{fill:#7e75ea;}.cls-36{opacity:0.3;}.cls-37{fill:url(#linear-gradient);}.cls-38{fill:#dd2a55;}.cls-39{fill:#ffaf82;}.cls-42{fill:#8783a5;}.cls-43{fill:#a59fc1;}.cls-44,.cls-53{opacity:0.2;}.cls-45{fill:url(#linear-gradient-2);}.cls-46{fill:#d3cff0;}.cls-47{fill:#fff;}.cls-48{opacity:0.6;}.cls-49{fill:url(#linear-gradient-3);}.cls-50{fill:#4841a5;}.cls-51{fill:none;}.cls-52{fill:#424260;}.cls-53{fill:#121212;mix-blend-mode:multiply;}.cls-54{fill:#e8e8e8;}.cls-55{fill:#bfbfc1;}</style><linearGradient id="linear-gradient" x1="542.61" y1="687.43" x2="542.61" gradientUnits="userSpaceOnUse"><stop offset="0" stop-color="#7e75ea" stop-opacity="0.6"/><stop offset="1" stop-color="#f7f5fe" stop-opacity="0.3"/></linearGradient><linearGradient id="linear-gradient-2" x1="291.66" y1="359.77" x2="531.99" y2="359.77" gradientTransform="translate(1.24 -127.21) rotate(0.15)" gradientUnits="userSpaceOnUse"><stop offset="0" stop-color="#5c4dc7" stop-opacity="0.5"/><stop offset="1" stop-color="#fff" stop-opacity="0.5"/></linearGradient><linearGradient id="linear-gradient-3" x1="537.64" y1="345.62" x2="700.8" y2="345.62" gradientTransform="translate(1.24 -127.21) rotate(0.15)" gradientUnits="userSpaceOnUse"><stop offset="0" stop-color="#fff" stop-opacity="0.5"/><stop offset="1" stop-color="#5c4dc7" stop-opacity="0.5"/></linearGradient></defs><title>Recurso 5</title><g class="cls-1"><g id="Capa_2" data-name="Capa 2"><g id="Capa_1-2" data-name="Capa 1"><polyline class="cls-2" points="0 956 236.52 730.68 905.66 687.18"/><line class="cls-2" x1="905.66" y1="687.18" x2="730.99" y2="955.35"/><path class="cls-3" d="M989,323.44C973.71,207.88,893.76,112.89,800.5,59.9c-45.93-26.1-98.11-44.07-148.82-33.78-25.78,5.22-50,17.53-75.76,23.18C527,60.05,482.5,43.83,435,34.42c-46.68-9.25-98.34-3.49-144.78,5.08C261.11,44.88,229.32,55.1,214,83.24c-13.25,24.28-10.4,55.41-3.36,82.73a298.13,298.13,0,0,0,30.05,74c13.19,22.92,30,45.51,31.33,72.71,2.26,45.13-38.82,82.3-36.56,127.43,1,19.64,10.4,37.83,22.87,51.72,31.39,35,80,44,123.9,37.21s85-27.18,126.77-43.91a811.74,811.74,0,0,1,149.09-43.84c27.43-5.27,56-9,82.83-.83s50.06,27.84,77,35.91"/><path class="cls-2" d="M370.18,578l-9.6,165.48h0l-10.89-.11.53,7.25-8-3.31.38,3.26c1,8.52-3.46,13.61-10.53,13.37-1.95,6.59-8.77,9-17.47,5.08-10.58-4.77-19.83-17.33-21.08-28.1l-1.69-14.46-19.08-7.9-1.68-7.9-7.12-.06.42,5.66-6.26-2.59.3,2.55c.78,6.67-2.7,10.65-8.23,10.45-1.52,5.16-6.85,7-13.66,4-8.27-3.73-15.51-13.56-16.48-22l-1.32-11.31-14.92-6.17-17.93-84.34,20.66-14.25,43.58-.22,26.13.09ZM248.4,720.49l-1.32-11.35L229.76,702l.29,2.54c.88,7.57,7.77,16.25,15.21,19.06a13.11,13.11,0,0,0,3,.75A12,12,0,0,0,248.4,720.49ZM329.79,756,328.1,741.5,306,732.33l.38,3.26c1.12,9.68,9.93,20.78,19.44,24.36a15.89,15.89,0,0,0,3.86,1A15.36,15.36,0,0,0,329.79,756Zm10.09-6.95-.33-2.83-8.78-3.64,1.74,14.95a18.23,18.23,0,0,1,.08,3.36C337.69,760.2,340.66,755.76,339.88,749.07Zm-43.64-6.53c1.13,9.68,9.93,20.78,19.44,24.37,6.15,2.31,10.94.74,13.05-3.41a22.19,22.19,0,0,1-4-1.41c-10.58-4.76-19.83-17.33-21.09-28.09l-.32-2.77-8.78-3.64Zm-39.95-27.48-.26-2.22L249.16,710l1.36,11.69a14.6,14.6,0,0,1,.07,2.62C254.57,723.76,256.89,720.28,256.29,715.06ZM222.16,710c.89,7.57,7.77,16.25,15.21,19,4.8,1.81,8.55.59,10.2-2.66a17.8,17.8,0,0,1-3.16-1.1c-8.28-3.73-15.51-13.55-16.49-22l-.25-2.16-6.87-2.85Z"/><g class="cls-4"><path class="cls-5" d="M664.46,381.65a10.93,10.93,0,0,1-3.89-5.24l-16.21-42.83c-1.39-3.67-.77-7,1.38-7.38s5,2.24,6.41,5.91l12.16,32.13L684.85,333c1.31-2,4.15-1.09,6.35,2s2.92,7.24,1.61,9.23L668.45,381.3c-.82,1.25-2.3,1.4-3.9.41Z"/><path class="cls-5" d="M688.92,360.9,684.28,368v21.82c0,5.08-3.21,7.14-7.16,4.6L647,374.93c-3.94-2.55-7.15-8.75-7.15-13.83l0-38.83c0-5.08,3.21-7.15,7.16-4.6l28.68,18.51,2.72-4.14c-.42-.32-.84-.62-1.27-.9L647,311.69c-6.5-4.19-11.79-.79-11.79,7.59l0,38.83c0,8.38,5.28,18.6,11.78,22.79l30.13,19.45c6.5,4.19,11.79.79,11.79-7.58Z"/></g><path class="cls-6" d="M747.83,174.22l-19.62-12.65c-2.92-1.88-5.28-6.45-5.28-10.22V126.06c0-3.76,2.36-5.29,5.28-3.41l19.63,12.65c2.91,1.88,5.28,6.46,5.28,10.22v25.29C753.12,174.58,750.75,176.1,747.83,174.22Z"/><path class="cls-7" d="M747.83,236.1l-19.62-12.65c-2.92-1.88-5.28-6.45-5.28-10.21v-25.3c0-3.76,2.36-5.29,5.28-3.41l19.62,12.65c2.92,1.88,5.29,6.46,5.29,10.22v25.29C753.12,236.46,750.75,238,747.83,236.1Z"/><path class="cls-6" d="M747.83,298l-19.62-12.65c-2.92-1.88-5.28-6.45-5.28-10.21v-25.3c0-3.76,2.36-5.29,5.28-3.41l19.62,12.65c2.92,1.88,5.29,6.46,5.29,10.22v25.3C753.12,298.34,750.75,299.86,747.83,298Z"/><path class="cls-6" d="M747.83,359.86l-19.62-12.65c-2.92-1.88-5.28-6.45-5.28-10.21V311.7c0-3.76,2.36-5.29,5.28-3.41l19.62,12.65c2.92,1.88,5.29,6.46,5.29,10.22v25.3C753.12,360.22,750.75,361.74,747.83,359.86Z"/><polygon class="cls-8" points="279.21 588.02 206.53 623.74 185.87 606.83 258.55 571.11 279.21 588.02"/><polygon class="cls-9" points="206.53 623.74 185.87 606.83 204.6 611.16 206.53 623.74"/><polygon class="cls-10" points="279.21 588.02 258.55 571.11 260.48 583.7 279.21 588.02"/><polygon class="cls-11" points="264.37 476.92 258.55 571.11 260.48 583.7 261.42 483.68 264.37 476.92"/><path class="cls-12" d="M247.29,493.39c-.58.28-1-.06-.92-.75l2-20.71c.84-8.62-4-13.27-11-10.1-7.44,3.33-14.32,13.63-15.21,22.62l-2.06,21.09a2.42,2.42,0,0,1-1.17,1.78c-.57.28-1-.05-.92-.75l2-20.64c1-10,8.21-21.66,16.48-26.09,8.7-4.65,15,.26,14,10.68l-2.07,21.09A2.43,2.43,0,0,1,247.29,493.39Z"/><polygon class="cls-13" points="264.37 476.92 203.8 506.69 214.85 506.56 211.9 513.32 272.47 483.56 261.42 483.68 264.37 476.92"/><path class="cls-14" d="M249.89,489.55a4,4,0,0,1-1.93,2.94c-1,.47-1.64-.09-1.52-1.24a4,4,0,0,1,1.93-2.94C249.32,487.84,250,488.4,249.89,489.55Z"/><path class="cls-14" d="M221.66,503.41a4,4,0,0,1-1.93,2.94c-.95.47-1.63-.09-1.51-1.24a4,4,0,0,1,1.92-2.94C221.1,501.7,221.78,502.26,221.66,503.41Z"/><polygon class="cls-15" points="203.8 506.69 214.85 506.56 204.6 611.16 185.87 606.83 203.8 506.69"/><polygon class="cls-16" points="214.85 506.56 204.6 611.16 206.53 623.74 211.9 513.32 214.85 506.56"/><polygon class="cls-17" points="215.63 506.01 211.9 513.32 215.08 511.59 215.63 506.01"/><polygon class="cls-11" points="210.53 550.66 204.6 611.16 206.53 623.74 210.53 550.66"/><polygon class="cls-18" points="260.64 484.23 272.47 483.56 279.21 588.02 259.7 584.25 260.64 484.23"/><path class="cls-17" d="M272.47,483.55l-11.05.13,2.95-6.76L203.8,506.68l11-.12-2.95,6.76Zm-66.32,22.57L263.36,478l-2.72,6.22,9.48-.11-57.2,28.11,2.71-6.22Z"/><polygon class="cls-19" points="211.9 513.32 272.47 483.56 279.21 588.02 206.53 623.74 211.9 513.32"/><path class="cls-18" d="M257,497.92a4.06,4.06,0,0,1-1.93,2.94c-1,.47-1.64-.09-1.52-1.25a4,4,0,0,1,1.93-2.93C256.47,496.21,257.15,496.77,257,497.92Z"/><path class="cls-18" d="M228.81,511.78a4,4,0,0,1-1.93,2.94c-.95.47-1.63-.09-1.51-1.25a4,4,0,0,1,1.92-2.93C228.25,510.07,228.93,510.63,228.81,511.78Z"/><path class="cls-14" d="M255.18,499.84c-.58.29-1,0-.92-.75l2-20.7c.84-8.63-4-13.27-11-10.1-7.44,3.32-14.33,13.63-15.21,22.62L228,512a2.43,2.43,0,0,1-1.16,1.78c-.58.28-1-.06-.92-.76l2-20.64c1-10,8.21-21.66,16.49-26.08,8.7-4.66,15,.26,14,10.67l-2.07,21.1A2.44,2.44,0,0,1,255.18,499.84Z"/><polygon class="cls-20" points="369.2 578.22 276.24 623.9 249.82 602.27 342.78 556.59 369.2 578.22"/><polygon class="cls-21" points="276.24 623.9 249.82 602.27 273.77 607.8 276.24 623.9"/><polygon class="cls-22" points="369.2 578.22 342.78 556.59 345.25 572.69 369.2 578.22"/><polygon class="cls-23" points="350.22 436.12 342.78 556.59 345.25 572.69 346.45 444.77 350.22 436.12"/><path class="cls-24" d="M328.37,457.18c-.73.36-1.26-.07-1.17-1l2.59-26.48c1.08-11-5.05-17-14.11-12.92-9.51,4.26-18.31,17.44-19.44,28.93l-2.64,27a3.11,3.11,0,0,1-1.5,2.27c-.73.36-1.26-.07-1.17-1l2.59-26.4c1.25-12.78,10.5-27.7,21.08-33.36,11.13-5.95,19.21.33,17.91,13.65l-2.65,27A3.07,3.07,0,0,1,328.37,457.18Z"/><polygon class="cls-25" points="350.22 436.12 272.75 474.19 286.89 474.03 283.11 482.67 360.58 444.61 346.45 444.77 350.22 436.12"/><path class="cls-26" d="M331.69,452.28a5.14,5.14,0,0,1-2.46,3.76c-1.22.6-2.09-.12-2-1.59a5.15,5.15,0,0,1,2.47-3.76C331,450.09,331.84,450.8,331.69,452.28Z"/><path class="cls-26" d="M295.6,470a5.13,5.13,0,0,1-2.47,3.75c-1.22.6-2.09-.11-1.94-1.59a5.11,5.11,0,0,1,2.47-3.75C294.87,467.82,295.74,468.53,295.6,470Z"/><polygon class="cls-27" points="272.75 474.19 286.89 474.03 273.77 607.8 249.82 602.27 272.75 474.19"/><polygon class="cls-28" points="286.89 474.03 273.77 607.8 276.24 623.9 283.11 482.67 286.89 474.03"/><polygon class="cls-29" points="287.88 473.33 283.11 482.67 287.18 480.46 287.88 473.33"/><polygon class="cls-23" points="281.36 530.43 273.77 607.8 276.24 623.9 281.36 530.43"/><polygon class="cls-30" points="345.45 445.47 360.58 444.61 369.2 578.22 344.25 573.39 345.45 445.47"/><path class="cls-29" d="M360.58,444.61l-14.13.16,3.77-8.65-77.47,38.07,14.14-.16-3.78,8.64Zm-84.82,28.85,73.16-35.94-3.47,8,12.12-.14-73.16,35.95,3.47-7.95Z"/><polygon class="cls-31" points="283.11 482.67 360.58 444.61 369.2 578.22 276.24 623.9 283.11 482.67"/><path class="cls-30" d="M340.84,463a5.15,5.15,0,0,1-2.47,3.76c-1.22.6-2.09-.12-1.94-1.59a5.14,5.14,0,0,1,2.46-3.76C340.11,460.79,341,461.5,340.84,463Z"/><path class="cls-30" d="M304.74,480.71a5.12,5.12,0,0,1-2.46,3.75c-1.22.6-2.09-.11-1.95-1.59a5.13,5.13,0,0,1,2.47-3.75C304,478.52,304.89,479.23,304.74,480.71Z"/><path class="cls-26" d="M338.46,465.44c-.74.36-1.26-.07-1.18-1l2.6-26.48c1.08-11-5.06-17-14.11-12.92-9.51,4.26-18.32,17.43-19.44,28.93l-2.65,27a3.07,3.07,0,0,1-1.49,2.27c-.74.36-1.26-.07-1.17-1l2.58-26.4c1.26-12.78,10.51-27.7,21.09-33.36,11.12-6,19.21.33,17.91,13.65l-2.65,27A3.1,3.1,0,0,1,338.46,465.44Z"/><path class="cls-26" d="M907.4,665.38,722.53,548,246.39,731.48c-8.34,3.21-9.44,15.87-1.82,20.82L420.41,866.48A26.25,26.25,0,0,0,444.57,869L905.66,687.18"/><polygon class="cls-26" points="241.3 700.2 239.43 742.36 340.97 742.03 241.3 700.2"/><path class="cls-32" d="M899.1,651.35l-117,45.51L532.65,794l-65.77,25.6-21,8.17a28.62,28.62,0,0,1-15.27,1.57,29.17,29.17,0,0,1-11.36-4.43l-23.44-15.22L247,713c-8.56-5.58-7.31-19.79,2.07-23.42L704.83,514a37.33,37.33,0,0,1,33.92,3.63L906.52,625.78"/><polyline class="cls-6" points="887.87 635.2 477.93 797.01 295.24 685.74 717.26 525.24 887.87 635.2"/><polyline class="cls-33" points="887.84 634.36 717.09 524.66 295.27 685.79 300.69 689.08 716.74 530.15 882.33 636.55"/><path class="cls-34" d="M376.27,750.49c0,8.56-9.14,15.49-20.41,15.49s-20.4-6.93-20.4-15.49S344.6,735,355.86,735,376.27,741.93,376.27,750.49Z"/><path class="cls-33" d="M355.63,738.14c11,0,19.88,6.57,20.36,14.81a11.89,11.89,0,0,0,.28-2.46c0-8.56-9.14-15.49-20.41-15.49s-20.4,6.93-20.4,15.49c0,.23,0,.46.05.69C337.06,743.79,345.46,738.14,355.63,738.14Z"/><ellipse class="cls-35" cx="548.5" cy="687.43" rx="85.96" ry="45.64"/><path class="cls-36" d="M600.55,704.27c-1.93-6.28-20.88-31-27.85-22.6-.58.71-2,2.57-2.48,3.28-5.08,7.87-5.66,14.16-6.66,18.32-.48,2.06-2.72,7.13-4.15,12.59-1.32-1.06-2.14-1.65-2.14-1.65s-51.86,60.38-90.39,105.36L532.65,794c23-30.86,44.65-59.64,44.65-59.64a16.19,16.19,0,0,0-1.38-2.39,8,8,0,0,0,1.54-1.6c4.25-3.18,4-3.27,10.17-8,3.8-2.89,8.53-6.7,11.17-10.65C600.47,709.25,601.31,706.72,600.55,704.27Zm-71.5-2.8c1.4-1.39,3.25-3.16,5.74-5.46,9.59-8.88,9.85-14.75,9.85-14.75s-10.38-18.82-20.26-30.79,2.4,8.67-5.13,15.69-14.5.15-12,4c5.23,7.93,3.78,12.68,2.41,14.84-.66-.36-1.06-.56-1.06-.56s-68.85,76.78-112.82,125.21l23.44,15.22a29.17,29.17,0,0,0,11.36,4.43c38.92-51.27,98.84-127.08,98.84-127.08C529.34,702,529.18,701.73,529.05,701.47Z"/><polyline class="cls-37" points="820.52 0 634.47 687.43 462.54 687.43 264.7 0 820.52 0"/><path class="cls-38" d="M562.26,701.53c.51,11.43,32.5,7.49,37.62,4.07,2-1.33,2.8-3.88,3-7,.25-4.93-1.21-11.24-2.46-16.18-2-8.05-1.77-7.9-3.19-13.4,0,0,.37-8.95-10.12-12.36S572.75,675.54,571,679.83c-1.64,3.92-8,9.29-8.67,18.95A25,25,0,0,0,562.26,701.53Z"/><path class="cls-38" d="M519.18,654s.83,9.82-10.4,10.87-30.44,5-28.69,15.77,9.9,8.81,24.37,6.71,39.33-4.21,39.33-4.21,3.17-4.69.92-18.36-1.74-14.9-1.74-14.9Z"/><path class="cls-25" d="M600.6,493c-1.33,8.41-1.24,172.93-1.24,172.93-3,1.43-8.24,1.85-13.27,1.85a130.62,130.62,0,0,1-13.68-.8s-11-183.27-12.22-208.77-4.5-71.79-9.49-71-5.49,18.93-8.23,45,1.74,224,1.74,224c-8.73,4.21-26.19-1.31-26.19-1.31S506,503.66,500.8,445.28a341.32,341.32,0,0,1,1.57-75.92,207.54,207.54,0,0,1,4.42-23.73l91.87-3.71,1.28-.06c.06.15.11.32.17.51C604.2,356.27,601.91,484.66,600.6,493Z"/><path class="cls-36" d="M600.6,493c-1.33,8.41-1.24,172.93-1.24,172.93-3,1.43-8.24,1.85-13.27,1.85,0-3,1.25-5.93,2.28-8.75,5.1-14,5-29.48,4.9-44.55L591.38,407c-.1-10.95-1.56-24.32-10.59-28.59-3.81-1.81-8.12-1.44-12.25-1.1-22.11,1.75-45.25,1.12-66.17-7.95a207.54,207.54,0,0,1,4.42-23.73l91.87-3.71c.49.14,1,.3,1.45.45C604.2,356.27,601.91,484.66,600.6,493Z"/><path class="cls-39" d="M347.47,211.4h0a1.7,1.7,0,0,1-.47-.29h0a1.74,1.74,0,0,1-.34-.42v0a2.17,2.17,0,0,1-.21-.56v0a4.12,4.12,0,0,1-.08-.76,1.3,1.3,0,0,1,.07-.41,1.48,1.48,0,0,1,.13-.21.67.67,0,0,1,.09-.14h0c1.32-1.54,7-1.08,10.13-1.43l.62-.08.17,0L358,207l.21,0,.29-.05.19,0,.25,0,.17,0,.22,0,.15,0,.18-.05.13,0,.15-.05.11,0,.12-.05.1,0,.09,0,.07,0,.07,0,.06-.05.05,0,0-.05a.05.05,0,0,0,0,0l0,0v-.12a.43.43,0,0,1,0-.05l0,0s0,0,0,0a.18.18,0,0,0-.05-.07c-.44-.4-7.91-1-11.28-1-2.35,0-5.64.05-7.42-.79h0l-.06,0a2.33,2.33,0,0,1-.41-.24l-.12-.1a2.06,2.06,0,0,1-.26-.25,1.13,1.13,0,0,1-.1-.13,1.3,1.3,0,0,1-.16-.31.52.52,0,0,1-.06-.13,1.43,1.43,0,0,1-.07-.51,1.76,1.76,0,0,1,.06-.41s0-.08,0-.11a2.24,2.24,0,0,1,.13-.27l.05-.09.1-.12,0,0s0,0,0-.05l.07-.09h0l.12-.11.19-.13a1.69,1.69,0,0,1,.32-.19l.28-.14.27-.09.24-.09.31-.08.27-.06.33-.07.3-.05.36,0,.32,0,.37,0,.36,0,.74,0,.34,0h4.41c4.57-.13,8.87.94,9-.27s-16.63-3-17.87-3.22a11.45,11.45,0,0,1-4.25-1.27h0l-.36-.3-.08-.09a2.56,2.56,0,0,1-.2-.26.75.75,0,0,1-.07-.12,1.48,1.48,0,0,1-.12-.29s0-.08,0-.13a1.72,1.72,0,0,1,0-.46,1.63,1.63,0,0,1,.08-.45.5.5,0,0,1,0-.13,1.34,1.34,0,0,1,.13-.27,1,1,0,0,1,.08-.11,1.21,1.21,0,0,1,.21-.24l.07-.07a3.09,3.09,0,0,1,.37-.26h0c1.23-.7,3.32-.67,4.6-.64,1.88.06,7.1.47,11.45,1.1s5.73.88,6,.11a.16.16,0,0,0,0-.09h0c-.48-.9-9.68-3.77-13.13-4.73a11.38,11.38,0,0,1-4.95-2.5h0l-.14-.16-.18-.23-.16-.24a1,1,0,0,1-.07-.15,1.76,1.76,0,0,1-.09-.2,1,1,0,0,1-.05-.16,1.6,1.6,0,0,1,0-.21c0-.05,0-.1,0-.16a.81.81,0,0,1,0-.22.76.76,0,0,1,0-.15,2.21,2.21,0,0,1,0-.25l0-.13a1.65,1.65,0,0,1,.17-.39,1.15,1.15,0,0,1,.25-.33l.11-.09.08-.07h0c1.94-1.3,7.78.93,11.33,2,3.9,1.19,10.64,3.25,13.45,3.37s5.34.88,5.18-.77c0-.38,0-.68,0-.87,0-1.13-1.57-3.67-3-5.21s-2-4.7-1.85-6.7c.09-.95.4-1.69,1-1.77h.27l.16,0,.11.05.18.1.11.08.2.17.12.1.22.24.12.14.26.32.12.16c.09.13.19.28.28.43l.12.17c.11.17.22.37.34.57l.08.13h0l0,.05a31,31,0,0,0,10.11,10.29c3.08,1.64,5.17,2.39,6,6.42.26,1.32,26.79,2.63,30.67,2.65s1.36,17.94-1.79,17.61-30.16-6.2-31.56-4.51-3,2.41-8.44,3.22c-2.74.41-8,.79-12.46,1,0,0-8.32.52-11.53.35A12.14,12.14,0,0,1,347.47,211.4Z"/><path class="cls-6" d="M460.91,193c58.58-26.43,87.44-26,87.44-26-38.47,58.31-69.85,46.16-84,49.26s-76.64-7.91-76.64-7.91c1.91-5.07,2.62-12.89,1.53-17.22,0,0,25.43,1.28,34.86,1.21S460.91,193,460.91,193Z"/><path class="cls-6" d="M594.24,289.9l10.4,69a81.21,81.21,0,0,1-48.24,14.42,107.3,107.3,0,0,1-29.14-4.74q-2.7-.81-5.35-1.75a143.32,143.32,0,0,1-19.19-8.35l18.51-187.33,19.48-2.91,1.56-.23,2.79-.41,1.65-.25,1.63-.24L574,163.3l4.59,1.75,2.17.83,1.07.41,2.54,1,1.38.53,1.6.61,24.15,9.24Z"/><path class="cls-25" d="M519.82,83.6s-6.9,5.08-4.43,18.88,7.25,15.27,7.25,15.27S529.88,87.19,519.82,83.6Z"/><path class="cls-39" d="M551.56,148.09l.88,17.45.4,8c9,7.44,23.64-2.8,23.64-2.8l1.57-25.87c-4.17-3.13-14.91-.52-21.36,1.48C553.65,147.29,551.56,148.09,551.56,148.09Z"/><path class="cls-40" d="M551.56,148.09l.71,14.27c10.58-2.72,25.55-13.72,25.55-13.72l-21.13-2.29C553.65,147.29,551.56,148.09,551.56,148.09Z"/><path class="cls-25" d="M521.21,90.63s-16.87-8.76-11.92-24.22,25.12-8.35,43.26-7.58C581.77,60.07,590.92,77,590.18,94.7s-.58,41.35-7.75,50.19-12.07-3.66-15.78-14.71S540.05,85.31,521.21,90.63Z"/><path class="cls-39" d="M519.68,105.66c0,.59,0,1.2,0,1.81.3,11,2,24.3,3.66,35.14,1.77,11.51,11.7,19.12,22,16.81,12.34-2.78,27.56-7,34.5-12.1,2.12-1.55,3.46-3.18,3.72-4.87a126.13,126.13,0,0,0,1.13-15.22c.48-17.79-.68-40-.68-40-14.83-20.57-56.18-12.54-62.48,2.51C520.1,93.2,519.6,98.91,519.68,105.66Z"/><path class="cls-25" d="M544.2,115.59c0,2.31.92,4.19,2.06,4.19s2.06-1.88,2.06-4.19-.93-4.19-2.06-4.19S544.2,113.28,544.2,115.59Z"/><path class="cls-25" d="M523.1,115.59c0,2.31.92,4.19,2.06,4.19s2.06-1.88,2.06-4.19-.92-4.19-2.06-4.19S523.1,113.28,523.1,115.59Z"/><path class="cls-25" d="M555.19,109.79s-2-4.55-5.79-5.68a8.87,8.87,0,0,0-7.31.72,1.51,1.51,0,0,0-.57,1.74h0a1.24,1.24,0,0,0,1.73.79C545.38,106.25,550.08,104.82,555.19,109.79Z"/><path class="cls-25" d="M519.68,105.66c0,.59,0,1.2,0,1.81a9.19,9.19,0,0,1,8.84-.11,1.16,1.16,0,0,0,.54.13,1.29,1.29,0,0,0,1.19-.92,1.51,1.51,0,0,0-.57-1.74,8.86,8.86,0,0,0-7.31-.72A7.44,7.44,0,0,0,519.68,105.66Z"/><path class="cls-25" d="M579.84,147.32c2.12-1.55,3.72-3.49,4-5.18.62-3.95,2-22.68,2.12-28.55l-12.25,1S573.63,144.28,579.84,147.32Z"/><path class="cls-25" d="M521.21,90.63s19.37,5,33.58-2.83c0,0,8.79,35.52,29.75,29.73,0,0,18.6-51.8-35.57-52.32C503.75,64.77,521.21,90.63,521.21,90.63Z"/><g class="cls-41"><path d="M535.55,138.74a6.8,6.8,0,0,1-2.83-.49,3.82,3.82,0,0,1-2.28-3.48,4.22,4.22,0,0,1,1.28-2.68A12.67,12.67,0,0,1,533,131c.26-.21.52-.41.77-.63a10.76,10.76,0,0,0,3.5-8.12.37.37,0,0,1,.34-.4.37.37,0,0,1,.36.39A11.65,11.65,0,0,1,534.2,131l-.8.65a10.76,10.76,0,0,0-1.2,1,3.42,3.42,0,0,0-1.06,2.14,3,3,0,0,0,1.84,2.71,7.89,7.89,0,0,0,3.5.41.38.38,0,0,1,.36.39.37.37,0,0,1-.35.4Z"/></g><path class="cls-42" d="M512.1,106l.18,20.08a2.86,2.86,0,0,0,3,2.93c15.42-5.93,31-4.76,46.56.8a3.17,3.17,0,0,0,3.06-3.26L565,106a3.15,3.15,0,0,0-3-3.28,358.46,358.46,0,0,0-46.81,0A3.16,3.16,0,0,0,512.1,106Z"/><path class="cls-42" d="M559.94,102.39s4.89-.16,5,3.35l-6,1.47Z"/><path class="cls-42" d="M559.61,130.41s5.59.72,5.26-3.86S559.61,130.41,559.61,130.41Z"/><path class="cls-43" d="M509.89,105.75l.19,20.78a3.94,3.94,0,0,0,.31,1.47,2.86,2.86,0,0,0,3.57,1.56c15.13-5.27,30.35-4.85,45.65.85a3.21,3.21,0,0,0,3.06-3.37l.08-21.26a3.22,3.22,0,0,0-3-3.4,345,345,0,0,0-46.81,0A3.22,3.22,0,0,0,509.89,105.75Z"/><path class="cls-44" d="M520.53,93.15s25.38,6.9,34.26-5.35c-9.61,5-20.87,5.77-33.61,2.83Z"/><path class="cls-43" d="M579.16,110.52l-15.74,6.93-.24-3.64s6.8-4.19,8.49-3.62C571.67,110.19,580,108.21,579.16,110.52Z"/><path class="cls-43" d="M568.76,110.83l21.14-8.33s-.1,3.29-.16,4.21-20.87,7-20.87,7Z"/><path class="cls-39" d="M581.59,116.68c0,4.1-3,7.43-6.65,7.43s-6.65-3.33-6.65-7.43,3-7.43,6.65-7.43S581.59,112.58,581.59,116.68Z"/><path class="cls-40" d="M577.94,116.94a3,3,0,1,1-3-3.48A3.27,3.27,0,0,1,577.94,116.94Z"/><path class="cls-25" d="M512.55,107.2l.16,16.81a2.71,2.71,0,0,0,2.65,2.71c13.75-5.3,27.47-4.74,41.18.39a2.72,2.72,0,0,0,2.71-2.73l.09-17.2a2.7,2.7,0,0,0-2.68-2.74,334.6,334.6,0,0,0-41.42,0A2.71,2.71,0,0,0,512.55,107.2Z"/><path class="cls-39" d="M598.92,410.52h0a1.57,1.57,0,0,1-.37.36h0a1.33,1.33,0,0,1-.42.19h0a1.14,1.14,0,0,1-.49,0h0a2.69,2.69,0,0,1-.6-.16.88.88,0,0,1-.3-.2,1.13,1.13,0,0,1-.12-.18,1.48,1.48,0,0,1-.08-.13h0c-.76-1.73,1.33-7,2-10.05,0-.21.1-.42.14-.61l0-.17c0-.13.05-.26.08-.38l0-.21.06-.29,0-.19a1.87,1.87,0,0,1,0-.25,1.1,1.1,0,0,1,0-.18l0-.21c0-.06,0-.11,0-.16a1.24,1.24,0,0,0,0-.18.71.71,0,0,0,0-.14.92.92,0,0,0,0-.16v-.12a.24.24,0,0,0,0-.12v-.21a.28.28,0,0,1,0-.09s0,0,0-.07,0-.05,0-.07,0,0,0-.06,0,0,0-.05l0,0,0,0,0,0,0,0h-.14l-.07,0c-.43.29-3.19,7.18-4.23,10.38-.72,2.23-1.69,5.37-2.87,6.8h0l0,.05a3,3,0,0,1-.31.31l-.11.09-.27.17-.13.05a.94.94,0,0,1-.28.06h-.13a1,1,0,0,1-.41-.09.9.9,0,0,1-.28-.18l-.08-.07a1.56,1.56,0,0,1-.16-.2l-.06-.08-.06-.13v0s0,0,0-.07a.36.36,0,0,1,0-.09h0a.88.88,0,0,1,0-.15c0-.07,0-.15-.05-.22a3.6,3.6,0,0,1,0-.36,3,3,0,0,1,0-.31,2.62,2.62,0,0,1,0-.28,2.26,2.26,0,0,1,0-.26l0-.32a2.51,2.51,0,0,1,0-.27c0-.11,0-.22,0-.34s0-.2,0-.3.05-.23.07-.35,0-.21.08-.32,0-.24.08-.36l.09-.35c.06-.24.12-.47.19-.72l.09-.33.12-.43c0-.11.07-.22.1-.33s.09-.29.13-.43.07-.24.11-.36l.15-.48c0-.1.06-.19.08-.28l.27-.86c0-.08,0-.17.08-.26l.24-.78c1.3-4.37,3.43-8.13,2.54-8.6s-7.38,14.85-7.92,16A12.94,12.94,0,0,1,583.4,415h0a2.46,2.46,0,0,1-.34.25l-.09,0-.26.11-.12,0a.69.69,0,0,1-.25,0h-.11a1.08,1.08,0,0,1-.37-.1,1.4,1.4,0,0,1-.32-.22l-.08-.08a1.16,1.16,0,0,1-.16-.21l-.06-.11a1.18,1.18,0,0,1-.12-.28l0-.08a3,3,0,0,1-.09-.43h0a12.05,12.05,0,0,1,.92-4.56c.62-1.77,2.53-6.6,4.35-10.53s2.42-5.17,1.9-5.62h-.08c-.83.19-5.83,8-7.61,11a11.6,11.6,0,0,1-3.42,3.93h0l-.16.08-.23.1-.23.08-.14,0-.18,0H576l-.17,0-.13,0-.17-.07-.11-.05-.18-.13-.09-.07-.24-.27a1.09,1.09,0,0,1-.17-.34c0-.05,0-.09,0-.13l0-.11v0c-.39-2.24,3.09-7.1,5-10.14,2.1-3.34,5.73-9.1,6.69-11.73s2.3-4.8,1-5.15l-.66-.25c-.86-.37-3.28.36-4.89,1.25s-4.2.49-5.67-.29c-.69-.38-1.16-.9-1.05-1.45h0s0,0,0,0a.69.69,0,0,1,.05-.13.36.36,0,0,1,0-.09,1.1,1.1,0,0,1,.09-.14l.06-.08a.93.93,0,0,1,.14-.14l.09-.08a1.33,1.33,0,0,1,.19-.14l.12-.08a2,2,0,0,1,.25-.14l.14-.08.32-.14.16-.06.42-.14.16-.06.54-.15.12,0h0l0,0a25.83,25.83,0,0,0,10.93-6.45c2.19-2.41,3.4-4.17,6.71-3.69,1.09.15,10.21-24.61,11.42-28.29s14.07,4.2,12.85,7.09S606,373.12,606.82,375s.92,3.53-.13,9c-.53,2.73-1.87,7.87-3,12.14,0,0-2.15,8.06-3.26,11A14.56,14.56,0,0,1,598.92,410.52Z"/><path class="cls-6" d="M605.48,320.27C600.73,344,596.81,364,596.81,364c2.82,5.35,8,6.92,13.19,8.46,15.71-37.25,22.32-69.34,25.1-94.69.51-28.66-23.5-100.27-23.5-100.27-16.38-2.16-21,23.3-21,23.3,11.27,41.71,22.56,79.69,22.74,80.28C612.55,285.05,609.54,300,605.48,320.27Z"/><polygon class="cls-40" points="518.36 200.88 527.42 197.07 521.3 206.41 516.36 219.03 518.36 200.88"/><path class="cls-40" d="M601.75,241c-.47-.66-7.32-7.87-7.32-7.87l4.47,8.81.93,11.64Z"/><path class="cls-39" d="M587.3,168.4c-.87,1.71-11.22,21.39-26.31,20.39s-12.87-20.09-12.65-21.66L574,163.3l4.59,1.75,2.17.83,1.07.41,2.54,1,1.38.53Z"/><path class="cls-45" d="M292.18,158.33s187.34,21.1,240,13.36l0,137.24s-209.57-2-238.73-20.3C293.37,288.63,292,158.08,292.18,158.33Z"/><path class="cls-46" d="M307,175.92s81.91,7.87,97.93,8.74l-.82,11.26s-61.05-3.39-97.38-9.51Z"/><path class="cls-46" d="M316.25,200.59s82.14,7.6,98,8.08l-.73,11.09s-54.88-1.37-97.45-8.68Z"/><path class="cls-46" d="M303.18,219.8s82.12,7.88,97.95,8.41l-.76,11.08s-54.87-1.55-97.43-9Z"/><path class="cls-46" d="M320,242s82.17,7.27,98,7.68l-.7,11.09s-54.88-1.14-97.47-8.27Z"/><path class="cls-7" d="M302.11,260.53s77.62,11.43,98,10.08l-.48,21.82s-42.87.14-97.57-11.26Z"/><path class="cls-47" d="M366.87,282.12a2,2,0,0,1,1.57-1.91,1.91,1.91,0,0,1-1.2-2c.06-1.24,1-2.07,2.55-2,1,.07,2.07.13,3.1.18-.09,2.76-.19,5.51-.29,8.27l-3.31-.19A2.28,2.28,0,0,1,366.87,282.12Zm1.91-3.53c0,.67.36,1.05,1.08,1.1l1.39.08c0-.69.06-1.38.08-2.07l-1.38-.09A1,1,0,0,0,368.78,278.59Zm-.35,3.43a1.06,1.06,0,0,0,1.14,1.16l1.54.09.09-2.22-1.5-.09A1.08,1.08,0,0,0,368.43,282Z"/><path class="cls-47" d="M365.72,281.11a2.88,2.88,0,0,1-3.24,3,3,3,0,0,1-2.9-3.5c.12-1.7.23-3.4.35-5.1l1.51.13-.33,5.11c-.07,1.14.46,1.78,1.44,1.85s1.58-.47,1.64-1.61c.1-1.7.19-3.41.29-5.11l1.5.11C365.9,277.71,365.81,279.41,365.72,281.11Z"/><path class="cls-47" d="M356.15,280.6c-.07,1-.15,1.92-.22,2.88l-1.53-.15c.08-1,.16-1.92.23-2.87-.71-1.88-1.4-3.76-2.09-5.64l1.66.18c.43,1.31.87,2.61,1.31,3.92.63-1.2,1.27-2.41,1.89-3.61l1.69.15Q357.65,278,356.15,280.6Z"/><path class="cls-47" d="M344.27,273.85q-.3,2.82-.61,5.66c1.35-1.75,2.67-3.49,4-5.25l1.49.18-.78,8.24-1.52-.17q.27-2.83.56-5.65-2,2.63-4,5.23l-1.51-.2c.31-2.74.61-5.49.91-8.23Z"/><path class="cls-47" d="M333.56,276.51a3.88,3.88,0,0,1,4.33-3.63,4.1,4.1,0,0,1,3.32,4.73,3.89,3.89,0,0,1-4.36,3.68A4,4,0,0,1,333.56,276.51Zm6.11.89c.19-1.67-.61-2.85-2-3s-2.39.71-2.61,2.38.58,2.88,1.93,3.08S339.47,279.07,339.67,277.4Z"/><path class="cls-47" d="M330.37,280.23l-1.77-.3c-.2-2-.41-4-.6-6.07q-1.12,2.81-2.27,5.59l-1.77-.31c-.27-2.85-.52-5.69-.77-8.54l1.58.28q.17,3.28.34,6.55c.8-2,1.59-4.05,2.37-6.07l1.64.28q.28,3.3.6,6.6,1.11-3.08,2.19-6.15l1.58.25C332.47,275,331.43,277.61,330.37,280.23Z"/><path class="cls-48" d="M446.8,185.9S490,188.75,514.58,187l-.79,109.64s-20.72-.32-69.86-2.3C443.93,294.32,446.72,187.87,446.8,185.9Z"/><path class="cls-49" d="M538.1,171.62s94.07-7.88,157.74-40.57c0,0,.59,13.32.57,21.39l4.64,100.19S666.39,303,539.2,309Z"/><path class="cls-46" d="M547.32,190.49s41.15-3.39,72.26-12.42L621,192.28s-59.7,12.45-72.88,11.53Z"/><path class="cls-46" d="M549.16,212.93s41.14-3.39,72.25-12.41l1.38,14.2s-59.69,12.45-72.88,11.54Z"/><path class="cls-46" d="M551.62,235.73A425.5,425.5,0,0,0,617,224.87l1.46,14.6s-52.86,10.49-66,9.58Z"/><path class="cls-46" d="M553.68,259.4s53.64-6.77,84.75-15.8L640.51,257s-72.89,16.62-86.07,15.7Z"/><path class="cls-46" d="M639.21,174.62s36.53-9.27,49.5-16.86l4.11,56.63S675,229.77,645,234.59Z"/><path class="cls-50" d="M882.54,590.28,746.22,410.37l20.06-15.2s4.68-2.81,13.53,3.08,113.34,68.22,113.34,68.22"/><path class="cls-6" d="M820.71,583,791,536.3l-41.5-23.72a14.2,14.2,0,0,1-6.78-12.22l-.83-79.3c-.11-10.58,10-17.41,18.33-12.42l121,72.34"/><polyline class="cls-32" points="803.93 476.48 786.16 471.82 798.49 498.9 794.81 526.51 810.93 520.72"/><polyline class="cls-51" points="836.2 547.37 785.04 521.58 786.85 441.06 838.01 466.84"/><path class="cls-36" d="M899.1,651.35l-117,45.51L749.06,681s-12.47-4.25-13.27-21.27c-.58-12.48-2-50.12-2.72-69.26-.23-6.43,4.94-11.92,11.79-12.48l13.26-1.09,0,.09a8.08,8.08,0,0,1,3.38.71l31,13.8L820,581.92"/><polyline class="cls-2" points="268.85 956 330.4 862.35 179.35 845.24 94.3 956"/><polygon class="cls-25" points="179.35 845.24 263.57 903.05 264.56 857.77 180.34 799.96 179.35 845.24"/><polygon class="cls-52" points="330.4 862.35 263.57 903.05 264.56 857.77 331.38 817.07 330.4 862.35"/><path class="cls-53" d="M180.34,800l84.21,57.81-.2,9.21-84.21-57.81Zm150.84,26.33L264.36,867l.19-9.21,66.83-40.7Z"/><polygon class="cls-23" points="179.59 773.37 265.12 832.02 334.07 789.97 248.55 731.31 179.59 773.37"/><polygon class="cls-31" points="334.07 789.97 265.11 832.02 264.41 864.56 333.37 822.5 334.07 789.97"/><polygon class="cls-27" points="265.11 832.02 179.59 773.37 178.88 805.91 264.41 864.56 265.11 832.02"/><polygon class="cls-54" points="287.78 876.52 314.54 860.23 314.9 843.22 288.15 859.51 287.78 876.52"/><polygon class="cls-55" points="291.75 861.67 312.96 848.75 313.01 846.6 291.8 859.52 291.75 861.67"/><polygon class="cls-55" points="301.06 860.24 312.87 853.05 312.9 851.48 301.09 858.68 301.06 860.24"/><polygon class="cls-55" points="292.29 868.22 312.81 855.72 312.85 854.15 292.32 866.65 292.29 868.22"/><polygon class="cls-55" points="294.95 869.23 312.75 858.39 312.79 856.82 294.98 867.67 294.95 869.23"/></g></g></g></svg>