<svg height="512" viewBox="0 0 64 64" width="512" xmlns="http://www.w3.org/2000/svg" xmlns:xlink="http://www.w3.org/1999/xlink"><linearGradient id="linear-gradient" gradientUnits="userSpaceOnUse" x1="31.993" x2="31.993" y1="1.712" y2="56.251"><stop offset="0" stop-color="#22e0ff"/><stop offset="1" stop-color="#009cba"/></linearGradient><linearGradient id="linear-gradient-2" x1="31.993" x2="31.993" xlink:href="#linear-gradient" y1="-3.181" y2="52.702"/><g id="Send"><path d="m.42 57.551 11.3-24.742a1.952 1.952 0 0 0 0-1.618l-11.3-24.742a4.546 4.546 0 0 1 6.169-5.949l54.893 27.435a4.545 4.545 0 0 1 0 8.129l-54.893 27.436a4.546 4.546 0 0 1 -6.169-5.949z" fill="url(#linear-gradient)"/><path d="m11.72 32.809-11.3 24.742a4.546 4.546 0 0 0 6.169 5.949l54.893-27.436a4.545 4.545 0 0 0 0-8.129s-45.645 21.748-49.762 4.874z" fill="url(#linear-gradient-2)"/><g fill="#fff"><path d="m53.937 29.754-7.445-3.721a1 1 0 0 1 .9-1.789l7.445 3.721a1 1 0 1 1 -.9 1.789z"/><path d="m16.293 10.938-2.074-1.038a1 1 0 1 1 .894-1.789l2.074 1.036a1 1 0 0 1 -.894 1.79z"/><path d="m10.7 8.142-5.2-2.6.266.583a1 1 0 0 1 -1.819.831l-.798-1.756a1.544 1.544 0 0 1 2.1-2.022l6.351 3.175a1 1 0 0 1 -.9 1.789z"/></g></g></svg>